G75*
%MOIN*%
%OFA0B0*%
%FSLAX25Y25*%
%IPPOS*%
%LPD*%
%AMOC8*
5,1,8,0,0,1.08239X$1,22.5*
%
%ADD10C,0.06000*%
%ADD11OC8,0.06000*%
%ADD12C,0.05150*%
%ADD13C,0.02978*%
%ADD14C,0.01600*%
D10*
X0014800Y0018800D02*
X0020800Y0018800D01*
X0020800Y0028800D02*
X0014800Y0028800D01*
X0014800Y0043800D02*
X0020800Y0043800D01*
X0020800Y0053800D02*
X0014800Y0053800D01*
X0014800Y0068800D02*
X0020800Y0068800D01*
X0020800Y0078800D02*
X0014800Y0078800D01*
X0014800Y0127800D02*
X0020800Y0127800D01*
X0020800Y0137800D02*
X0014800Y0137800D01*
X0141800Y0139800D02*
X0141800Y0145800D01*
X0151800Y0145800D02*
X0151800Y0139800D01*
X0146800Y0021800D02*
X0146800Y0015800D01*
X0156800Y0015800D02*
X0156800Y0021800D01*
X0136800Y0021800D02*
X0136800Y0015800D01*
X0126800Y0015800D02*
X0126800Y0021800D01*
X0089800Y0020800D02*
X0089800Y0014800D01*
X0079800Y0014800D02*
X0079800Y0020800D01*
D11*
X0017800Y0093800D03*
X0017800Y0113800D03*
X0104800Y0142800D03*
X0123800Y0142800D03*
D12*
X0092666Y0129430D03*
X0072666Y0129430D03*
X0062666Y0129430D03*
X0052666Y0129430D03*
X0052666Y0109430D03*
X0062666Y0109430D03*
X0072666Y0109430D03*
X0092666Y0109430D03*
X0082934Y0069170D03*
X0072934Y0069170D03*
X0062934Y0069170D03*
X0042934Y0069170D03*
X0042934Y0049170D03*
X0062934Y0049170D03*
X0072934Y0049170D03*
X0082934Y0049170D03*
D13*
X0081800Y0058800D03*
X0106800Y0059800D03*
X0117800Y0044800D03*
X0130800Y0031800D03*
X0141800Y0031800D03*
X0151800Y0035800D03*
X0165800Y0027800D03*
X0128800Y0065800D03*
X0145800Y0090800D03*
X0164800Y0074800D03*
X0130800Y0112800D03*
X0117800Y0092800D03*
X0080800Y0088800D03*
X0052800Y0081800D03*
X0042800Y0095800D03*
X0052800Y0102689D03*
X0079800Y0117800D03*
X0080800Y0141800D03*
X0048800Y0142800D03*
X0051800Y0058800D03*
X0044800Y0036800D03*
X0062800Y0019800D03*
X0104800Y0019800D03*
X0164800Y0141800D03*
D14*
X0012600Y0014949D02*
X0012600Y0012600D01*
X0075949Y0012600D01*
X0075400Y0013925D01*
X0075400Y0021675D01*
X0076070Y0023292D01*
X0077308Y0024530D01*
X0078925Y0025200D01*
X0080675Y0025200D01*
X0082292Y0024530D01*
X0083530Y0023292D01*
X0084200Y0021675D01*
X0084200Y0013925D01*
X0083651Y0012600D01*
X0085534Y0012600D01*
X0085352Y0012957D01*
X0085118Y0013676D01*
X0085000Y0014422D01*
X0085000Y0017600D01*
X0089600Y0017600D01*
X0089600Y0018000D01*
X0089600Y0025600D01*
X0089422Y0025600D01*
X0088676Y0025482D01*
X0087957Y0025248D01*
X0087284Y0024905D01*
X0086673Y0024461D01*
X0086139Y0023927D01*
X0085695Y0023316D01*
X0085352Y0022643D01*
X0085118Y0021924D01*
X0085000Y0021178D01*
X0085000Y0018000D01*
X0089600Y0018000D01*
X0090000Y0018000D01*
X0094600Y0018000D01*
X0094600Y0021178D01*
X0094482Y0021924D01*
X0094248Y0022643D01*
X0093905Y0023316D01*
X0093461Y0023927D01*
X0092927Y0024461D01*
X0092316Y0024905D01*
X0091643Y0025248D01*
X0090924Y0025482D01*
X0090178Y0025600D01*
X0090000Y0025600D01*
X0090000Y0018000D01*
X0090000Y0017600D01*
X0094600Y0017600D01*
X0094600Y0014422D01*
X0094482Y0013676D01*
X0094248Y0012957D01*
X0094066Y0012600D01*
X0123777Y0012600D01*
X0123070Y0013308D01*
X0122400Y0014925D01*
X0122400Y0022675D01*
X0123070Y0024292D01*
X0124308Y0025530D01*
X0125925Y0026200D01*
X0127675Y0026200D01*
X0129292Y0025530D01*
X0130530Y0024292D01*
X0131200Y0022675D01*
X0131200Y0014925D01*
X0130530Y0013308D01*
X0129823Y0012600D01*
X0133777Y0012600D01*
X0133070Y0013308D01*
X0132400Y0014925D01*
X0132400Y0022675D01*
X0133070Y0024292D01*
X0134308Y0025530D01*
X0135925Y0026200D01*
X0137675Y0026200D01*
X0139292Y0025530D01*
X0140530Y0024292D01*
X0141200Y0022675D01*
X0141200Y0014925D01*
X0140530Y0013308D01*
X0139823Y0012600D01*
X0143777Y0012600D01*
X0143070Y0013308D01*
X0142400Y0014925D01*
X0142400Y0022675D01*
X0143070Y0024292D01*
X0144308Y0025530D01*
X0145925Y0026200D01*
X0147675Y0026200D01*
X0149292Y0025530D01*
X0150530Y0024292D01*
X0151200Y0022675D01*
X0151200Y0014925D01*
X0150530Y0013308D01*
X0149823Y0012600D01*
X0153777Y0012600D01*
X0153070Y0013308D01*
X0152400Y0014925D01*
X0152400Y0022675D01*
X0153070Y0024292D01*
X0154308Y0025530D01*
X0155925Y0026200D01*
X0157675Y0026200D01*
X0159292Y0025530D01*
X0160530Y0024292D01*
X0161200Y0022675D01*
X0161200Y0014925D01*
X0160530Y0013308D01*
X0159823Y0012600D01*
X0170701Y0012600D01*
X0170701Y0148961D01*
X0155428Y0148961D01*
X0155461Y0148927D01*
X0155905Y0148316D01*
X0156248Y0147643D01*
X0156482Y0146924D01*
X0156600Y0146178D01*
X0156600Y0143000D01*
X0152000Y0143000D01*
X0152000Y0142600D01*
X0156600Y0142600D01*
X0156600Y0139422D01*
X0156482Y0138676D01*
X0156248Y0137957D01*
X0155905Y0137284D01*
X0155461Y0136673D01*
X0154927Y0136139D01*
X0154316Y0135695D01*
X0153643Y0135352D01*
X0152924Y0135118D01*
X0152178Y0135000D01*
X0152000Y0135000D01*
X0152000Y0142600D01*
X0151600Y0142600D01*
X0151600Y0135000D01*
X0151422Y0135000D01*
X0150676Y0135118D01*
X0149957Y0135352D01*
X0149284Y0135695D01*
X0148673Y0136139D01*
X0148139Y0136673D01*
X0147695Y0137284D01*
X0147352Y0137957D01*
X0147118Y0138676D01*
X0147000Y0139422D01*
X0147000Y0142600D01*
X0151600Y0142600D01*
X0151600Y0143000D01*
X0147000Y0143000D01*
X0147000Y0146178D01*
X0147118Y0146924D01*
X0147352Y0147643D01*
X0147695Y0148316D01*
X0148139Y0148927D01*
X0148172Y0148961D01*
X0144862Y0148961D01*
X0145530Y0148292D01*
X0146200Y0146675D01*
X0146200Y0138925D01*
X0145530Y0137308D01*
X0144292Y0136070D01*
X0142675Y0135400D01*
X0140925Y0135400D01*
X0139308Y0136070D01*
X0138070Y0137308D01*
X0137400Y0138925D01*
X0137400Y0146675D01*
X0138070Y0148292D01*
X0138738Y0148961D01*
X0012600Y0148961D01*
X0012600Y0142066D01*
X0012957Y0142248D01*
X0013676Y0142482D01*
X0014422Y0142600D01*
X0017600Y0142600D01*
X0017600Y0138000D01*
X0018000Y0138000D01*
X0018000Y0142600D01*
X0021178Y0142600D01*
X0021924Y0142482D01*
X0022643Y0142248D01*
X0023316Y0141905D01*
X0023927Y0141461D01*
X0024461Y0140927D01*
X0024905Y0140316D01*
X0025248Y0139643D01*
X0025482Y0138924D01*
X0025600Y0138178D01*
X0025600Y0138000D01*
X0018000Y0138000D01*
X0018000Y0137600D01*
X0025600Y0137600D01*
X0025600Y0137422D01*
X0025482Y0136676D01*
X0025248Y0135957D01*
X0024905Y0135284D01*
X0024461Y0134673D01*
X0023927Y0134139D01*
X0023316Y0133695D01*
X0022643Y0133352D01*
X0021924Y0133118D01*
X0021178Y0133000D01*
X0018000Y0133000D01*
X0018000Y0137600D01*
X0017600Y0137600D01*
X0017600Y0133000D01*
X0014422Y0133000D01*
X0013676Y0133118D01*
X0012957Y0133352D01*
X0012600Y0133534D01*
X0012600Y0131651D01*
X0013925Y0132200D01*
X0021675Y0132200D01*
X0023292Y0131530D01*
X0024530Y0130292D01*
X0025200Y0128675D01*
X0025200Y0126925D01*
X0024530Y0125308D01*
X0023292Y0124070D01*
X0021675Y0123400D01*
X0013925Y0123400D01*
X0012600Y0123949D01*
X0012600Y0082651D01*
X0013925Y0083200D01*
X0021675Y0083200D01*
X0023292Y0082530D01*
X0024530Y0081292D01*
X0025200Y0079675D01*
X0025200Y0077925D01*
X0024530Y0076308D01*
X0023292Y0075070D01*
X0021675Y0074400D01*
X0013925Y0074400D01*
X0012600Y0074949D01*
X0012600Y0072651D01*
X0013925Y0073200D01*
X0021675Y0073200D01*
X0023292Y0072530D01*
X0024530Y0071292D01*
X0025200Y0069675D01*
X0025200Y0067925D01*
X0024530Y0066308D01*
X0023292Y0065070D01*
X0021675Y0064400D01*
X0013925Y0064400D01*
X0012600Y0064949D01*
X0012600Y0057651D01*
X0013925Y0058200D01*
X0021675Y0058200D01*
X0023292Y0057530D01*
X0024530Y0056292D01*
X0025200Y0054675D01*
X0025200Y0052925D01*
X0024530Y0051308D01*
X0023292Y0050070D01*
X0021675Y0049400D01*
X0013925Y0049400D01*
X0012600Y0049949D01*
X0012600Y0047651D01*
X0013925Y0048200D01*
X0021675Y0048200D01*
X0023292Y0047530D01*
X0024530Y0046292D01*
X0025200Y0044675D01*
X0025200Y0042925D01*
X0024530Y0041308D01*
X0023292Y0040070D01*
X0021675Y0039400D01*
X0013925Y0039400D01*
X0012600Y0039949D01*
X0012600Y0032651D01*
X0013925Y0033200D01*
X0021675Y0033200D01*
X0023292Y0032530D01*
X0024530Y0031292D01*
X0025200Y0029675D01*
X0025200Y0027925D01*
X0024530Y0026308D01*
X0023292Y0025070D01*
X0021675Y0024400D01*
X0013925Y0024400D01*
X0012600Y0024949D01*
X0012600Y0022651D01*
X0013925Y0023200D01*
X0021675Y0023200D01*
X0023292Y0022530D01*
X0024530Y0021292D01*
X0025200Y0019675D01*
X0025200Y0017925D01*
X0024530Y0016308D01*
X0023292Y0015070D01*
X0021675Y0014400D01*
X0013925Y0014400D01*
X0012600Y0014949D01*
X0012600Y0014194D02*
X0041817Y0014194D01*
X0041739Y0014226D02*
X0045023Y0012866D01*
X0048577Y0012866D01*
X0051861Y0014226D01*
X0054374Y0016739D01*
X0055734Y0020023D01*
X0055734Y0023577D01*
X0054374Y0026861D01*
X0051861Y0029374D01*
X0048577Y0030734D01*
X0045023Y0030734D01*
X0041739Y0029374D01*
X0039226Y0026861D01*
X0037866Y0023577D01*
X0037866Y0020023D01*
X0039226Y0016739D01*
X0041739Y0014226D01*
X0040173Y0015793D02*
X0024015Y0015793D01*
X0024979Y0017391D02*
X0038956Y0017391D01*
X0038294Y0018990D02*
X0025200Y0018990D01*
X0024822Y0020588D02*
X0037866Y0020588D01*
X0037866Y0022187D02*
X0023636Y0022187D01*
X0023606Y0025384D02*
X0038614Y0025384D01*
X0037952Y0023785D02*
X0012600Y0023785D01*
X0012600Y0033376D02*
X0128326Y0033376D01*
X0128351Y0033436D02*
X0127911Y0032375D01*
X0127911Y0031225D01*
X0128351Y0030164D01*
X0129164Y0029351D01*
X0130225Y0028911D01*
X0131375Y0028911D01*
X0132436Y0029351D01*
X0132686Y0029600D01*
X0139914Y0029600D01*
X0140164Y0029351D01*
X0141225Y0028911D01*
X0142375Y0028911D01*
X0143436Y0029351D01*
X0144249Y0030164D01*
X0144689Y0031225D01*
X0144689Y0031578D01*
X0145711Y0032600D01*
X0147000Y0033889D01*
X0147000Y0038889D01*
X0147711Y0039600D01*
X0151711Y0039600D01*
X0153000Y0040889D01*
X0153000Y0065711D01*
X0148000Y0070711D01*
X0148000Y0088914D01*
X0148249Y0089164D01*
X0148689Y0090225D01*
X0148689Y0091375D01*
X0148249Y0092436D01*
X0147436Y0093249D01*
X0146375Y0093689D01*
X0145225Y0093689D01*
X0144164Y0093249D01*
X0143351Y0092436D01*
X0142911Y0091375D01*
X0142911Y0090225D01*
X0143351Y0089164D01*
X0143600Y0088914D01*
X0143600Y0068889D01*
X0144889Y0067600D01*
X0148600Y0063889D01*
X0148600Y0044000D01*
X0145889Y0044000D01*
X0144600Y0042711D01*
X0142600Y0040711D01*
X0142600Y0035711D01*
X0141578Y0034689D01*
X0141225Y0034689D01*
X0140164Y0034249D01*
X0139914Y0034000D01*
X0132686Y0034000D01*
X0132436Y0034249D01*
X0131375Y0034689D01*
X0130225Y0034689D01*
X0129164Y0034249D01*
X0128351Y0033436D01*
X0127911Y0031778D02*
X0024045Y0031778D01*
X0024991Y0030179D02*
X0043684Y0030179D01*
X0040946Y0028581D02*
X0025200Y0028581D01*
X0024810Y0026982D02*
X0039348Y0026982D01*
X0049916Y0030179D02*
X0128344Y0030179D01*
X0130800Y0031800D02*
X0141800Y0031800D01*
X0144800Y0034800D01*
X0144800Y0039800D01*
X0146800Y0041800D01*
X0150800Y0041800D01*
X0150800Y0064800D01*
X0145800Y0069800D01*
X0145800Y0090800D01*
X0148316Y0089324D02*
X0170701Y0089324D01*
X0170701Y0087726D02*
X0148000Y0087726D01*
X0148000Y0086127D02*
X0170701Y0086127D01*
X0170701Y0084529D02*
X0148000Y0084529D01*
X0148000Y0082930D02*
X0170701Y0082930D01*
X0170701Y0081332D02*
X0148000Y0081332D01*
X0148000Y0079733D02*
X0170701Y0079733D01*
X0170701Y0078134D02*
X0148000Y0078134D01*
X0148000Y0076536D02*
X0162450Y0076536D01*
X0162351Y0076436D02*
X0161911Y0075375D01*
X0161911Y0074225D01*
X0162351Y0073164D01*
X0162600Y0072914D01*
X0162600Y0049711D01*
X0151578Y0038689D01*
X0151225Y0038689D01*
X0150164Y0038249D01*
X0149351Y0037436D01*
X0148911Y0036375D01*
X0148911Y0035225D01*
X0149351Y0034164D01*
X0150164Y0033351D01*
X0151225Y0032911D01*
X0152375Y0032911D01*
X0153436Y0033351D01*
X0154249Y0034164D01*
X0154689Y0035225D01*
X0154689Y0035578D01*
X0165711Y0046600D01*
X0165711Y0046600D01*
X0167000Y0047889D01*
X0167000Y0072914D01*
X0167249Y0073164D01*
X0167689Y0074225D01*
X0167689Y0075375D01*
X0167249Y0076436D01*
X0166436Y0077249D01*
X0165375Y0077689D01*
X0164225Y0077689D01*
X0163164Y0077249D01*
X0162351Y0076436D01*
X0161911Y0074937D02*
X0148000Y0074937D01*
X0148000Y0073339D02*
X0162278Y0073339D01*
X0162600Y0071740D02*
X0148000Y0071740D01*
X0148569Y0070142D02*
X0162600Y0070142D01*
X0162600Y0068543D02*
X0150168Y0068543D01*
X0151766Y0066945D02*
X0162600Y0066945D01*
X0162600Y0065346D02*
X0153000Y0065346D01*
X0153000Y0063748D02*
X0162600Y0063748D01*
X0162600Y0062149D02*
X0153000Y0062149D01*
X0153000Y0060551D02*
X0162600Y0060551D01*
X0162600Y0058952D02*
X0153000Y0058952D01*
X0153000Y0057354D02*
X0162600Y0057354D01*
X0162600Y0055755D02*
X0153000Y0055755D01*
X0153000Y0054157D02*
X0162600Y0054157D01*
X0162600Y0052558D02*
X0153000Y0052558D01*
X0153000Y0050960D02*
X0162600Y0050960D01*
X0162250Y0049361D02*
X0153000Y0049361D01*
X0153000Y0047763D02*
X0160652Y0047763D01*
X0159053Y0046164D02*
X0153000Y0046164D01*
X0153000Y0044566D02*
X0157455Y0044566D01*
X0155856Y0042967D02*
X0153000Y0042967D01*
X0153000Y0041369D02*
X0154257Y0041369D01*
X0152659Y0039770D02*
X0151881Y0039770D01*
X0150086Y0038172D02*
X0147000Y0038172D01*
X0147000Y0036573D02*
X0148993Y0036573D01*
X0149015Y0034975D02*
X0147000Y0034975D01*
X0146487Y0033376D02*
X0150138Y0033376D01*
X0151800Y0035800D02*
X0164800Y0048800D01*
X0164800Y0074800D01*
X0167689Y0074937D02*
X0170701Y0074937D01*
X0170701Y0073339D02*
X0167322Y0073339D01*
X0167000Y0071740D02*
X0170701Y0071740D01*
X0170701Y0070142D02*
X0167000Y0070142D01*
X0167000Y0068543D02*
X0170701Y0068543D01*
X0170701Y0066945D02*
X0167000Y0066945D01*
X0167000Y0065346D02*
X0170701Y0065346D01*
X0170701Y0063748D02*
X0167000Y0063748D01*
X0167000Y0062149D02*
X0170701Y0062149D01*
X0170701Y0060551D02*
X0167000Y0060551D01*
X0167000Y0058952D02*
X0170701Y0058952D01*
X0170701Y0057354D02*
X0167000Y0057354D01*
X0167000Y0055755D02*
X0170701Y0055755D01*
X0170701Y0054157D02*
X0167000Y0054157D01*
X0167000Y0052558D02*
X0170701Y0052558D01*
X0170701Y0050960D02*
X0167000Y0050960D01*
X0167000Y0049361D02*
X0170701Y0049361D01*
X0170701Y0047763D02*
X0166874Y0047763D01*
X0165276Y0046164D02*
X0170701Y0046164D01*
X0170701Y0044566D02*
X0163677Y0044566D01*
X0162079Y0042967D02*
X0170701Y0042967D01*
X0170701Y0041369D02*
X0160480Y0041369D01*
X0158881Y0039770D02*
X0170701Y0039770D01*
X0170701Y0038172D02*
X0157283Y0038172D01*
X0155684Y0036573D02*
X0170701Y0036573D01*
X0170701Y0034975D02*
X0154585Y0034975D01*
X0153462Y0033376D02*
X0170701Y0033376D01*
X0170701Y0031778D02*
X0144889Y0031778D01*
X0144256Y0030179D02*
X0164094Y0030179D01*
X0164164Y0030249D02*
X0163351Y0029436D01*
X0162911Y0028375D01*
X0162911Y0027225D01*
X0163351Y0026164D01*
X0164164Y0025351D01*
X0165225Y0024911D01*
X0166375Y0024911D01*
X0167436Y0025351D01*
X0168249Y0026164D01*
X0168689Y0027225D01*
X0168689Y0028375D01*
X0168249Y0029436D01*
X0167436Y0030249D01*
X0166375Y0030689D01*
X0165225Y0030689D01*
X0164164Y0030249D01*
X0162996Y0028581D02*
X0052654Y0028581D01*
X0054252Y0026982D02*
X0163012Y0026982D01*
X0164131Y0025384D02*
X0159439Y0025384D01*
X0160740Y0023785D02*
X0170701Y0023785D01*
X0170701Y0022187D02*
X0161200Y0022187D01*
X0161200Y0020588D02*
X0170701Y0020588D01*
X0170701Y0018990D02*
X0161200Y0018990D01*
X0161200Y0017391D02*
X0170701Y0017391D01*
X0170701Y0015793D02*
X0161200Y0015793D01*
X0160897Y0014194D02*
X0170701Y0014194D01*
X0170701Y0025384D02*
X0167469Y0025384D01*
X0168588Y0026982D02*
X0170701Y0026982D01*
X0170701Y0028581D02*
X0168604Y0028581D01*
X0167506Y0030179D02*
X0170701Y0030179D01*
X0154161Y0025384D02*
X0149439Y0025384D01*
X0150740Y0023785D02*
X0152860Y0023785D01*
X0152400Y0022187D02*
X0151200Y0022187D01*
X0151200Y0020588D02*
X0152400Y0020588D01*
X0152400Y0018990D02*
X0151200Y0018990D01*
X0151200Y0017391D02*
X0152400Y0017391D01*
X0152400Y0015793D02*
X0151200Y0015793D01*
X0150897Y0014194D02*
X0152703Y0014194D01*
X0142703Y0014194D02*
X0140897Y0014194D01*
X0141200Y0015793D02*
X0142400Y0015793D01*
X0142400Y0017391D02*
X0141200Y0017391D01*
X0141200Y0018990D02*
X0142400Y0018990D01*
X0142400Y0020588D02*
X0141200Y0020588D01*
X0141200Y0022187D02*
X0142400Y0022187D01*
X0142860Y0023785D02*
X0140740Y0023785D01*
X0139439Y0025384D02*
X0144161Y0025384D01*
X0134161Y0025384D02*
X0129439Y0025384D01*
X0130740Y0023785D02*
X0132860Y0023785D01*
X0132400Y0022187D02*
X0131200Y0022187D01*
X0131200Y0020588D02*
X0132400Y0020588D01*
X0132400Y0018990D02*
X0131200Y0018990D01*
X0131200Y0017391D02*
X0132400Y0017391D01*
X0132400Y0015793D02*
X0131200Y0015793D01*
X0130897Y0014194D02*
X0132703Y0014194D01*
X0122703Y0014194D02*
X0094564Y0014194D01*
X0094600Y0015793D02*
X0122400Y0015793D01*
X0122400Y0017391D02*
X0094600Y0017391D01*
X0094600Y0018990D02*
X0122400Y0018990D01*
X0122400Y0020588D02*
X0094600Y0020588D01*
X0094396Y0022187D02*
X0122400Y0022187D01*
X0122860Y0023785D02*
X0093564Y0023785D01*
X0091226Y0025384D02*
X0124161Y0025384D01*
X0141863Y0034975D02*
X0012600Y0034975D01*
X0012600Y0036573D02*
X0142600Y0036573D01*
X0142600Y0038172D02*
X0012600Y0038172D01*
X0012600Y0039770D02*
X0013031Y0039770D01*
X0012869Y0047763D02*
X0012600Y0047763D01*
X0012600Y0049361D02*
X0038559Y0049361D01*
X0038559Y0049514D02*
X0038559Y0049170D01*
X0038559Y0048826D01*
X0038667Y0048146D01*
X0038880Y0047491D01*
X0039192Y0046877D01*
X0039597Y0046320D01*
X0040084Y0045833D01*
X0040641Y0045428D01*
X0041255Y0045116D01*
X0041909Y0044903D01*
X0042590Y0044795D01*
X0042934Y0044795D01*
X0043278Y0044795D01*
X0043958Y0044903D01*
X0044613Y0045116D01*
X0045227Y0045428D01*
X0045784Y0045833D01*
X0046271Y0046320D01*
X0046676Y0046877D01*
X0046988Y0047491D01*
X0047201Y0048146D01*
X0047309Y0048826D01*
X0047309Y0049170D01*
X0047309Y0049514D01*
X0047201Y0050195D01*
X0046988Y0050849D01*
X0046676Y0051463D01*
X0046271Y0052020D01*
X0045784Y0052507D01*
X0045227Y0052912D01*
X0044613Y0053224D01*
X0043958Y0053437D01*
X0043278Y0053545D01*
X0042934Y0053545D01*
X0042934Y0049170D01*
X0042934Y0049170D01*
X0047309Y0049170D01*
X0042934Y0049170D01*
X0042934Y0044795D01*
X0042934Y0049170D01*
X0042934Y0049170D01*
X0042934Y0049170D01*
X0038559Y0049170D01*
X0042934Y0049170D01*
X0042934Y0049170D01*
X0042934Y0053545D01*
X0042590Y0053545D01*
X0041909Y0053437D01*
X0041255Y0053224D01*
X0040641Y0052912D01*
X0040084Y0052507D01*
X0039597Y0052020D01*
X0039192Y0051463D01*
X0038880Y0050849D01*
X0038667Y0050195D01*
X0038559Y0049514D01*
X0038936Y0050960D02*
X0024182Y0050960D01*
X0025048Y0052558D02*
X0040155Y0052558D01*
X0042934Y0052558D02*
X0042934Y0052558D01*
X0042934Y0050960D02*
X0042934Y0050960D01*
X0042934Y0049361D02*
X0042934Y0049361D01*
X0042934Y0047763D02*
X0042934Y0047763D01*
X0042934Y0046164D02*
X0042934Y0046164D01*
X0046115Y0046164D02*
X0060318Y0046164D01*
X0060682Y0045800D02*
X0062143Y0045195D01*
X0063724Y0045195D01*
X0065185Y0045800D01*
X0066304Y0046919D01*
X0066909Y0048379D01*
X0066909Y0049961D01*
X0066304Y0051422D01*
X0065185Y0052540D01*
X0063724Y0053145D01*
X0062143Y0053145D01*
X0060682Y0052540D01*
X0059564Y0051422D01*
X0058959Y0049961D01*
X0058959Y0048379D01*
X0059564Y0046919D01*
X0060682Y0045800D01*
X0059214Y0047763D02*
X0047077Y0047763D01*
X0047309Y0049361D02*
X0058959Y0049361D01*
X0059373Y0050960D02*
X0046932Y0050960D01*
X0045713Y0052558D02*
X0060727Y0052558D01*
X0065141Y0052558D02*
X0070727Y0052558D01*
X0070682Y0052540D02*
X0069564Y0051422D01*
X0068959Y0049961D01*
X0068959Y0048379D01*
X0069564Y0046919D01*
X0070682Y0045800D01*
X0072143Y0045195D01*
X0073724Y0045195D01*
X0075185Y0045800D01*
X0076304Y0046919D01*
X0076909Y0048379D01*
X0076909Y0049961D01*
X0076304Y0051422D01*
X0075185Y0052540D01*
X0073724Y0053145D01*
X0072143Y0053145D01*
X0070682Y0052540D01*
X0069373Y0050960D02*
X0066495Y0050960D01*
X0066909Y0049361D02*
X0068959Y0049361D01*
X0069214Y0047763D02*
X0066653Y0047763D01*
X0065549Y0046164D02*
X0070318Y0046164D01*
X0075549Y0046164D02*
X0080318Y0046164D01*
X0080682Y0045800D02*
X0082143Y0045195D01*
X0083724Y0045195D01*
X0085185Y0045800D01*
X0086304Y0046919D01*
X0086909Y0048379D01*
X0086909Y0049961D01*
X0086304Y0051422D01*
X0085185Y0052540D01*
X0083724Y0053145D01*
X0082143Y0053145D01*
X0080682Y0052540D01*
X0079564Y0051422D01*
X0078959Y0049961D01*
X0078959Y0048379D01*
X0079564Y0046919D01*
X0080682Y0045800D01*
X0079214Y0047763D02*
X0076653Y0047763D01*
X0076909Y0049361D02*
X0078959Y0049361D01*
X0079373Y0050960D02*
X0076495Y0050960D01*
X0075141Y0052558D02*
X0080727Y0052558D01*
X0085141Y0052558D02*
X0109059Y0052558D01*
X0108866Y0053023D02*
X0110226Y0049739D01*
X0112739Y0047226D01*
X0116023Y0045866D01*
X0119577Y0045866D01*
X0122861Y0047226D01*
X0125374Y0049739D01*
X0126734Y0053023D01*
X0126734Y0056577D01*
X0125374Y0059861D01*
X0122861Y0062374D01*
X0119577Y0063734D01*
X0116023Y0063734D01*
X0112739Y0062374D01*
X0110226Y0059861D01*
X0108866Y0056577D01*
X0108866Y0053023D01*
X0108866Y0054157D02*
X0025200Y0054157D01*
X0024753Y0055755D02*
X0108866Y0055755D01*
X0109188Y0057354D02*
X0023469Y0057354D01*
X0023569Y0065346D02*
X0041778Y0065346D01*
X0042143Y0065195D02*
X0043724Y0065195D01*
X0045185Y0065800D01*
X0046304Y0066919D01*
X0046909Y0068379D01*
X0046909Y0069961D01*
X0046304Y0071422D01*
X0045185Y0072540D01*
X0043724Y0073145D01*
X0042143Y0073145D01*
X0040682Y0072540D01*
X0039564Y0071422D01*
X0038959Y0069961D01*
X0038959Y0068379D01*
X0039564Y0066919D01*
X0040682Y0065800D01*
X0042143Y0065195D01*
X0044089Y0065346D02*
X0061778Y0065346D01*
X0062143Y0065195D02*
X0063724Y0065195D01*
X0065185Y0065800D01*
X0066304Y0066919D01*
X0066909Y0068379D01*
X0066909Y0069961D01*
X0066304Y0071422D01*
X0065185Y0072540D01*
X0063724Y0073145D01*
X0062143Y0073145D01*
X0060682Y0072540D01*
X0059564Y0071422D01*
X0058959Y0069961D01*
X0058959Y0068379D01*
X0059564Y0066919D01*
X0060682Y0065800D01*
X0062143Y0065195D01*
X0064089Y0065346D02*
X0071778Y0065346D01*
X0072143Y0065195D02*
X0073724Y0065195D01*
X0075185Y0065800D01*
X0076304Y0066919D01*
X0076909Y0068379D01*
X0076909Y0069961D01*
X0076304Y0071422D01*
X0075185Y0072540D01*
X0073724Y0073145D01*
X0072143Y0073145D01*
X0070682Y0072540D01*
X0069564Y0071422D01*
X0068959Y0069961D01*
X0068959Y0068379D01*
X0069564Y0066919D01*
X0070682Y0065800D01*
X0072143Y0065195D01*
X0074089Y0065346D02*
X0081778Y0065346D01*
X0082143Y0065195D02*
X0083724Y0065195D01*
X0085185Y0065800D01*
X0086304Y0066919D01*
X0086909Y0068379D01*
X0086909Y0069961D01*
X0086304Y0071422D01*
X0085185Y0072540D01*
X0083724Y0073145D01*
X0082143Y0073145D01*
X0080682Y0072540D01*
X0079564Y0071422D01*
X0078959Y0069961D01*
X0078959Y0068379D01*
X0079564Y0066919D01*
X0080682Y0065800D01*
X0082143Y0065195D01*
X0084089Y0065346D02*
X0147142Y0065346D01*
X0148600Y0063748D02*
X0012600Y0063748D01*
X0012600Y0062149D02*
X0112515Y0062149D01*
X0110916Y0060551D02*
X0012600Y0060551D01*
X0012600Y0058952D02*
X0109850Y0058952D01*
X0109721Y0050960D02*
X0086495Y0050960D01*
X0086909Y0049361D02*
X0110604Y0049361D01*
X0112203Y0047763D02*
X0086653Y0047763D01*
X0085549Y0046164D02*
X0115303Y0046164D01*
X0120297Y0046164D02*
X0148600Y0046164D01*
X0148600Y0044566D02*
X0025200Y0044566D01*
X0025200Y0042967D02*
X0144856Y0042967D01*
X0143257Y0041369D02*
X0024555Y0041369D01*
X0022569Y0039770D02*
X0142600Y0039770D01*
X0148600Y0047763D02*
X0123397Y0047763D01*
X0124996Y0049361D02*
X0148600Y0049361D01*
X0148600Y0050960D02*
X0125879Y0050960D01*
X0126541Y0052558D02*
X0148600Y0052558D01*
X0148600Y0054157D02*
X0126734Y0054157D01*
X0126734Y0055755D02*
X0148600Y0055755D01*
X0148600Y0057354D02*
X0126412Y0057354D01*
X0125750Y0058952D02*
X0148600Y0058952D01*
X0148600Y0060551D02*
X0124683Y0060551D01*
X0123085Y0062149D02*
X0148600Y0062149D01*
X0145544Y0066945D02*
X0086314Y0066945D01*
X0086909Y0068543D02*
X0143945Y0068543D01*
X0143600Y0070142D02*
X0086834Y0070142D01*
X0085985Y0071740D02*
X0143600Y0071740D01*
X0143600Y0073339D02*
X0012600Y0073339D01*
X0012600Y0074937D02*
X0012627Y0074937D01*
X0012600Y0082930D02*
X0013273Y0082930D01*
X0012600Y0084529D02*
X0057866Y0084529D01*
X0057866Y0083023D02*
X0059226Y0079739D01*
X0061739Y0077226D01*
X0065023Y0075866D01*
X0068577Y0075866D01*
X0071861Y0077226D01*
X0074374Y0079739D01*
X0075734Y0083023D01*
X0075734Y0086577D01*
X0074374Y0089861D01*
X0071861Y0092374D01*
X0068577Y0093734D01*
X0065023Y0093734D01*
X0061739Y0092374D01*
X0059226Y0089861D01*
X0057866Y0086577D01*
X0057866Y0083023D01*
X0057905Y0082930D02*
X0022327Y0082930D01*
X0024491Y0081332D02*
X0058567Y0081332D01*
X0059233Y0079733D02*
X0025176Y0079733D01*
X0025200Y0078134D02*
X0060831Y0078134D01*
X0063406Y0076536D02*
X0024625Y0076536D01*
X0022973Y0074937D02*
X0143600Y0074937D01*
X0143600Y0076536D02*
X0070194Y0076536D01*
X0072769Y0078134D02*
X0143600Y0078134D01*
X0143600Y0079733D02*
X0074367Y0079733D01*
X0075033Y0081332D02*
X0143600Y0081332D01*
X0143600Y0082930D02*
X0075695Y0082930D01*
X0075734Y0084529D02*
X0143600Y0084529D01*
X0143600Y0086127D02*
X0075734Y0086127D01*
X0075258Y0087726D02*
X0143600Y0087726D01*
X0143284Y0089324D02*
X0074596Y0089324D01*
X0073312Y0090923D02*
X0142911Y0090923D01*
X0143435Y0092521D02*
X0071505Y0092521D01*
X0062095Y0092521D02*
X0022200Y0092521D01*
X0022200Y0091977D02*
X0019623Y0089400D01*
X0015977Y0089400D01*
X0013400Y0091977D01*
X0013400Y0095623D01*
X0015977Y0098200D01*
X0019623Y0098200D01*
X0022200Y0095623D01*
X0022200Y0091977D01*
X0021145Y0090923D02*
X0060288Y0090923D01*
X0059004Y0089324D02*
X0012600Y0089324D01*
X0012600Y0087726D02*
X0058342Y0087726D01*
X0057866Y0086127D02*
X0012600Y0086127D01*
X0012600Y0090923D02*
X0014455Y0090923D01*
X0013400Y0092521D02*
X0012600Y0092521D01*
X0012600Y0094120D02*
X0013400Y0094120D01*
X0013496Y0095718D02*
X0012600Y0095718D01*
X0012600Y0097317D02*
X0015094Y0097317D01*
X0012600Y0098915D02*
X0050600Y0098915D01*
X0050600Y0098000D02*
X0044686Y0098000D01*
X0044436Y0098249D01*
X0043375Y0098689D01*
X0042225Y0098689D01*
X0041164Y0098249D01*
X0040351Y0097436D01*
X0039911Y0096375D01*
X0039911Y0095225D01*
X0040351Y0094164D01*
X0041164Y0093351D01*
X0042225Y0092911D01*
X0043375Y0092911D01*
X0044436Y0093351D01*
X0044686Y0093600D01*
X0052711Y0093600D01*
X0053711Y0094600D01*
X0055000Y0095889D01*
X0055000Y0100803D01*
X0055249Y0101052D01*
X0055689Y0102114D01*
X0055689Y0103264D01*
X0055249Y0104325D01*
X0054436Y0105138D01*
X0053564Y0105500D01*
X0054918Y0106060D01*
X0056036Y0107178D01*
X0056641Y0108639D01*
X0056641Y0110221D01*
X0056036Y0111681D01*
X0054918Y0112800D01*
X0053457Y0113405D01*
X0051875Y0113405D01*
X0050415Y0112800D01*
X0049296Y0111681D01*
X0048691Y0110221D01*
X0048691Y0108639D01*
X0049296Y0107178D01*
X0050415Y0106060D01*
X0051875Y0105455D01*
X0051929Y0105455D01*
X0051164Y0105138D01*
X0050351Y0104325D01*
X0049911Y0103264D01*
X0049911Y0102114D01*
X0050351Y0101052D01*
X0050600Y0100803D01*
X0050600Y0098000D01*
X0051800Y0095800D02*
X0052800Y0096800D01*
X0052800Y0102689D01*
X0052800Y0102800D01*
X0055504Y0103711D02*
X0170701Y0103711D01*
X0170701Y0105309D02*
X0054023Y0105309D01*
X0055765Y0106908D02*
X0059567Y0106908D01*
X0059296Y0107178D02*
X0058691Y0108639D01*
X0058691Y0110221D01*
X0059296Y0111681D01*
X0060415Y0112800D01*
X0061875Y0113405D01*
X0063457Y0113405D01*
X0064918Y0112800D01*
X0066036Y0111681D01*
X0066641Y0110221D01*
X0066641Y0108639D01*
X0066036Y0107178D01*
X0064918Y0106060D01*
X0063457Y0105455D01*
X0061875Y0105455D01*
X0060415Y0106060D01*
X0059296Y0107178D01*
X0058746Y0108506D02*
X0056586Y0108506D01*
X0056641Y0110105D02*
X0058691Y0110105D01*
X0059318Y0111703D02*
X0056014Y0111703D01*
X0053705Y0113302D02*
X0061627Y0113302D01*
X0063705Y0113302D02*
X0071627Y0113302D01*
X0071875Y0113405D02*
X0070415Y0112800D01*
X0069296Y0111681D01*
X0068691Y0110221D01*
X0068691Y0108639D01*
X0069296Y0107178D01*
X0070415Y0106060D01*
X0071875Y0105455D01*
X0073457Y0105455D01*
X0074918Y0106060D01*
X0076036Y0107178D01*
X0076641Y0108639D01*
X0076641Y0110221D01*
X0076036Y0111681D01*
X0074918Y0112800D01*
X0073457Y0113405D01*
X0071875Y0113405D01*
X0073705Y0113302D02*
X0091627Y0113302D01*
X0091875Y0113405D02*
X0090415Y0112800D01*
X0089296Y0111681D01*
X0088691Y0110221D01*
X0088691Y0108639D01*
X0089296Y0107178D01*
X0090415Y0106060D01*
X0091875Y0105455D01*
X0093457Y0105455D01*
X0094918Y0106060D01*
X0096036Y0107178D01*
X0096641Y0108639D01*
X0096641Y0110221D01*
X0096036Y0111681D01*
X0094918Y0112800D01*
X0093457Y0113405D01*
X0091875Y0113405D01*
X0093705Y0113302D02*
X0170701Y0113302D01*
X0170701Y0114900D02*
X0022200Y0114900D01*
X0022200Y0115623D02*
X0019623Y0118200D01*
X0015977Y0118200D01*
X0013400Y0115623D01*
X0013400Y0111977D01*
X0015977Y0109400D01*
X0019623Y0109400D01*
X0022200Y0111977D01*
X0022200Y0115623D01*
X0021324Y0116499D02*
X0170701Y0116499D01*
X0170701Y0118097D02*
X0019725Y0118097D01*
X0015875Y0118097D02*
X0012600Y0118097D01*
X0012600Y0116499D02*
X0014276Y0116499D01*
X0013400Y0114900D02*
X0012600Y0114900D01*
X0012600Y0113302D02*
X0013400Y0113302D01*
X0013674Y0111703D02*
X0012600Y0111703D01*
X0012600Y0110105D02*
X0015273Y0110105D01*
X0012600Y0108506D02*
X0048746Y0108506D01*
X0048691Y0110105D02*
X0020327Y0110105D01*
X0021926Y0111703D02*
X0049318Y0111703D01*
X0051627Y0113302D02*
X0022200Y0113302D01*
X0012600Y0119696D02*
X0170701Y0119696D01*
X0170701Y0121294D02*
X0012600Y0121294D01*
X0012600Y0122893D02*
X0170701Y0122893D01*
X0170701Y0124491D02*
X0023714Y0124491D01*
X0024854Y0126090D02*
X0049820Y0126090D01*
X0049816Y0126093D02*
X0050373Y0125688D01*
X0050987Y0125376D01*
X0051642Y0125163D01*
X0052322Y0125055D01*
X0052666Y0125055D01*
X0052666Y0129430D01*
X0052666Y0129430D01*
X0048291Y0129430D01*
X0048291Y0129774D01*
X0048399Y0130454D01*
X0048612Y0131109D01*
X0048924Y0131723D01*
X0049329Y0132280D01*
X0049816Y0132767D01*
X0050373Y0133172D01*
X0050987Y0133484D01*
X0051642Y0133697D01*
X0052322Y0133805D01*
X0052666Y0133805D01*
X0052666Y0129430D01*
X0052666Y0129430D01*
X0048291Y0129430D01*
X0048291Y0129086D01*
X0048399Y0128405D01*
X0048612Y0127751D01*
X0048924Y0127137D01*
X0049329Y0126580D01*
X0049816Y0126093D01*
X0048644Y0127688D02*
X0025200Y0127688D01*
X0024947Y0129287D02*
X0048291Y0129287D01*
X0048539Y0130885D02*
X0023937Y0130885D01*
X0023849Y0134082D02*
X0170701Y0134082D01*
X0170701Y0132484D02*
X0095233Y0132484D01*
X0094918Y0132800D02*
X0096036Y0131681D01*
X0096641Y0130221D01*
X0096641Y0128639D01*
X0096036Y0127178D01*
X0094918Y0126060D01*
X0093457Y0125455D01*
X0091875Y0125455D01*
X0090415Y0126060D01*
X0089296Y0127178D01*
X0088691Y0128639D01*
X0088691Y0130221D01*
X0089296Y0131681D01*
X0090415Y0132800D01*
X0091875Y0133405D01*
X0093457Y0133405D01*
X0094918Y0132800D01*
X0096366Y0130885D02*
X0170701Y0130885D01*
X0170701Y0129287D02*
X0096641Y0129287D01*
X0096247Y0127688D02*
X0170701Y0127688D01*
X0170701Y0126090D02*
X0094947Y0126090D01*
X0090385Y0126090D02*
X0074947Y0126090D01*
X0074918Y0126060D02*
X0076036Y0127178D01*
X0076641Y0128639D01*
X0076641Y0130221D01*
X0076036Y0131681D01*
X0074918Y0132800D01*
X0073457Y0133405D01*
X0071875Y0133405D01*
X0070415Y0132800D01*
X0069296Y0131681D01*
X0068691Y0130221D01*
X0068691Y0128639D01*
X0069296Y0127178D01*
X0070415Y0126060D01*
X0071875Y0125455D01*
X0073457Y0125455D01*
X0074918Y0126060D01*
X0076247Y0127688D02*
X0089085Y0127688D01*
X0088691Y0129287D02*
X0076641Y0129287D01*
X0076366Y0130885D02*
X0088967Y0130885D01*
X0090099Y0132484D02*
X0075233Y0132484D01*
X0070099Y0132484D02*
X0065233Y0132484D01*
X0064918Y0132800D02*
X0066036Y0131681D01*
X0066641Y0130221D01*
X0066641Y0128639D01*
X0066036Y0127178D01*
X0064918Y0126060D01*
X0063457Y0125455D01*
X0061875Y0125455D01*
X0060415Y0126060D01*
X0059296Y0127178D01*
X0058691Y0128639D01*
X0058691Y0130221D01*
X0059296Y0131681D01*
X0060415Y0132800D01*
X0061875Y0133405D01*
X0063457Y0133405D01*
X0064918Y0132800D01*
X0066366Y0130885D02*
X0068967Y0130885D01*
X0068691Y0129287D02*
X0066641Y0129287D01*
X0066247Y0127688D02*
X0069085Y0127688D01*
X0070385Y0126090D02*
X0064947Y0126090D01*
X0060385Y0126090D02*
X0055512Y0126090D01*
X0055516Y0126093D02*
X0056003Y0126580D01*
X0056408Y0127137D01*
X0056720Y0127751D01*
X0056933Y0128405D01*
X0057041Y0129086D01*
X0057041Y0129430D01*
X0057041Y0129774D01*
X0056933Y0130454D01*
X0056720Y0131109D01*
X0056408Y0131723D01*
X0056003Y0132280D01*
X0055516Y0132767D01*
X0054959Y0133172D01*
X0054345Y0133484D01*
X0053691Y0133697D01*
X0053010Y0133805D01*
X0052666Y0133805D01*
X0052666Y0129430D01*
X0052666Y0129430D01*
X0057041Y0129430D01*
X0052666Y0129430D01*
X0052666Y0129430D01*
X0052666Y0125055D01*
X0053010Y0125055D01*
X0053691Y0125163D01*
X0054345Y0125376D01*
X0054959Y0125688D01*
X0055516Y0126093D01*
X0056689Y0127688D02*
X0059085Y0127688D01*
X0058691Y0129287D02*
X0057041Y0129287D01*
X0056793Y0130885D02*
X0058967Y0130885D01*
X0060099Y0132484D02*
X0055799Y0132484D01*
X0052666Y0132484D02*
X0052666Y0132484D01*
X0052666Y0130885D02*
X0052666Y0130885D01*
X0052666Y0129287D02*
X0052666Y0129287D01*
X0052666Y0127688D02*
X0052666Y0127688D01*
X0052666Y0126090D02*
X0052666Y0126090D01*
X0049533Y0132484D02*
X0012600Y0132484D01*
X0017600Y0134082D02*
X0018000Y0134082D01*
X0018000Y0135681D02*
X0017600Y0135681D01*
X0017600Y0137279D02*
X0018000Y0137279D01*
X0018000Y0138878D02*
X0017600Y0138878D01*
X0017600Y0140476D02*
X0018000Y0140476D01*
X0018000Y0142075D02*
X0017600Y0142075D01*
X0012617Y0142075D02*
X0012600Y0142075D01*
X0012600Y0143673D02*
X0100400Y0143673D01*
X0100400Y0144623D02*
X0100400Y0140977D01*
X0102977Y0138400D01*
X0106623Y0138400D01*
X0109200Y0140977D01*
X0109200Y0144623D01*
X0106623Y0147200D01*
X0102977Y0147200D01*
X0100400Y0144623D01*
X0101049Y0145272D02*
X0012600Y0145272D01*
X0012600Y0146870D02*
X0102648Y0146870D01*
X0106952Y0146870D02*
X0121648Y0146870D01*
X0121977Y0147200D02*
X0119400Y0144623D01*
X0119400Y0140977D01*
X0121977Y0138400D01*
X0125623Y0138400D01*
X0128200Y0140977D01*
X0128200Y0144623D01*
X0125623Y0147200D01*
X0121977Y0147200D01*
X0120049Y0145272D02*
X0108551Y0145272D01*
X0109200Y0143673D02*
X0119400Y0143673D01*
X0119400Y0142075D02*
X0109200Y0142075D01*
X0108699Y0140476D02*
X0119901Y0140476D01*
X0121500Y0138878D02*
X0107100Y0138878D01*
X0102500Y0138878D02*
X0025489Y0138878D01*
X0025577Y0137279D02*
X0138098Y0137279D01*
X0137419Y0138878D02*
X0126100Y0138878D01*
X0127699Y0140476D02*
X0137400Y0140476D01*
X0137400Y0142075D02*
X0128200Y0142075D01*
X0128200Y0143673D02*
X0137400Y0143673D01*
X0137400Y0145272D02*
X0127551Y0145272D01*
X0125952Y0146870D02*
X0137481Y0146870D01*
X0138246Y0148469D02*
X0012600Y0148469D01*
X0022983Y0142075D02*
X0100400Y0142075D01*
X0100901Y0140476D02*
X0024789Y0140476D01*
X0025107Y0135681D02*
X0140247Y0135681D01*
X0143353Y0135681D02*
X0149311Y0135681D01*
X0147698Y0137279D02*
X0145502Y0137279D01*
X0146181Y0138878D02*
X0147086Y0138878D01*
X0147000Y0140476D02*
X0146200Y0140476D01*
X0146200Y0142075D02*
X0147000Y0142075D01*
X0147000Y0143673D02*
X0146200Y0143673D01*
X0146200Y0145272D02*
X0147000Y0145272D01*
X0147110Y0146870D02*
X0146119Y0146870D01*
X0145354Y0148469D02*
X0147806Y0148469D01*
X0151600Y0142075D02*
X0152000Y0142075D01*
X0152000Y0140476D02*
X0151600Y0140476D01*
X0151600Y0138878D02*
X0152000Y0138878D01*
X0152000Y0137279D02*
X0151600Y0137279D01*
X0151600Y0135681D02*
X0152000Y0135681D01*
X0154289Y0135681D02*
X0170701Y0135681D01*
X0170701Y0137279D02*
X0155902Y0137279D01*
X0156514Y0138878D02*
X0170701Y0138878D01*
X0170701Y0140476D02*
X0156600Y0140476D01*
X0156600Y0142075D02*
X0170701Y0142075D01*
X0170701Y0143673D02*
X0156600Y0143673D01*
X0156600Y0145272D02*
X0170701Y0145272D01*
X0170701Y0146870D02*
X0156490Y0146870D01*
X0155794Y0148469D02*
X0170701Y0148469D01*
X0170701Y0111703D02*
X0096014Y0111703D01*
X0096641Y0110105D02*
X0170701Y0110105D01*
X0170701Y0108506D02*
X0096586Y0108506D01*
X0095765Y0106908D02*
X0170701Y0106908D01*
X0170701Y0102112D02*
X0055688Y0102112D01*
X0055000Y0100514D02*
X0170701Y0100514D01*
X0170701Y0098915D02*
X0055000Y0098915D01*
X0055000Y0097317D02*
X0170701Y0097317D01*
X0170701Y0095718D02*
X0054829Y0095718D01*
X0053231Y0094120D02*
X0170701Y0094120D01*
X0170701Y0092521D02*
X0148165Y0092521D01*
X0148689Y0090923D02*
X0170701Y0090923D01*
X0170701Y0076536D02*
X0167150Y0076536D01*
X0089567Y0106908D02*
X0075765Y0106908D01*
X0076586Y0108506D02*
X0088746Y0108506D01*
X0088691Y0110105D02*
X0076641Y0110105D01*
X0076014Y0111703D02*
X0089318Y0111703D01*
X0069318Y0111703D02*
X0066014Y0111703D01*
X0066641Y0110105D02*
X0068691Y0110105D01*
X0068746Y0108506D02*
X0066586Y0108506D01*
X0065765Y0106908D02*
X0069567Y0106908D01*
X0051577Y0105309D02*
X0012600Y0105309D01*
X0012600Y0103711D02*
X0050096Y0103711D01*
X0049912Y0102112D02*
X0012600Y0102112D01*
X0012600Y0100514D02*
X0050600Y0100514D01*
X0051800Y0095800D02*
X0042800Y0095800D01*
X0039911Y0095718D02*
X0022104Y0095718D01*
X0022200Y0094120D02*
X0040395Y0094120D01*
X0040301Y0097317D02*
X0020506Y0097317D01*
X0012600Y0106908D02*
X0049567Y0106908D01*
X0045985Y0071740D02*
X0059883Y0071740D01*
X0059034Y0070142D02*
X0046834Y0070142D01*
X0046909Y0068543D02*
X0058959Y0068543D01*
X0059553Y0066945D02*
X0046314Y0066945D01*
X0039553Y0066945D02*
X0024794Y0066945D01*
X0025200Y0068543D02*
X0038959Y0068543D01*
X0039034Y0070142D02*
X0025007Y0070142D01*
X0024082Y0071740D02*
X0039883Y0071740D01*
X0065985Y0071740D02*
X0069883Y0071740D01*
X0069034Y0070142D02*
X0066834Y0070142D01*
X0066909Y0068543D02*
X0068959Y0068543D01*
X0069553Y0066945D02*
X0066314Y0066945D01*
X0075985Y0071740D02*
X0079883Y0071740D01*
X0079034Y0070142D02*
X0076834Y0070142D01*
X0076909Y0068543D02*
X0078959Y0068543D01*
X0079553Y0066945D02*
X0076314Y0066945D01*
X0039753Y0046164D02*
X0024583Y0046164D01*
X0022731Y0047763D02*
X0038791Y0047763D01*
X0054986Y0025384D02*
X0088374Y0025384D01*
X0089600Y0025384D02*
X0090000Y0025384D01*
X0090000Y0023785D02*
X0089600Y0023785D01*
X0089600Y0022187D02*
X0090000Y0022187D01*
X0090000Y0020588D02*
X0089600Y0020588D01*
X0089600Y0018990D02*
X0090000Y0018990D01*
X0085000Y0018990D02*
X0084200Y0018990D01*
X0084200Y0020588D02*
X0085000Y0020588D01*
X0085204Y0022187D02*
X0083988Y0022187D01*
X0083037Y0023785D02*
X0086036Y0023785D01*
X0085000Y0017391D02*
X0084200Y0017391D01*
X0084200Y0015793D02*
X0085000Y0015793D01*
X0085036Y0014194D02*
X0084200Y0014194D01*
X0075400Y0014194D02*
X0051783Y0014194D01*
X0053427Y0015793D02*
X0075400Y0015793D01*
X0075400Y0017391D02*
X0054644Y0017391D01*
X0055306Y0018990D02*
X0075400Y0018990D01*
X0075400Y0020588D02*
X0055734Y0020588D01*
X0055734Y0022187D02*
X0075612Y0022187D01*
X0076563Y0023785D02*
X0055648Y0023785D01*
M02*
