G75*
%MOIN*%
%OFA0B0*%
%FSLAX25Y25*%
%IPPOS*%
%LPD*%
%AMOC8*
5,1,8,0,0,1.08239X$1,22.5*
%
%ADD10C,0.09068*%
%ADD11C,0.06800*%
%ADD12OC8,0.06800*%
%ADD13C,0.05950*%
%ADD14C,0.03778*%
D10*
X0046800Y0021800D03*
X0117800Y0054800D03*
X0066800Y0084800D03*
D11*
X0020800Y0018800D02*
X0014800Y0018800D01*
X0014800Y0028800D02*
X0020800Y0028800D01*
X0020800Y0043800D02*
X0014800Y0043800D01*
X0014800Y0053800D02*
X0020800Y0053800D01*
X0020800Y0068800D02*
X0014800Y0068800D01*
X0014800Y0078800D02*
X0020800Y0078800D01*
X0020800Y0127800D02*
X0014800Y0127800D01*
X0014800Y0137800D02*
X0020800Y0137800D01*
X0141800Y0139800D02*
X0141800Y0145800D01*
X0151800Y0145800D02*
X0151800Y0139800D01*
X0146800Y0021800D02*
X0146800Y0015800D01*
X0156800Y0015800D02*
X0156800Y0021800D01*
X0136800Y0021800D02*
X0136800Y0015800D01*
X0126800Y0015800D02*
X0126800Y0021800D01*
X0089800Y0020800D02*
X0089800Y0014800D01*
X0079800Y0014800D02*
X0079800Y0020800D01*
D12*
X0017800Y0093800D03*
X0017800Y0113800D03*
X0104800Y0142800D03*
X0123800Y0142800D03*
D13*
X0092666Y0129430D03*
X0072666Y0129430D03*
X0062666Y0129430D03*
X0052666Y0129430D03*
X0052666Y0109430D03*
X0062666Y0109430D03*
X0072666Y0109430D03*
X0092666Y0109430D03*
X0082934Y0069170D03*
X0072934Y0069170D03*
X0062934Y0069170D03*
X0042934Y0069170D03*
X0042934Y0049170D03*
X0062934Y0049170D03*
X0072934Y0049170D03*
X0082934Y0049170D03*
D14*
X0081800Y0058800D03*
X0106800Y0059800D03*
X0117800Y0044800D03*
X0130800Y0031800D03*
X0141800Y0031800D03*
X0151800Y0035800D03*
X0165800Y0027800D03*
X0128800Y0065800D03*
X0145800Y0090800D03*
X0164800Y0074800D03*
X0130800Y0112800D03*
X0117800Y0092800D03*
X0080800Y0088800D03*
X0052800Y0081800D03*
X0042800Y0095800D03*
X0052800Y0102689D03*
X0079800Y0117800D03*
X0080800Y0141800D03*
X0048800Y0142800D03*
X0051800Y0058800D03*
X0044800Y0036800D03*
X0062800Y0019800D03*
X0104800Y0019800D03*
X0164800Y0141800D03*
M02*
