G75*
%MOIN*%
%OFA0B0*%
%FSLAX25Y25*%
%IPPOS*%
%LPD*%
%AMOC8*
5,1,8,0,0,1.08239X$1,22.5*
%
%ADD10C,0.00300*%
%ADD11C,0.00600*%
%ADD12C,0.00079*%
%ADD13C,0.00000*%
%ADD14C,0.00394*%
%ADD15C,0.00500*%
D10*
X0024950Y0016950D02*
X0024950Y0020653D01*
X0026802Y0020653D01*
X0027419Y0020036D01*
X0027419Y0018802D01*
X0026802Y0018184D01*
X0024950Y0018184D01*
X0026184Y0018184D02*
X0027419Y0016950D01*
X0028633Y0016950D02*
X0031102Y0020653D01*
X0028633Y0020653D02*
X0031102Y0016950D01*
X0031102Y0026950D02*
X0028633Y0030653D01*
X0027419Y0030653D02*
X0024950Y0030653D01*
X0026184Y0030653D02*
X0026184Y0026950D01*
X0028633Y0026950D02*
X0031102Y0030653D01*
X0031102Y0041950D02*
X0028633Y0045653D01*
X0027419Y0045653D02*
X0024950Y0045653D01*
X0026184Y0045653D02*
X0026184Y0041950D01*
X0028633Y0041950D02*
X0031102Y0045653D01*
X0031102Y0051950D02*
X0028633Y0055653D01*
X0027419Y0055036D02*
X0027419Y0053802D01*
X0026802Y0053184D01*
X0024950Y0053184D01*
X0024950Y0051950D02*
X0024950Y0055653D01*
X0026802Y0055653D01*
X0027419Y0055036D01*
X0026184Y0053184D02*
X0027419Y0051950D01*
X0028633Y0051950D02*
X0031102Y0055653D01*
X0031706Y0066950D02*
X0031089Y0067567D01*
X0031706Y0066950D02*
X0032940Y0066950D01*
X0033557Y0067567D01*
X0033557Y0068184D01*
X0032940Y0068802D01*
X0031706Y0068802D01*
X0031089Y0069419D01*
X0031089Y0070036D01*
X0031706Y0070653D01*
X0032940Y0070653D01*
X0033557Y0070036D01*
X0034772Y0069419D02*
X0036006Y0070653D01*
X0036006Y0066950D01*
X0034772Y0066950D02*
X0037240Y0066950D01*
X0029868Y0066950D02*
X0028633Y0066950D01*
X0029250Y0066950D02*
X0029250Y0070653D01*
X0028633Y0070653D02*
X0029868Y0070653D01*
X0027419Y0070036D02*
X0027419Y0067567D01*
X0026802Y0066950D01*
X0024950Y0066950D01*
X0024950Y0070653D01*
X0026802Y0070653D01*
X0027419Y0070036D01*
X0026802Y0076950D02*
X0024950Y0076950D01*
X0024950Y0080653D01*
X0026802Y0080653D01*
X0027419Y0080036D01*
X0027419Y0077567D01*
X0026802Y0076950D01*
X0028633Y0076950D02*
X0029868Y0076950D01*
X0029250Y0076950D02*
X0029250Y0080653D01*
X0028633Y0080653D02*
X0029868Y0080653D01*
X0031089Y0080036D02*
X0031089Y0079419D01*
X0031706Y0078802D01*
X0032940Y0078802D01*
X0033557Y0078184D01*
X0033557Y0077567D01*
X0032940Y0076950D01*
X0031706Y0076950D01*
X0031089Y0077567D01*
X0031089Y0080036D02*
X0031706Y0080653D01*
X0032940Y0080653D01*
X0033557Y0080036D01*
X0034772Y0080036D02*
X0035389Y0080653D01*
X0036623Y0080653D01*
X0037240Y0080036D01*
X0037240Y0079419D01*
X0034772Y0076950D01*
X0037240Y0076950D01*
X0037240Y0091950D02*
X0034772Y0091950D01*
X0036006Y0091950D02*
X0036006Y0095653D01*
X0034772Y0094419D01*
X0033557Y0095653D02*
X0031089Y0095653D01*
X0029874Y0095653D02*
X0029874Y0091950D01*
X0027405Y0095653D01*
X0027405Y0091950D01*
X0026184Y0091950D02*
X0024950Y0091950D01*
X0025567Y0091950D02*
X0025567Y0095653D01*
X0024950Y0095653D02*
X0026184Y0095653D01*
X0032323Y0095653D02*
X0032323Y0091950D01*
X0032323Y0111950D02*
X0032323Y0115653D01*
X0031089Y0115653D02*
X0033557Y0115653D01*
X0034772Y0115036D02*
X0035389Y0115653D01*
X0036623Y0115653D01*
X0037240Y0115036D01*
X0037240Y0114419D01*
X0034772Y0111950D01*
X0037240Y0111950D01*
X0029874Y0111950D02*
X0029874Y0115653D01*
X0027405Y0115653D02*
X0027405Y0111950D01*
X0026184Y0111950D02*
X0024950Y0111950D01*
X0025567Y0111950D02*
X0025567Y0115653D01*
X0024950Y0115653D02*
X0026184Y0115653D01*
X0027405Y0115653D02*
X0029874Y0111950D01*
X0030168Y0124950D02*
X0028933Y0124950D01*
X0028316Y0125567D01*
X0030785Y0128036D01*
X0030785Y0125567D01*
X0030168Y0124950D01*
X0028316Y0125567D02*
X0028316Y0128036D01*
X0028933Y0128653D01*
X0030168Y0128653D01*
X0030785Y0128036D01*
X0031999Y0128653D02*
X0031999Y0126184D01*
X0033234Y0124950D01*
X0034468Y0126184D01*
X0034468Y0128653D01*
X0027102Y0128036D02*
X0027102Y0127419D01*
X0026485Y0126802D01*
X0027102Y0126184D01*
X0027102Y0125567D01*
X0026485Y0124950D01*
X0025250Y0124950D01*
X0024633Y0125567D01*
X0023419Y0126802D02*
X0020950Y0126802D01*
X0022184Y0128036D02*
X0022184Y0125567D01*
X0024633Y0128036D02*
X0025250Y0128653D01*
X0026485Y0128653D01*
X0027102Y0128036D01*
X0026485Y0126802D02*
X0025868Y0126802D01*
X0025567Y0135950D02*
X0026802Y0135950D01*
X0027419Y0136567D01*
X0027419Y0137802D01*
X0026184Y0137802D01*
X0024950Y0139036D02*
X0024950Y0136567D01*
X0025567Y0135950D01*
X0028633Y0135950D02*
X0028633Y0139653D01*
X0031102Y0135950D01*
X0031102Y0139653D01*
X0032316Y0139653D02*
X0034168Y0139653D01*
X0034785Y0139036D01*
X0034785Y0136567D01*
X0034168Y0135950D01*
X0032316Y0135950D01*
X0032316Y0139653D01*
X0027419Y0139036D02*
X0026802Y0139653D01*
X0025567Y0139653D01*
X0024950Y0139036D01*
X0070713Y0141567D02*
X0071330Y0140950D01*
X0072564Y0140950D01*
X0073181Y0141567D01*
X0073181Y0142184D01*
X0072564Y0142802D01*
X0071330Y0142802D01*
X0070713Y0143419D01*
X0070713Y0144036D01*
X0071330Y0144653D01*
X0072564Y0144653D01*
X0073181Y0144036D01*
X0074396Y0144653D02*
X0075630Y0144653D01*
X0075013Y0144653D02*
X0075013Y0140950D01*
X0074396Y0140950D02*
X0075630Y0140950D01*
X0076851Y0141567D02*
X0077468Y0140950D01*
X0078703Y0140950D01*
X0079320Y0141567D01*
X0079320Y0142802D01*
X0078085Y0142802D01*
X0076851Y0144036D02*
X0076851Y0141567D01*
X0076851Y0144036D02*
X0077468Y0144653D01*
X0078703Y0144653D01*
X0079320Y0144036D01*
X0080534Y0144653D02*
X0083003Y0140950D01*
X0083003Y0144653D01*
X0084217Y0143419D02*
X0085452Y0144653D01*
X0086686Y0143419D01*
X0086686Y0140950D01*
X0087901Y0140950D02*
X0090369Y0140950D01*
X0091584Y0140333D02*
X0094052Y0140333D01*
X0095267Y0140950D02*
X0097736Y0143419D01*
X0097736Y0144036D01*
X0097118Y0144653D01*
X0095884Y0144653D01*
X0095267Y0144036D01*
X0095267Y0140950D02*
X0097736Y0140950D01*
X0103330Y0135653D02*
X0102713Y0135036D01*
X0102713Y0134419D01*
X0103330Y0133802D01*
X0104564Y0133802D01*
X0105181Y0133184D01*
X0105181Y0132567D01*
X0104564Y0131950D01*
X0103330Y0131950D01*
X0102713Y0132567D01*
X0103330Y0135653D02*
X0104564Y0135653D01*
X0105181Y0135036D01*
X0106396Y0135653D02*
X0107630Y0135653D01*
X0107013Y0135653D02*
X0107013Y0131950D01*
X0106396Y0131950D02*
X0107630Y0131950D01*
X0108851Y0132567D02*
X0109468Y0131950D01*
X0110703Y0131950D01*
X0111320Y0132567D01*
X0111320Y0133802D01*
X0110085Y0133802D01*
X0108851Y0135036D02*
X0108851Y0132567D01*
X0108851Y0135036D02*
X0109468Y0135653D01*
X0110703Y0135653D01*
X0111320Y0135036D01*
X0112534Y0135653D02*
X0115003Y0131950D01*
X0115003Y0135653D01*
X0116217Y0134419D02*
X0117452Y0135653D01*
X0118686Y0134419D01*
X0118686Y0131950D01*
X0119901Y0131950D02*
X0122369Y0131950D01*
X0123584Y0131333D02*
X0126052Y0131333D01*
X0127267Y0131950D02*
X0129736Y0131950D01*
X0128501Y0131950D02*
X0128501Y0135653D01*
X0127267Y0134419D01*
X0132217Y0133802D02*
X0134686Y0133802D01*
X0135901Y0134419D02*
X0137135Y0135653D01*
X0137135Y0131950D01*
X0135901Y0131950D02*
X0138369Y0131950D01*
X0139584Y0132567D02*
X0142052Y0135036D01*
X0142052Y0132567D01*
X0141435Y0131950D01*
X0140201Y0131950D01*
X0139584Y0132567D01*
X0139584Y0135036D01*
X0140201Y0135653D01*
X0141435Y0135653D01*
X0142052Y0135036D01*
X0143267Y0135653D02*
X0143267Y0133184D01*
X0144501Y0131950D01*
X0145736Y0133184D01*
X0145736Y0135653D01*
X0149950Y0135036D02*
X0149950Y0132567D01*
X0150567Y0131950D01*
X0151802Y0131950D01*
X0152419Y0132567D01*
X0152419Y0133802D01*
X0151184Y0133802D01*
X0149950Y0135036D02*
X0150567Y0135653D01*
X0151802Y0135653D01*
X0152419Y0135036D01*
X0153633Y0135653D02*
X0156102Y0131950D01*
X0156102Y0135653D01*
X0157316Y0135653D02*
X0159168Y0135653D01*
X0159785Y0135036D01*
X0159785Y0132567D01*
X0159168Y0131950D01*
X0157316Y0131950D01*
X0157316Y0135653D01*
X0153633Y0135653D02*
X0153633Y0131950D01*
X0133452Y0132567D02*
X0133452Y0135036D01*
X0119901Y0135653D02*
X0119901Y0131950D01*
X0118686Y0133802D02*
X0116217Y0133802D01*
X0116217Y0134419D02*
X0116217Y0131950D01*
X0112534Y0131950D02*
X0112534Y0135653D01*
X0087901Y0140950D02*
X0087901Y0144653D01*
X0086686Y0142802D02*
X0084217Y0142802D01*
X0084217Y0143419D02*
X0084217Y0140950D01*
X0080534Y0140950D02*
X0080534Y0144653D01*
X0079416Y0038468D02*
X0076947Y0038468D01*
X0076947Y0035999D02*
X0079416Y0035999D01*
X0080650Y0037234D01*
X0079416Y0038468D01*
X0078798Y0034785D02*
X0080033Y0034785D01*
X0080650Y0034168D01*
X0080650Y0032933D01*
X0080033Y0032316D01*
X0078798Y0032316D02*
X0078181Y0033551D01*
X0078181Y0034168D01*
X0078798Y0034785D01*
X0076947Y0034785D02*
X0076947Y0032316D01*
X0078798Y0032316D01*
X0080650Y0031102D02*
X0080650Y0028633D01*
X0080650Y0029868D02*
X0076947Y0029868D01*
X0078181Y0028633D01*
X0078798Y0027419D02*
X0078798Y0024950D01*
X0077564Y0026184D02*
X0080033Y0026184D01*
X0087947Y0026567D02*
X0088564Y0025950D01*
X0091033Y0025950D01*
X0091650Y0026567D01*
X0091650Y0027802D01*
X0091033Y0028419D01*
X0089798Y0028419D01*
X0089798Y0027184D01*
X0088564Y0028419D02*
X0087947Y0027802D01*
X0087947Y0026567D01*
X0087947Y0029633D02*
X0091650Y0032102D01*
X0087947Y0032102D01*
X0087947Y0033316D02*
X0087947Y0035168D01*
X0088564Y0035785D01*
X0091033Y0035785D01*
X0091650Y0035168D01*
X0091650Y0033316D01*
X0087947Y0033316D01*
X0087947Y0029633D02*
X0091650Y0029633D01*
X0124947Y0030250D02*
X0125564Y0029633D01*
X0128033Y0029633D01*
X0128650Y0030250D01*
X0128650Y0031485D01*
X0128033Y0032102D01*
X0128650Y0033316D02*
X0124947Y0033316D01*
X0125564Y0032102D02*
X0124947Y0031485D01*
X0124947Y0030250D01*
X0125564Y0028419D02*
X0124947Y0027802D01*
X0124947Y0026567D01*
X0125564Y0025950D01*
X0126181Y0025950D01*
X0126798Y0026567D01*
X0126798Y0027802D01*
X0127416Y0028419D01*
X0128033Y0028419D01*
X0128650Y0027802D01*
X0128650Y0026567D01*
X0128033Y0025950D01*
X0134947Y0026567D02*
X0135564Y0025950D01*
X0138033Y0025950D01*
X0138650Y0026567D01*
X0138650Y0027802D01*
X0138033Y0028419D01*
X0138033Y0029633D02*
X0138650Y0030250D01*
X0138650Y0031485D01*
X0138033Y0032102D01*
X0137416Y0032102D01*
X0136798Y0031485D01*
X0136798Y0030250D01*
X0136181Y0029633D01*
X0135564Y0029633D01*
X0134947Y0030250D01*
X0134947Y0031485D01*
X0135564Y0032102D01*
X0135564Y0028419D02*
X0134947Y0027802D01*
X0134947Y0026567D01*
X0127416Y0033316D02*
X0124947Y0035785D01*
X0126798Y0033933D02*
X0128650Y0035785D01*
X0144947Y0035168D02*
X0144947Y0033933D01*
X0145564Y0033316D01*
X0146181Y0033316D01*
X0146798Y0033933D01*
X0146798Y0035168D01*
X0147416Y0035785D01*
X0148033Y0035785D01*
X0148650Y0035168D01*
X0148650Y0033933D01*
X0148033Y0033316D01*
X0148033Y0032102D02*
X0145564Y0032102D01*
X0144947Y0031485D01*
X0144947Y0030250D01*
X0145564Y0029633D01*
X0148033Y0029633D01*
X0148650Y0030250D01*
X0148650Y0031485D01*
X0148033Y0032102D01*
X0148650Y0028419D02*
X0144947Y0028419D01*
X0146181Y0027184D01*
X0144947Y0025950D01*
X0148650Y0025950D01*
X0154947Y0025950D02*
X0156181Y0027184D01*
X0154947Y0028419D01*
X0158650Y0028419D01*
X0158650Y0029633D02*
X0158650Y0030868D01*
X0158650Y0030250D02*
X0154947Y0030250D01*
X0154947Y0029633D02*
X0154947Y0030868D01*
X0155564Y0032089D02*
X0156181Y0032089D01*
X0156798Y0032706D01*
X0156798Y0033940D01*
X0157416Y0034557D01*
X0158033Y0034557D01*
X0158650Y0033940D01*
X0158650Y0032706D01*
X0158033Y0032089D01*
X0155564Y0032089D02*
X0154947Y0032706D01*
X0154947Y0033940D01*
X0155564Y0034557D01*
X0155564Y0035772D02*
X0158033Y0035772D01*
X0158650Y0036389D01*
X0158650Y0037623D01*
X0158033Y0038240D01*
X0155564Y0038240D01*
X0154947Y0037623D01*
X0154947Y0036389D01*
X0155564Y0035772D01*
X0148650Y0036999D02*
X0148650Y0038234D01*
X0148650Y0037617D02*
X0144947Y0037617D01*
X0144947Y0038234D02*
X0144947Y0036999D01*
X0145564Y0035785D02*
X0144947Y0035168D01*
X0154947Y0025950D02*
X0158650Y0025950D01*
D11*
X0015300Y0013800D02*
X0012800Y0016300D01*
X0012800Y0021300D01*
X0015300Y0023800D01*
X0012800Y0026300D01*
X0012800Y0031300D01*
X0015300Y0033800D01*
X0020300Y0033800D01*
X0022800Y0031300D01*
X0022800Y0026300D01*
X0020300Y0023800D01*
X0022800Y0021300D01*
X0022800Y0016300D01*
X0020300Y0013800D01*
X0015300Y0013800D01*
X0015300Y0023800D02*
X0020300Y0023800D01*
X0020300Y0038800D02*
X0015300Y0038800D01*
X0012800Y0041300D01*
X0012800Y0046300D01*
X0015300Y0048800D01*
X0012800Y0051300D01*
X0012800Y0056300D01*
X0015300Y0058800D01*
X0020300Y0058800D01*
X0022800Y0056300D01*
X0022800Y0051300D01*
X0020300Y0048800D01*
X0022800Y0046300D01*
X0022800Y0041300D01*
X0020300Y0038800D01*
X0020300Y0048800D02*
X0015300Y0048800D01*
X0015300Y0063800D02*
X0012800Y0066300D01*
X0012800Y0071300D01*
X0015300Y0073800D01*
X0012800Y0076300D01*
X0012800Y0081300D01*
X0015300Y0083800D01*
X0020300Y0083800D01*
X0022800Y0081300D01*
X0022800Y0076300D01*
X0020300Y0073800D01*
X0022800Y0071300D01*
X0022800Y0066300D01*
X0020300Y0063800D01*
X0015300Y0063800D01*
X0015300Y0073800D02*
X0020300Y0073800D01*
X0020300Y0088800D02*
X0015300Y0088800D01*
X0012800Y0091300D01*
X0012800Y0096300D01*
X0015300Y0098800D01*
X0020300Y0098800D01*
X0022800Y0096300D01*
X0022800Y0091300D01*
X0020300Y0088800D01*
X0020300Y0108800D02*
X0015300Y0108800D01*
X0012800Y0111300D01*
X0012800Y0116300D01*
X0015300Y0118800D01*
X0020300Y0118800D01*
X0022800Y0116300D01*
X0022800Y0111300D01*
X0020300Y0108800D01*
X0020300Y0122800D02*
X0015300Y0122800D01*
X0012800Y0125300D01*
X0012800Y0130300D01*
X0015300Y0132800D01*
X0012800Y0135300D01*
X0012800Y0140300D01*
X0015300Y0142800D01*
X0020300Y0142800D01*
X0022800Y0140300D01*
X0022800Y0135300D01*
X0020300Y0132800D01*
X0022800Y0130300D01*
X0022800Y0125300D01*
X0020300Y0122800D01*
X0020300Y0132800D02*
X0015300Y0132800D01*
X0099800Y0140300D02*
X0102300Y0137800D01*
X0107300Y0137800D01*
X0109800Y0140300D01*
X0109800Y0145300D01*
X0107300Y0147800D01*
X0102300Y0147800D01*
X0099800Y0145300D01*
X0099800Y0140300D01*
X0118800Y0140300D02*
X0121300Y0137800D01*
X0126300Y0137800D01*
X0128800Y0140300D01*
X0128800Y0145300D01*
X0126300Y0147800D01*
X0121300Y0147800D01*
X0118800Y0145300D01*
X0118800Y0140300D01*
X0136800Y0140300D02*
X0139300Y0137800D01*
X0144300Y0137800D01*
X0146800Y0140300D01*
X0149300Y0137800D01*
X0154300Y0137800D01*
X0156800Y0140300D01*
X0156800Y0145300D01*
X0154300Y0147800D01*
X0149300Y0147800D01*
X0146800Y0145300D01*
X0146800Y0140300D01*
X0146800Y0145300D02*
X0144300Y0147800D01*
X0139300Y0147800D01*
X0136800Y0145300D01*
X0136800Y0140300D01*
X0134300Y0023800D02*
X0139300Y0023800D01*
X0141800Y0021300D01*
X0144300Y0023800D01*
X0149300Y0023800D01*
X0151800Y0021300D01*
X0154300Y0023800D01*
X0159300Y0023800D01*
X0161800Y0021300D01*
X0161800Y0016300D01*
X0159300Y0013800D01*
X0154300Y0013800D01*
X0151800Y0016300D01*
X0149300Y0013800D01*
X0144300Y0013800D01*
X0141800Y0016300D01*
X0141800Y0021300D01*
X0141800Y0016300D02*
X0139300Y0013800D01*
X0134300Y0013800D01*
X0131800Y0016300D01*
X0129300Y0013800D01*
X0124300Y0013800D01*
X0121800Y0016300D01*
X0121800Y0021300D01*
X0124300Y0023800D01*
X0129300Y0023800D01*
X0131800Y0021300D01*
X0134300Y0023800D01*
X0131800Y0021300D02*
X0131800Y0016300D01*
X0151800Y0016300D02*
X0151800Y0021300D01*
X0094800Y0020300D02*
X0094800Y0015300D01*
X0092300Y0012800D01*
X0087300Y0012800D01*
X0084800Y0015300D01*
X0082300Y0012800D01*
X0077300Y0012800D01*
X0074800Y0015300D01*
X0074800Y0020300D01*
X0077300Y0022800D01*
X0082300Y0022800D01*
X0084800Y0020300D01*
X0087300Y0022800D01*
X0092300Y0022800D01*
X0094800Y0020300D01*
X0084800Y0020300D02*
X0084800Y0015300D01*
D12*
X0147902Y0046241D03*
D13*
X0147706Y0043879D02*
X0135894Y0043879D01*
X0135894Y0053721D01*
X0147706Y0053721D01*
X0147706Y0043879D01*
D14*
X0094831Y0108800D03*
X0040769Y0069800D03*
D15*
X0101800Y0073643D02*
X0101800Y0129351D01*
X0158493Y0129351D01*
X0158493Y0073643D01*
X0101800Y0073643D01*
X0158550Y0075800D02*
X0158676Y0075802D01*
X0158801Y0075808D01*
X0158926Y0075818D01*
X0159051Y0075832D01*
X0159176Y0075849D01*
X0159300Y0075871D01*
X0159423Y0075896D01*
X0159545Y0075926D01*
X0159666Y0075959D01*
X0159786Y0075996D01*
X0159905Y0076036D01*
X0160022Y0076081D01*
X0160139Y0076129D01*
X0160253Y0076181D01*
X0160366Y0076236D01*
X0160477Y0076295D01*
X0160586Y0076357D01*
X0160693Y0076423D01*
X0160798Y0076492D01*
X0160901Y0076564D01*
X0161002Y0076639D01*
X0161100Y0076718D01*
X0161195Y0076800D01*
X0161288Y0076884D01*
X0161378Y0076972D01*
X0161466Y0077062D01*
X0161550Y0077155D01*
X0161632Y0077250D01*
X0161711Y0077348D01*
X0161786Y0077449D01*
X0161858Y0077552D01*
X0161927Y0077657D01*
X0161993Y0077764D01*
X0162055Y0077873D01*
X0162114Y0077984D01*
X0162169Y0078097D01*
X0162221Y0078211D01*
X0162269Y0078328D01*
X0162314Y0078445D01*
X0162354Y0078564D01*
X0162391Y0078684D01*
X0162424Y0078805D01*
X0162454Y0078927D01*
X0162479Y0079050D01*
X0162501Y0079174D01*
X0162518Y0079299D01*
X0162532Y0079424D01*
X0162542Y0079549D01*
X0162548Y0079674D01*
X0162550Y0079800D01*
X0162627Y0079548D02*
X0162627Y0122855D01*
X0162550Y0122800D02*
X0162552Y0122927D01*
X0162550Y0123054D01*
X0162544Y0123181D01*
X0162534Y0123308D01*
X0162520Y0123434D01*
X0162503Y0123560D01*
X0162481Y0123685D01*
X0162456Y0123810D01*
X0162427Y0123934D01*
X0162394Y0124056D01*
X0162357Y0124178D01*
X0162317Y0124299D01*
X0162273Y0124418D01*
X0162225Y0124536D01*
X0162173Y0124652D01*
X0162118Y0124766D01*
X0162060Y0124879D01*
X0161998Y0124990D01*
X0161933Y0125099D01*
X0161864Y0125206D01*
X0161792Y0125311D01*
X0161717Y0125414D01*
X0161639Y0125514D01*
X0161558Y0125612D01*
X0161473Y0125707D01*
X0161386Y0125799D01*
X0161296Y0125889D01*
X0161204Y0125976D01*
X0161109Y0126060D01*
X0161011Y0126142D01*
X0160910Y0126220D01*
X0160808Y0126295D01*
X0160703Y0126366D01*
X0160596Y0126435D01*
X0160487Y0126500D01*
X0160376Y0126562D01*
X0160263Y0126620D01*
X0160148Y0126675D01*
X0160032Y0126726D01*
X0159914Y0126774D01*
X0159795Y0126818D01*
X0159674Y0126858D01*
X0159552Y0126895D01*
X0159430Y0126928D01*
X0159306Y0126957D01*
X0159181Y0126982D01*
X0159056Y0127003D01*
X0158930Y0127021D01*
X0158804Y0127035D01*
X0158677Y0127044D01*
X0158550Y0127050D01*
M02*
