G75*
%MOIN*%
%OFA0B0*%
%FSLAX25Y25*%
%IPPOS*%
%LPD*%
%AMOC8*
5,1,8,0,0,1.08239X$1,22.5*
%
%ADD10C,0.06000*%
%ADD11OC8,0.06000*%
%ADD12R,0.00984X0.02657*%
%ADD13R,0.02657X0.00984*%
%ADD14C,0.05150*%
%ADD15R,0.10236X0.03937*%
%ADD16R,0.07874X0.02756*%
%ADD17R,0.10236X0.05906*%
%ADD18R,0.05512X0.10630*%
%ADD19R,0.04724X0.04724*%
%ADD20C,0.00600*%
%ADD21C,0.02978*%
%ADD22C,0.01600*%
D10*
X0014800Y0018800D02*
X0020800Y0018800D01*
X0020800Y0028800D02*
X0014800Y0028800D01*
X0014800Y0043800D02*
X0020800Y0043800D01*
X0020800Y0053800D02*
X0014800Y0053800D01*
X0014800Y0068800D02*
X0020800Y0068800D01*
X0020800Y0078800D02*
X0014800Y0078800D01*
X0014800Y0127800D02*
X0020800Y0127800D01*
X0020800Y0137800D02*
X0014800Y0137800D01*
X0141800Y0139800D02*
X0141800Y0145800D01*
X0151800Y0145800D02*
X0151800Y0139800D01*
X0146800Y0021800D02*
X0146800Y0015800D01*
X0156800Y0015800D02*
X0156800Y0021800D01*
X0136800Y0021800D02*
X0136800Y0015800D01*
X0126800Y0015800D02*
X0126800Y0021800D01*
X0089800Y0020800D02*
X0089800Y0014800D01*
X0079800Y0014800D02*
X0079800Y0020800D01*
D11*
X0017800Y0093800D03*
X0017800Y0113800D03*
X0104800Y0142800D03*
X0123800Y0142800D03*
D12*
X0139831Y0052786D03*
X0141800Y0052786D03*
X0143769Y0052786D03*
X0143769Y0044814D03*
X0141800Y0044814D03*
X0139831Y0044814D03*
D13*
X0136830Y0045847D03*
X0136830Y0047816D03*
X0136830Y0049784D03*
X0136830Y0051753D03*
X0146770Y0051753D03*
X0146770Y0049784D03*
X0146770Y0047816D03*
X0146770Y0045847D03*
D14*
X0082934Y0049170D03*
X0072934Y0049170D03*
X0062934Y0049170D03*
X0042934Y0049170D03*
X0042934Y0069170D03*
X0062934Y0069170D03*
X0072934Y0069170D03*
X0082934Y0069170D03*
X0092666Y0109430D03*
X0072666Y0109430D03*
X0062666Y0109430D03*
X0052666Y0109430D03*
X0052666Y0129430D03*
X0062666Y0129430D03*
X0072666Y0129430D03*
X0092666Y0129430D03*
D15*
X0152587Y0075217D03*
D16*
X0154556Y0083485D03*
X0154556Y0087816D03*
X0154556Y0092146D03*
X0154556Y0096477D03*
X0154556Y0100808D03*
X0154556Y0105139D03*
X0154556Y0109469D03*
X0154556Y0113800D03*
D17*
X0152587Y0127776D03*
D18*
X0104556Y0108288D03*
X0104556Y0088997D03*
D19*
X0104162Y0120296D03*
D20*
X0104162Y0118800D01*
X0104556Y0088997D02*
X0104556Y0088800D01*
X0139831Y0053800D02*
X0139831Y0052786D01*
X0152587Y0075217D02*
X0154556Y0075217D01*
X0152587Y0127776D02*
X0151800Y0127776D01*
D21*
X0164800Y0141800D03*
X0130800Y0112800D03*
X0117800Y0092800D03*
X0145800Y0090800D03*
X0164800Y0074800D03*
X0128800Y0065800D03*
X0106800Y0059800D03*
X0117800Y0044800D03*
X0130800Y0031800D03*
X0141800Y0031800D03*
X0151800Y0035800D03*
X0165800Y0027800D03*
X0104800Y0019800D03*
X0062800Y0019800D03*
X0044800Y0036800D03*
X0051800Y0058800D03*
X0052800Y0081800D03*
X0042800Y0095800D03*
X0052800Y0102689D03*
X0079800Y0117800D03*
X0080800Y0141800D03*
X0048800Y0142800D03*
X0080800Y0088800D03*
X0081800Y0058800D03*
D22*
X0012600Y0014949D02*
X0012600Y0012600D01*
X0075949Y0012600D01*
X0075400Y0013925D01*
X0075400Y0021675D01*
X0076070Y0023292D01*
X0077308Y0024530D01*
X0078925Y0025200D01*
X0080675Y0025200D01*
X0082292Y0024530D01*
X0083530Y0023292D01*
X0084200Y0021675D01*
X0084200Y0013925D01*
X0083651Y0012600D01*
X0085534Y0012600D01*
X0085352Y0012957D01*
X0085118Y0013676D01*
X0085000Y0014422D01*
X0085000Y0017600D01*
X0089600Y0017600D01*
X0089600Y0018000D01*
X0089600Y0025600D01*
X0089422Y0025600D01*
X0088676Y0025482D01*
X0087957Y0025248D01*
X0087284Y0024905D01*
X0086673Y0024461D01*
X0086139Y0023927D01*
X0085695Y0023316D01*
X0085352Y0022643D01*
X0085118Y0021924D01*
X0085000Y0021178D01*
X0085000Y0018000D01*
X0089600Y0018000D01*
X0090000Y0018000D01*
X0090000Y0025600D01*
X0090178Y0025600D01*
X0090924Y0025482D01*
X0091643Y0025248D01*
X0092316Y0024905D01*
X0092927Y0024461D01*
X0093461Y0023927D01*
X0093905Y0023316D01*
X0094248Y0022643D01*
X0094482Y0021924D01*
X0094600Y0021178D01*
X0094600Y0018000D01*
X0090000Y0018000D01*
X0090000Y0017600D01*
X0094600Y0017600D01*
X0094600Y0014422D01*
X0094482Y0013676D01*
X0094248Y0012957D01*
X0094066Y0012600D01*
X0123777Y0012600D01*
X0123070Y0013308D01*
X0122400Y0014925D01*
X0122400Y0022675D01*
X0123070Y0024292D01*
X0124308Y0025530D01*
X0124600Y0025651D01*
X0124600Y0028711D01*
X0127911Y0032022D01*
X0127911Y0032375D01*
X0128351Y0033436D01*
X0129164Y0034249D01*
X0130225Y0034689D01*
X0131375Y0034689D01*
X0132436Y0034249D01*
X0133249Y0033436D01*
X0133689Y0032375D01*
X0133689Y0031225D01*
X0133249Y0030164D01*
X0132436Y0029351D01*
X0131375Y0028911D01*
X0131022Y0028911D01*
X0129000Y0026889D01*
X0129000Y0025651D01*
X0129292Y0025530D01*
X0130530Y0024292D01*
X0131200Y0022675D01*
X0131200Y0014925D01*
X0130530Y0013308D01*
X0129823Y0012600D01*
X0133777Y0012600D01*
X0133070Y0013308D01*
X0132400Y0014925D01*
X0132400Y0022675D01*
X0133070Y0024292D01*
X0134308Y0025530D01*
X0134600Y0025651D01*
X0134600Y0042694D01*
X0135862Y0043955D01*
X0134921Y0043955D01*
X0134101Y0044775D01*
X0134101Y0052825D01*
X0134630Y0053354D01*
X0134630Y0085134D01*
X0134630Y0086957D01*
X0149128Y0101455D01*
X0149219Y0101455D01*
X0149219Y0102766D01*
X0149426Y0102973D01*
X0149219Y0103181D01*
X0149219Y0107096D01*
X0149426Y0107304D01*
X0149219Y0107511D01*
X0149219Y0111427D01*
X0149426Y0111635D01*
X0149219Y0111842D01*
X0149219Y0115758D01*
X0150039Y0116578D01*
X0159073Y0116578D01*
X0159893Y0115758D01*
X0159893Y0111842D01*
X0159685Y0111635D01*
X0159893Y0111427D01*
X0159893Y0107511D01*
X0159685Y0107304D01*
X0159893Y0107096D01*
X0159893Y0103181D01*
X0159685Y0102973D01*
X0159893Y0102766D01*
X0159893Y0098850D01*
X0159685Y0098643D01*
X0159893Y0098435D01*
X0159893Y0094670D01*
X0159933Y0094630D01*
X0160170Y0094219D01*
X0160293Y0093761D01*
X0160293Y0092147D01*
X0154556Y0092147D01*
X0154556Y0092146D01*
X0160293Y0092146D01*
X0160293Y0090532D01*
X0160170Y0090074D01*
X0159933Y0089663D01*
X0159893Y0089623D01*
X0159893Y0089463D01*
X0160363Y0089463D01*
X0160526Y0089581D01*
X0161250Y0089463D01*
X0161984Y0089463D01*
X0162126Y0089321D01*
X0162325Y0089288D01*
X0162754Y0088693D01*
X0163273Y0088174D01*
X0163273Y0087973D01*
X0170481Y0077966D01*
X0170701Y0077746D01*
X0170701Y0148961D01*
X0155428Y0148961D01*
X0155461Y0148927D01*
X0155905Y0148316D01*
X0156248Y0147643D01*
X0156482Y0146924D01*
X0156600Y0146178D01*
X0156600Y0143000D01*
X0152000Y0143000D01*
X0152000Y0142600D01*
X0156600Y0142600D01*
X0156600Y0139422D01*
X0156482Y0138676D01*
X0156248Y0137957D01*
X0155905Y0137284D01*
X0155461Y0136673D01*
X0154927Y0136139D01*
X0154316Y0135695D01*
X0153643Y0135352D01*
X0152924Y0135118D01*
X0152178Y0135000D01*
X0152000Y0135000D01*
X0152000Y0142600D01*
X0151600Y0142600D01*
X0151600Y0135000D01*
X0151422Y0135000D01*
X0150676Y0135118D01*
X0149957Y0135352D01*
X0149284Y0135695D01*
X0148673Y0136139D01*
X0148139Y0136673D01*
X0147695Y0137284D01*
X0147352Y0137957D01*
X0147118Y0138676D01*
X0147000Y0139422D01*
X0147000Y0142600D01*
X0151600Y0142600D01*
X0151600Y0143000D01*
X0147000Y0143000D01*
X0147000Y0146178D01*
X0147118Y0146924D01*
X0147352Y0147643D01*
X0147695Y0148316D01*
X0148139Y0148927D01*
X0148172Y0148961D01*
X0144862Y0148961D01*
X0145530Y0148292D01*
X0146200Y0146675D01*
X0146200Y0138925D01*
X0145530Y0137308D01*
X0144292Y0136070D01*
X0142675Y0135400D01*
X0140925Y0135400D01*
X0139308Y0136070D01*
X0138070Y0137308D01*
X0137400Y0138925D01*
X0137400Y0146675D01*
X0138070Y0148292D01*
X0138738Y0148961D01*
X0012600Y0148961D01*
X0012600Y0142066D01*
X0012957Y0142248D01*
X0013676Y0142482D01*
X0014422Y0142600D01*
X0017600Y0142600D01*
X0017600Y0138000D01*
X0018000Y0138000D01*
X0018000Y0142600D01*
X0021178Y0142600D01*
X0021924Y0142482D01*
X0022643Y0142248D01*
X0023316Y0141905D01*
X0023927Y0141461D01*
X0024461Y0140927D01*
X0024905Y0140316D01*
X0025248Y0139643D01*
X0025482Y0138924D01*
X0025600Y0138178D01*
X0025600Y0138000D01*
X0018000Y0138000D01*
X0018000Y0137600D01*
X0025600Y0137600D01*
X0025600Y0137422D01*
X0025482Y0136676D01*
X0025248Y0135957D01*
X0024905Y0135284D01*
X0024461Y0134673D01*
X0023927Y0134139D01*
X0023316Y0133695D01*
X0022643Y0133352D01*
X0021924Y0133118D01*
X0021178Y0133000D01*
X0018000Y0133000D01*
X0018000Y0137600D01*
X0017600Y0137600D01*
X0017600Y0133000D01*
X0014422Y0133000D01*
X0013676Y0133118D01*
X0012957Y0133352D01*
X0012600Y0133534D01*
X0012600Y0131651D01*
X0013925Y0132200D01*
X0021675Y0132200D01*
X0023292Y0131530D01*
X0024530Y0130292D01*
X0025200Y0128675D01*
X0025200Y0126925D01*
X0024530Y0125308D01*
X0023292Y0124070D01*
X0021675Y0123400D01*
X0013925Y0123400D01*
X0012600Y0123949D01*
X0012600Y0082651D01*
X0013925Y0083200D01*
X0021675Y0083200D01*
X0023292Y0082530D01*
X0024530Y0081292D01*
X0025200Y0079675D01*
X0025200Y0077925D01*
X0024530Y0076308D01*
X0023292Y0075070D01*
X0021675Y0074400D01*
X0013925Y0074400D01*
X0012600Y0074949D01*
X0012600Y0072651D01*
X0013925Y0073200D01*
X0021675Y0073200D01*
X0023292Y0072530D01*
X0024530Y0071292D01*
X0025200Y0069675D01*
X0025200Y0067925D01*
X0024530Y0066308D01*
X0023292Y0065070D01*
X0021675Y0064400D01*
X0013925Y0064400D01*
X0012600Y0064949D01*
X0012600Y0057651D01*
X0013925Y0058200D01*
X0021675Y0058200D01*
X0023292Y0057530D01*
X0024530Y0056292D01*
X0024651Y0056000D01*
X0024711Y0056000D01*
X0025296Y0055415D01*
X0031614Y0050000D01*
X0031711Y0050000D01*
X0032296Y0049415D01*
X0032924Y0048877D01*
X0032931Y0048780D01*
X0033000Y0048711D01*
X0033000Y0047885D01*
X0033063Y0047060D01*
X0033000Y0046986D01*
X0033000Y0024596D01*
X0033073Y0024508D01*
X0033000Y0023700D01*
X0033000Y0022889D01*
X0032919Y0022808D01*
X0032908Y0022693D01*
X0032285Y0022174D01*
X0031711Y0021600D01*
X0031597Y0021600D01*
X0026285Y0017174D01*
X0025711Y0016600D01*
X0025596Y0016600D01*
X0025508Y0016527D01*
X0024700Y0016600D01*
X0024651Y0016600D01*
X0024530Y0016308D01*
X0023292Y0015070D01*
X0021675Y0014400D01*
X0013925Y0014400D01*
X0012600Y0014949D01*
X0012600Y0014194D02*
X0041817Y0014194D01*
X0041739Y0014226D02*
X0045023Y0012866D01*
X0048577Y0012866D01*
X0051861Y0014226D01*
X0054374Y0016739D01*
X0055734Y0020023D01*
X0055734Y0023577D01*
X0054374Y0026861D01*
X0051861Y0029374D01*
X0048577Y0030734D01*
X0045023Y0030734D01*
X0041739Y0029374D01*
X0039226Y0026861D01*
X0037866Y0023577D01*
X0037866Y0020023D01*
X0039226Y0016739D01*
X0041739Y0014226D01*
X0040173Y0015793D02*
X0024015Y0015793D01*
X0026546Y0017391D02*
X0038956Y0017391D01*
X0038294Y0018990D02*
X0028464Y0018990D01*
X0030382Y0020588D02*
X0037866Y0020588D01*
X0037866Y0022187D02*
X0032300Y0022187D01*
X0033008Y0023785D02*
X0037952Y0023785D01*
X0038614Y0025384D02*
X0033000Y0025384D01*
X0033000Y0026982D02*
X0039348Y0026982D01*
X0040946Y0028581D02*
X0033000Y0028581D01*
X0033000Y0030179D02*
X0043684Y0030179D01*
X0049916Y0030179D02*
X0126068Y0030179D01*
X0124600Y0028581D02*
X0052654Y0028581D01*
X0054252Y0026982D02*
X0124600Y0026982D01*
X0124161Y0025384D02*
X0091226Y0025384D01*
X0090000Y0025384D02*
X0089600Y0025384D01*
X0088374Y0025384D02*
X0054986Y0025384D01*
X0055648Y0023785D02*
X0076563Y0023785D01*
X0075612Y0022187D02*
X0055734Y0022187D01*
X0055734Y0020588D02*
X0075400Y0020588D01*
X0075400Y0018990D02*
X0055306Y0018990D01*
X0054644Y0017391D02*
X0075400Y0017391D01*
X0075400Y0015793D02*
X0053427Y0015793D01*
X0051783Y0014194D02*
X0075400Y0014194D01*
X0084200Y0014194D02*
X0085036Y0014194D01*
X0085000Y0015793D02*
X0084200Y0015793D01*
X0084200Y0017391D02*
X0085000Y0017391D01*
X0085000Y0018990D02*
X0084200Y0018990D01*
X0084200Y0020588D02*
X0085000Y0020588D01*
X0085204Y0022187D02*
X0083988Y0022187D01*
X0083037Y0023785D02*
X0086036Y0023785D01*
X0089600Y0023785D02*
X0090000Y0023785D01*
X0090000Y0022187D02*
X0089600Y0022187D01*
X0089600Y0020588D02*
X0090000Y0020588D01*
X0090000Y0018990D02*
X0089600Y0018990D01*
X0094600Y0018990D02*
X0122400Y0018990D01*
X0122400Y0020588D02*
X0094600Y0020588D01*
X0094396Y0022187D02*
X0122400Y0022187D01*
X0122860Y0023785D02*
X0093564Y0023785D01*
X0094600Y0017391D02*
X0122400Y0017391D01*
X0122400Y0015793D02*
X0094600Y0015793D01*
X0094564Y0014194D02*
X0122703Y0014194D01*
X0126800Y0018800D02*
X0126800Y0027800D01*
X0130800Y0031800D01*
X0128326Y0033376D02*
X0033000Y0033376D01*
X0033000Y0031778D02*
X0127666Y0031778D01*
X0130692Y0028581D02*
X0134600Y0028581D01*
X0134600Y0030179D02*
X0133256Y0030179D01*
X0133689Y0031778D02*
X0134600Y0031778D01*
X0134600Y0033376D02*
X0133274Y0033376D01*
X0134600Y0034975D02*
X0033000Y0034975D01*
X0033000Y0036573D02*
X0134600Y0036573D01*
X0134600Y0038172D02*
X0033000Y0038172D01*
X0033000Y0039770D02*
X0134600Y0039770D01*
X0134600Y0041369D02*
X0033000Y0041369D01*
X0033000Y0042967D02*
X0134874Y0042967D01*
X0134310Y0044566D02*
X0033000Y0044566D01*
X0033000Y0046164D02*
X0039753Y0046164D01*
X0039597Y0046320D02*
X0040084Y0045833D01*
X0040641Y0045428D01*
X0041255Y0045116D01*
X0041909Y0044903D01*
X0042590Y0044795D01*
X0042934Y0044795D01*
X0043278Y0044795D01*
X0043958Y0044903D01*
X0044613Y0045116D01*
X0045227Y0045428D01*
X0045784Y0045833D01*
X0046271Y0046320D01*
X0046676Y0046877D01*
X0046988Y0047491D01*
X0047201Y0048146D01*
X0047309Y0048826D01*
X0047309Y0049170D01*
X0047309Y0049514D01*
X0047201Y0050195D01*
X0046988Y0050849D01*
X0046676Y0051463D01*
X0046271Y0052020D01*
X0045784Y0052507D01*
X0045227Y0052912D01*
X0044613Y0053224D01*
X0043958Y0053437D01*
X0043278Y0053545D01*
X0042934Y0053545D01*
X0042934Y0049170D01*
X0042934Y0049170D01*
X0047309Y0049170D01*
X0042934Y0049170D01*
X0042934Y0044795D01*
X0042934Y0049170D01*
X0042934Y0049170D01*
X0042934Y0049170D01*
X0038559Y0049170D01*
X0038559Y0048826D01*
X0038667Y0048146D01*
X0038880Y0047491D01*
X0039192Y0046877D01*
X0039597Y0046320D01*
X0038791Y0047763D02*
X0033009Y0047763D01*
X0032359Y0049361D02*
X0038559Y0049361D01*
X0038559Y0049514D02*
X0038559Y0049170D01*
X0042934Y0049170D01*
X0042934Y0049170D01*
X0042934Y0053545D01*
X0042590Y0053545D01*
X0041909Y0053437D01*
X0041255Y0053224D01*
X0040641Y0052912D01*
X0040084Y0052507D01*
X0039597Y0052020D01*
X0039192Y0051463D01*
X0038880Y0050849D01*
X0038667Y0050195D01*
X0038559Y0049514D01*
X0038936Y0050960D02*
X0030494Y0050960D01*
X0028629Y0052558D02*
X0040155Y0052558D01*
X0042934Y0052558D02*
X0042934Y0052558D01*
X0042934Y0050960D02*
X0042934Y0050960D01*
X0042934Y0049361D02*
X0042934Y0049361D01*
X0042934Y0047763D02*
X0042934Y0047763D01*
X0042934Y0046164D02*
X0042934Y0046164D01*
X0046115Y0046164D02*
X0060318Y0046164D01*
X0060682Y0045800D02*
X0062143Y0045195D01*
X0063724Y0045195D01*
X0065185Y0045800D01*
X0066304Y0046919D01*
X0066909Y0048379D01*
X0066909Y0049961D01*
X0066304Y0051422D01*
X0065185Y0052540D01*
X0065134Y0052561D01*
X0065134Y0065779D01*
X0065185Y0065800D01*
X0066304Y0066919D01*
X0066909Y0068379D01*
X0066909Y0069961D01*
X0066304Y0071422D01*
X0065185Y0072540D01*
X0063724Y0073145D01*
X0062143Y0073145D01*
X0060682Y0072540D01*
X0059564Y0071422D01*
X0058959Y0069961D01*
X0058959Y0069363D01*
X0049958Y0064000D01*
X0037518Y0064000D01*
X0030000Y0070672D01*
X0030000Y0081700D01*
X0030073Y0082508D01*
X0030000Y0082596D01*
X0030000Y0082711D01*
X0029426Y0083285D01*
X0022190Y0091968D01*
X0022200Y0091977D01*
X0022200Y0095623D01*
X0019623Y0098200D01*
X0015977Y0098200D01*
X0013400Y0095623D01*
X0013400Y0091977D01*
X0015977Y0089400D01*
X0018603Y0089400D01*
X0025600Y0081003D01*
X0025600Y0070518D01*
X0025550Y0070461D01*
X0025600Y0069617D01*
X0025600Y0068771D01*
X0025654Y0068718D01*
X0025658Y0068642D01*
X0026291Y0068081D01*
X0026889Y0067483D01*
X0026965Y0067483D01*
X0035173Y0060198D01*
X0035771Y0059600D01*
X0035847Y0059600D01*
X0035904Y0059550D01*
X0036748Y0059600D01*
X0050289Y0059600D01*
X0050907Y0059444D01*
X0051169Y0059600D01*
X0051475Y0059600D01*
X0051925Y0060050D01*
X0060734Y0065298D01*
X0060734Y0052561D01*
X0060682Y0052540D01*
X0059564Y0051422D01*
X0058959Y0049961D01*
X0058959Y0048379D01*
X0059564Y0046919D01*
X0060682Y0045800D01*
X0059214Y0047763D02*
X0047077Y0047763D01*
X0047309Y0049361D02*
X0058959Y0049361D01*
X0059373Y0050960D02*
X0046932Y0050960D01*
X0045713Y0052558D02*
X0060727Y0052558D01*
X0060734Y0054157D02*
X0026764Y0054157D01*
X0024956Y0055755D02*
X0060734Y0055755D01*
X0060734Y0057354D02*
X0023469Y0057354D01*
X0023800Y0053800D02*
X0030800Y0047800D01*
X0030800Y0023800D01*
X0024800Y0018800D01*
X0017800Y0018800D01*
X0017800Y0028800D02*
X0024800Y0028800D01*
X0027600Y0031600D01*
X0027600Y0041000D01*
X0025800Y0043800D01*
X0017800Y0043800D01*
X0017800Y0053800D02*
X0023800Y0053800D01*
X0032974Y0062149D02*
X0012600Y0062149D01*
X0012600Y0060551D02*
X0034776Y0060551D01*
X0036683Y0061800D02*
X0050564Y0061800D01*
X0062934Y0069170D01*
X0062934Y0049170D01*
X0066653Y0047763D02*
X0069214Y0047763D01*
X0068959Y0048379D02*
X0069564Y0046919D01*
X0070682Y0045800D01*
X0072143Y0045195D01*
X0073724Y0045195D01*
X0075185Y0045800D01*
X0076304Y0046919D01*
X0076909Y0048379D01*
X0076909Y0049961D01*
X0076304Y0051422D01*
X0075185Y0052540D01*
X0073724Y0053145D01*
X0072143Y0053145D01*
X0070682Y0052540D01*
X0069564Y0051422D01*
X0068959Y0049961D01*
X0068959Y0048379D01*
X0068959Y0049361D02*
X0066909Y0049361D01*
X0066495Y0050960D02*
X0069373Y0050960D01*
X0070727Y0052558D02*
X0065141Y0052558D01*
X0065134Y0054157D02*
X0108866Y0054157D01*
X0108866Y0053023D02*
X0110226Y0049739D01*
X0112739Y0047226D01*
X0116023Y0045866D01*
X0119577Y0045866D01*
X0122861Y0047226D01*
X0125374Y0049739D01*
X0126734Y0053023D01*
X0126734Y0056577D01*
X0125374Y0059861D01*
X0122861Y0062374D01*
X0119577Y0063734D01*
X0116023Y0063734D01*
X0112739Y0062374D01*
X0110226Y0059861D01*
X0108866Y0056577D01*
X0108866Y0053023D01*
X0109059Y0052558D02*
X0085141Y0052558D01*
X0085185Y0052540D02*
X0083724Y0053145D01*
X0082143Y0053145D01*
X0080682Y0052540D01*
X0079564Y0051422D01*
X0078959Y0049961D01*
X0078959Y0048379D01*
X0079564Y0046919D01*
X0080682Y0045800D01*
X0082143Y0045195D01*
X0083724Y0045195D01*
X0085185Y0045800D01*
X0086304Y0046919D01*
X0086909Y0048379D01*
X0086909Y0049961D01*
X0086304Y0051422D01*
X0085185Y0052540D01*
X0086495Y0050960D02*
X0109721Y0050960D01*
X0110604Y0049361D02*
X0086909Y0049361D01*
X0086653Y0047763D02*
X0112203Y0047763D01*
X0115303Y0046164D02*
X0085549Y0046164D01*
X0080318Y0046164D02*
X0075549Y0046164D01*
X0076653Y0047763D02*
X0079214Y0047763D01*
X0078959Y0049361D02*
X0076909Y0049361D01*
X0076495Y0050960D02*
X0079373Y0050960D01*
X0080727Y0052558D02*
X0075141Y0052558D01*
X0070318Y0046164D02*
X0065549Y0046164D01*
X0065134Y0055755D02*
X0108866Y0055755D01*
X0109188Y0057354D02*
X0065134Y0057354D01*
X0065134Y0058952D02*
X0109850Y0058952D01*
X0110916Y0060551D02*
X0065134Y0060551D01*
X0065134Y0062149D02*
X0112515Y0062149D01*
X0123085Y0062149D02*
X0134630Y0062149D01*
X0134630Y0060551D02*
X0124683Y0060551D01*
X0125750Y0058952D02*
X0134630Y0058952D01*
X0134630Y0057354D02*
X0126412Y0057354D01*
X0126734Y0055755D02*
X0134630Y0055755D01*
X0134630Y0054157D02*
X0126734Y0054157D01*
X0126541Y0052558D02*
X0134101Y0052558D01*
X0134101Y0050960D02*
X0125879Y0050960D01*
X0124996Y0049361D02*
X0134101Y0049361D01*
X0134101Y0047763D02*
X0123397Y0047763D01*
X0120297Y0046164D02*
X0134101Y0046164D01*
X0136800Y0041782D02*
X0136800Y0018800D01*
X0132400Y0018990D02*
X0131200Y0018990D01*
X0131200Y0020588D02*
X0132400Y0020588D01*
X0132400Y0022187D02*
X0131200Y0022187D01*
X0130740Y0023785D02*
X0132860Y0023785D01*
X0134161Y0025384D02*
X0129439Y0025384D01*
X0129093Y0026982D02*
X0134600Y0026982D01*
X0141800Y0031800D02*
X0141800Y0044814D01*
X0139831Y0044814D02*
X0136800Y0041782D01*
X0143769Y0044814D02*
X0146800Y0041782D01*
X0146800Y0035800D01*
X0151800Y0035800D01*
X0146800Y0035800D02*
X0146800Y0018800D01*
X0156800Y0018800D02*
X0156800Y0035818D01*
X0146770Y0045847D01*
X0161847Y0045847D01*
X0168800Y0052800D01*
X0168800Y0076536D01*
X0161073Y0087263D01*
X0155109Y0087263D01*
X0154556Y0087816D01*
X0154556Y0083485D02*
X0155241Y0082800D01*
X0159800Y0082800D01*
X0164800Y0074800D01*
X0161911Y0074937D02*
X0159505Y0074937D01*
X0159505Y0075033D02*
X0152772Y0075033D01*
X0152772Y0075402D01*
X0152403Y0075402D01*
X0152403Y0078986D01*
X0147232Y0078986D01*
X0146775Y0078863D01*
X0146364Y0078626D01*
X0146029Y0078291D01*
X0145792Y0077881D01*
X0145669Y0077423D01*
X0145669Y0075402D01*
X0152403Y0075402D01*
X0152403Y0075033D01*
X0145669Y0075033D01*
X0145669Y0073012D01*
X0145792Y0072554D01*
X0146029Y0072144D01*
X0146364Y0071808D01*
X0146775Y0071571D01*
X0147232Y0071449D01*
X0152403Y0071449D01*
X0152403Y0075033D01*
X0152772Y0075033D01*
X0152772Y0071449D01*
X0157942Y0071449D01*
X0158400Y0071571D01*
X0158811Y0071808D01*
X0159146Y0072144D01*
X0159383Y0072554D01*
X0159505Y0073012D01*
X0159505Y0075033D01*
X0159505Y0075402D02*
X0159505Y0077423D01*
X0159383Y0077881D01*
X0159146Y0078291D01*
X0158811Y0078626D01*
X0158400Y0078863D01*
X0157942Y0078986D01*
X0152772Y0078986D01*
X0152772Y0075402D01*
X0159505Y0075402D01*
X0159505Y0076536D02*
X0161121Y0076536D01*
X0161911Y0075271D02*
X0161911Y0074225D01*
X0162351Y0073164D01*
X0163164Y0072351D01*
X0164225Y0071911D01*
X0165375Y0071911D01*
X0166436Y0072351D01*
X0166600Y0072514D01*
X0166600Y0053711D01*
X0160936Y0048047D01*
X0149499Y0048047D01*
X0149499Y0048712D01*
X0149499Y0052825D01*
X0148679Y0053645D01*
X0145661Y0053645D01*
X0145661Y0054695D01*
X0144841Y0055515D01*
X0143438Y0055515D01*
X0143397Y0055555D01*
X0142987Y0055792D01*
X0142529Y0055915D01*
X0141800Y0055915D01*
X0141800Y0055158D01*
X0141800Y0055915D01*
X0141071Y0055915D01*
X0140816Y0055847D01*
X0140561Y0055915D01*
X0139832Y0055915D01*
X0139832Y0055158D01*
X0139831Y0055158D01*
X0139831Y0055915D01*
X0139102Y0055915D01*
X0139030Y0055895D01*
X0139030Y0085134D01*
X0143265Y0089370D01*
X0143351Y0089164D01*
X0144164Y0088351D01*
X0145225Y0087911D01*
X0146375Y0087911D01*
X0147436Y0088351D01*
X0148249Y0089164D01*
X0148689Y0090225D01*
X0148689Y0090578D01*
X0148819Y0090708D01*
X0148819Y0090532D01*
X0148942Y0090074D01*
X0149179Y0089663D01*
X0149219Y0089623D01*
X0149219Y0085858D01*
X0149426Y0085650D01*
X0149219Y0085443D01*
X0149219Y0081527D01*
X0150039Y0080707D01*
X0154223Y0080707D01*
X0154330Y0080600D01*
X0158581Y0080600D01*
X0161911Y0075271D01*
X0162278Y0073339D02*
X0159505Y0073339D01*
X0158693Y0071740D02*
X0166600Y0071740D01*
X0166600Y0070142D02*
X0139030Y0070142D01*
X0139030Y0071740D02*
X0146482Y0071740D01*
X0145669Y0073339D02*
X0139030Y0073339D01*
X0139030Y0074937D02*
X0145669Y0074937D01*
X0145669Y0076536D02*
X0139030Y0076536D01*
X0139030Y0078134D02*
X0145939Y0078134D01*
X0149415Y0081332D02*
X0139030Y0081332D01*
X0139030Y0082930D02*
X0149219Y0082930D01*
X0149219Y0084529D02*
X0139030Y0084529D01*
X0140022Y0086127D02*
X0149219Y0086127D01*
X0149219Y0087726D02*
X0141621Y0087726D01*
X0143219Y0089324D02*
X0143284Y0089324D01*
X0145800Y0090800D02*
X0151477Y0096477D01*
X0154556Y0096477D01*
X0153003Y0099255D02*
X0154556Y0100808D01*
X0153003Y0099255D02*
X0150039Y0099255D01*
X0136830Y0086046D01*
X0136830Y0051753D01*
X0139832Y0052786D02*
X0139832Y0052786D01*
X0141800Y0052786D01*
X0141800Y0052786D01*
X0139832Y0052786D01*
X0139831Y0055755D02*
X0139832Y0055755D01*
X0139030Y0057354D02*
X0166600Y0057354D01*
X0166600Y0058952D02*
X0139030Y0058952D01*
X0139030Y0060551D02*
X0166600Y0060551D01*
X0166600Y0062149D02*
X0139030Y0062149D01*
X0139030Y0063748D02*
X0166600Y0063748D01*
X0166600Y0065346D02*
X0139030Y0065346D01*
X0139030Y0066945D02*
X0166600Y0066945D01*
X0166600Y0068543D02*
X0139030Y0068543D01*
X0134630Y0068543D02*
X0086909Y0068543D01*
X0086909Y0068379D02*
X0086304Y0066919D01*
X0085185Y0065800D01*
X0083724Y0065195D01*
X0082143Y0065195D01*
X0080682Y0065800D01*
X0079564Y0066919D01*
X0078959Y0068379D01*
X0078959Y0069961D01*
X0079564Y0071422D01*
X0080682Y0072540D01*
X0082143Y0073145D01*
X0083724Y0073145D01*
X0085185Y0072540D01*
X0086304Y0071422D01*
X0086909Y0069961D01*
X0086909Y0068379D01*
X0086314Y0066945D02*
X0134630Y0066945D01*
X0134630Y0065346D02*
X0084089Y0065346D01*
X0081778Y0065346D02*
X0074089Y0065346D01*
X0073724Y0065195D02*
X0075185Y0065800D01*
X0076304Y0066919D01*
X0076909Y0068379D01*
X0076909Y0069961D01*
X0076304Y0071422D01*
X0075185Y0072540D01*
X0073724Y0073145D01*
X0072143Y0073145D01*
X0070682Y0072540D01*
X0069564Y0071422D01*
X0068959Y0069961D01*
X0068959Y0068379D01*
X0069564Y0066919D01*
X0070682Y0065800D01*
X0072143Y0065195D01*
X0073724Y0065195D01*
X0071778Y0065346D02*
X0065134Y0065346D01*
X0065134Y0063748D02*
X0134630Y0063748D01*
X0134630Y0070142D02*
X0086834Y0070142D01*
X0085985Y0071740D02*
X0134630Y0071740D01*
X0134630Y0073339D02*
X0041876Y0073339D01*
X0042092Y0073124D02*
X0041134Y0074081D01*
X0041134Y0089274D01*
X0043589Y0093000D01*
X0044436Y0093351D01*
X0045249Y0094164D01*
X0045689Y0095225D01*
X0045689Y0096375D01*
X0045596Y0096600D01*
X0057674Y0096600D01*
X0058455Y0096511D01*
X0058568Y0096600D01*
X0058711Y0096600D01*
X0059267Y0097156D01*
X0063434Y0100466D01*
X0063577Y0100466D01*
X0064133Y0101022D01*
X0064748Y0101510D01*
X0064765Y0101653D01*
X0064866Y0101755D01*
X0064866Y0102541D01*
X0064956Y0103321D01*
X0064866Y0103434D01*
X0064866Y0106039D01*
X0064918Y0106060D01*
X0066036Y0107178D01*
X0066641Y0108639D01*
X0066641Y0110221D01*
X0066036Y0111681D01*
X0064918Y0112800D01*
X0064866Y0112821D01*
X0064866Y0126039D01*
X0064918Y0126060D01*
X0066036Y0127178D01*
X0066641Y0128639D01*
X0066641Y0130221D01*
X0066036Y0131681D01*
X0064918Y0132800D01*
X0063457Y0133405D01*
X0061875Y0133405D01*
X0060415Y0132800D01*
X0059296Y0131681D01*
X0058691Y0130221D01*
X0058691Y0128639D01*
X0059296Y0127178D01*
X0060415Y0126060D01*
X0060466Y0126039D01*
X0060466Y0112821D01*
X0060415Y0112800D01*
X0059296Y0111681D01*
X0058691Y0110221D01*
X0058691Y0108639D01*
X0059296Y0107178D01*
X0060415Y0106060D01*
X0060466Y0106039D01*
X0060466Y0103728D01*
X0057032Y0101000D01*
X0055197Y0101000D01*
X0055249Y0101052D01*
X0055689Y0102114D01*
X0055689Y0103264D01*
X0055249Y0104325D01*
X0055000Y0104575D01*
X0055000Y0106143D01*
X0056036Y0107178D01*
X0056641Y0108639D01*
X0056641Y0110221D01*
X0056036Y0111681D01*
X0054918Y0112800D01*
X0053457Y0113405D01*
X0051875Y0113405D01*
X0050415Y0112800D01*
X0049296Y0111681D01*
X0048691Y0110221D01*
X0048691Y0108639D01*
X0049296Y0107178D01*
X0050415Y0106060D01*
X0050600Y0105983D01*
X0050600Y0104575D01*
X0050351Y0104325D01*
X0049911Y0103264D01*
X0049911Y0102114D01*
X0050351Y0101052D01*
X0050403Y0101000D01*
X0030763Y0101000D01*
X0021384Y0111161D01*
X0022200Y0111977D01*
X0022200Y0115623D01*
X0019623Y0118200D01*
X0015977Y0118200D01*
X0013400Y0115623D01*
X0013400Y0111977D01*
X0015977Y0109400D01*
X0017021Y0109400D01*
X0027600Y0097940D01*
X0027600Y0097889D01*
X0028213Y0097275D01*
X0028802Y0096638D01*
X0028853Y0096636D01*
X0028889Y0096600D01*
X0029756Y0096600D01*
X0030623Y0096565D01*
X0030660Y0096600D01*
X0040004Y0096600D01*
X0039911Y0096375D01*
X0039911Y0095414D01*
X0037220Y0091331D01*
X0036734Y0090845D01*
X0036734Y0090594D01*
X0036595Y0090384D01*
X0036734Y0089710D01*
X0036734Y0072259D01*
X0038980Y0070012D01*
X0038959Y0069961D01*
X0038959Y0068379D01*
X0039564Y0066919D01*
X0040682Y0065800D01*
X0042143Y0065195D01*
X0043724Y0065195D01*
X0045185Y0065800D01*
X0046304Y0066919D01*
X0046909Y0068379D01*
X0046909Y0069961D01*
X0046304Y0071422D01*
X0045185Y0072540D01*
X0043724Y0073145D01*
X0042143Y0073145D01*
X0042092Y0073124D01*
X0041134Y0074937D02*
X0134630Y0074937D01*
X0134630Y0076536D02*
X0070194Y0076536D01*
X0068577Y0075866D02*
X0071861Y0077226D01*
X0074374Y0079739D01*
X0075734Y0083023D01*
X0075734Y0086577D01*
X0074374Y0089861D01*
X0071861Y0092374D01*
X0068577Y0093734D01*
X0065023Y0093734D01*
X0061739Y0092374D01*
X0059226Y0089861D01*
X0057866Y0086577D01*
X0057866Y0083023D01*
X0059226Y0079739D01*
X0061739Y0077226D01*
X0065023Y0075866D01*
X0068577Y0075866D01*
X0069883Y0071740D02*
X0065985Y0071740D01*
X0066834Y0070142D02*
X0069034Y0070142D01*
X0068959Y0068543D02*
X0066909Y0068543D01*
X0066314Y0066945D02*
X0069553Y0066945D01*
X0075985Y0071740D02*
X0079883Y0071740D01*
X0079034Y0070142D02*
X0076834Y0070142D01*
X0076909Y0068543D02*
X0078959Y0068543D01*
X0079553Y0066945D02*
X0076314Y0066945D01*
X0072769Y0078134D02*
X0134630Y0078134D01*
X0134630Y0079733D02*
X0074367Y0079733D01*
X0075033Y0081332D02*
X0134630Y0081332D01*
X0134630Y0082930D02*
X0108956Y0082930D01*
X0108989Y0082987D02*
X0109112Y0083445D01*
X0109112Y0088419D01*
X0105134Y0088419D01*
X0105134Y0089575D01*
X0103978Y0089575D01*
X0103978Y0096112D01*
X0101563Y0096112D01*
X0101105Y0095989D01*
X0100695Y0095752D01*
X0100360Y0095417D01*
X0100123Y0095007D01*
X0100000Y0094549D01*
X0100000Y0089575D01*
X0103978Y0089575D01*
X0103978Y0088419D01*
X0100000Y0088419D01*
X0100000Y0083445D01*
X0100123Y0082987D01*
X0100360Y0082577D01*
X0100695Y0082242D01*
X0101105Y0082005D01*
X0101563Y0081882D01*
X0103978Y0081882D01*
X0103978Y0088419D01*
X0105134Y0088419D01*
X0105134Y0081882D01*
X0107549Y0081882D01*
X0108007Y0082005D01*
X0108417Y0082242D01*
X0108752Y0082577D01*
X0108989Y0082987D01*
X0109112Y0084529D02*
X0134630Y0084529D01*
X0134630Y0086127D02*
X0109112Y0086127D01*
X0109112Y0087726D02*
X0135398Y0087726D01*
X0136997Y0089324D02*
X0105134Y0089324D01*
X0105134Y0089575D02*
X0109112Y0089575D01*
X0109112Y0094549D01*
X0108989Y0095007D01*
X0108752Y0095417D01*
X0108417Y0095752D01*
X0108007Y0095989D01*
X0107549Y0096112D01*
X0105134Y0096112D01*
X0105134Y0089575D01*
X0103978Y0089324D02*
X0074596Y0089324D01*
X0075258Y0087726D02*
X0100000Y0087726D01*
X0100000Y0086127D02*
X0075734Y0086127D01*
X0075734Y0084529D02*
X0100000Y0084529D01*
X0100156Y0082930D02*
X0075695Y0082930D01*
X0073312Y0090923D02*
X0100000Y0090923D01*
X0100000Y0092521D02*
X0071505Y0092521D01*
X0062095Y0092521D02*
X0043274Y0092521D01*
X0042220Y0090923D02*
X0060288Y0090923D01*
X0059004Y0089324D02*
X0041167Y0089324D01*
X0041134Y0087726D02*
X0058342Y0087726D01*
X0057866Y0086127D02*
X0041134Y0086127D01*
X0041134Y0084529D02*
X0057866Y0084529D01*
X0057905Y0082930D02*
X0041134Y0082930D01*
X0041134Y0081332D02*
X0058567Y0081332D01*
X0059233Y0079733D02*
X0041134Y0079733D01*
X0041134Y0078134D02*
X0060831Y0078134D01*
X0063406Y0076536D02*
X0041134Y0076536D01*
X0038934Y0073170D02*
X0042934Y0069170D01*
X0046314Y0066945D02*
X0054901Y0066945D01*
X0052218Y0065346D02*
X0044089Y0065346D01*
X0041778Y0065346D02*
X0036001Y0065346D01*
X0034200Y0066945D02*
X0039553Y0066945D01*
X0038959Y0068543D02*
X0032398Y0068543D01*
X0030597Y0070142D02*
X0038851Y0070142D01*
X0037252Y0071740D02*
X0030000Y0071740D01*
X0030000Y0073339D02*
X0036734Y0073339D01*
X0036734Y0074937D02*
X0030000Y0074937D01*
X0030000Y0076536D02*
X0036734Y0076536D01*
X0036734Y0078134D02*
X0030000Y0078134D01*
X0030000Y0079733D02*
X0036734Y0079733D01*
X0036734Y0081332D02*
X0030000Y0081332D01*
X0029781Y0082930D02*
X0036734Y0082930D01*
X0036734Y0084529D02*
X0028390Y0084529D01*
X0027058Y0086127D02*
X0036734Y0086127D01*
X0036734Y0087726D02*
X0025726Y0087726D01*
X0024394Y0089324D02*
X0036734Y0089324D01*
X0036811Y0090923D02*
X0023062Y0090923D01*
X0022200Y0092521D02*
X0038004Y0092521D01*
X0039058Y0094120D02*
X0022200Y0094120D01*
X0022104Y0095718D02*
X0039911Y0095718D01*
X0042800Y0095800D02*
X0038934Y0089934D01*
X0038934Y0073170D01*
X0045985Y0071740D02*
X0059883Y0071740D01*
X0059034Y0070142D02*
X0046834Y0070142D01*
X0046909Y0068543D02*
X0057584Y0068543D01*
X0058131Y0063748D02*
X0060734Y0063748D01*
X0060734Y0062149D02*
X0055448Y0062149D01*
X0052765Y0060551D02*
X0060734Y0060551D01*
X0060734Y0058952D02*
X0012600Y0058952D01*
X0012600Y0063748D02*
X0031173Y0063748D01*
X0029372Y0065346D02*
X0023569Y0065346D01*
X0024794Y0066945D02*
X0027571Y0066945D01*
X0025769Y0068543D02*
X0025200Y0068543D01*
X0025007Y0070142D02*
X0025569Y0070142D01*
X0025600Y0071740D02*
X0024082Y0071740D01*
X0025600Y0073339D02*
X0012600Y0073339D01*
X0012600Y0074937D02*
X0012627Y0074937D01*
X0012600Y0082930D02*
X0013273Y0082930D01*
X0012600Y0084529D02*
X0022662Y0084529D01*
X0022327Y0082930D02*
X0023995Y0082930D01*
X0024491Y0081332D02*
X0025327Y0081332D01*
X0025176Y0079733D02*
X0025600Y0079733D01*
X0025600Y0078134D02*
X0025200Y0078134D01*
X0025600Y0076536D02*
X0024625Y0076536D01*
X0025600Y0074937D02*
X0022973Y0074937D01*
X0027800Y0069683D02*
X0027800Y0081800D01*
X0017800Y0093800D01*
X0013400Y0094120D02*
X0012600Y0094120D01*
X0012600Y0095718D02*
X0013496Y0095718D01*
X0012600Y0097317D02*
X0015094Y0097317D01*
X0012600Y0098915D02*
X0026700Y0098915D01*
X0028172Y0097317D02*
X0020506Y0097317D01*
X0025224Y0100514D02*
X0012600Y0100514D01*
X0012600Y0102112D02*
X0023749Y0102112D01*
X0022273Y0103711D02*
X0012600Y0103711D01*
X0012600Y0105309D02*
X0020798Y0105309D01*
X0019322Y0106908D02*
X0012600Y0106908D01*
X0012600Y0108506D02*
X0017846Y0108506D01*
X0015273Y0110105D02*
X0012600Y0110105D01*
X0012600Y0111703D02*
X0013674Y0111703D01*
X0013400Y0113302D02*
X0012600Y0113302D01*
X0012600Y0114900D02*
X0013400Y0114900D01*
X0012600Y0116499D02*
X0014276Y0116499D01*
X0015875Y0118097D02*
X0012600Y0118097D01*
X0012600Y0119696D02*
X0060466Y0119696D01*
X0060466Y0121294D02*
X0012600Y0121294D01*
X0012600Y0122893D02*
X0060466Y0122893D01*
X0060466Y0124491D02*
X0023714Y0124491D01*
X0024854Y0126090D02*
X0049820Y0126090D01*
X0049816Y0126093D02*
X0050373Y0125688D01*
X0050987Y0125376D01*
X0051642Y0125163D01*
X0052322Y0125055D01*
X0052666Y0125055D01*
X0052666Y0129430D01*
X0052666Y0129430D01*
X0048291Y0129430D01*
X0048291Y0129774D01*
X0048399Y0130454D01*
X0048612Y0131109D01*
X0048924Y0131723D01*
X0049329Y0132280D01*
X0049816Y0132767D01*
X0050373Y0133172D01*
X0050987Y0133484D01*
X0051642Y0133697D01*
X0052322Y0133805D01*
X0052666Y0133805D01*
X0052666Y0129430D01*
X0052666Y0129430D01*
X0048291Y0129430D01*
X0048291Y0129086D01*
X0048399Y0128405D01*
X0048612Y0127751D01*
X0048924Y0127137D01*
X0049329Y0126580D01*
X0049816Y0126093D01*
X0048644Y0127688D02*
X0025200Y0127688D01*
X0024947Y0129287D02*
X0048291Y0129287D01*
X0048539Y0130885D02*
X0023937Y0130885D01*
X0023849Y0134082D02*
X0170701Y0134082D01*
X0170701Y0132484D02*
X0158111Y0132484D01*
X0157942Y0132529D02*
X0158400Y0132406D01*
X0158811Y0132169D01*
X0159146Y0131834D01*
X0159383Y0131424D01*
X0159505Y0130966D01*
X0159505Y0128453D01*
X0153264Y0128453D01*
X0151911Y0128453D01*
X0151911Y0132529D01*
X0147232Y0132529D01*
X0146775Y0132406D01*
X0146364Y0132169D01*
X0146029Y0131834D01*
X0145792Y0131424D01*
X0145669Y0130966D01*
X0145669Y0128453D01*
X0151911Y0128453D01*
X0151911Y0127100D01*
X0145669Y0127100D01*
X0145669Y0124587D01*
X0145792Y0124129D01*
X0146029Y0123718D01*
X0146364Y0123383D01*
X0146775Y0123146D01*
X0147232Y0123024D01*
X0151911Y0123024D01*
X0151911Y0127100D01*
X0153264Y0127100D01*
X0153264Y0128453D01*
X0153264Y0132529D01*
X0157942Y0132529D01*
X0159505Y0130885D02*
X0170701Y0130885D01*
X0170701Y0129287D02*
X0159505Y0129287D01*
X0159505Y0127100D02*
X0153264Y0127100D01*
X0153264Y0123024D01*
X0157942Y0123024D01*
X0158400Y0123146D01*
X0158811Y0123383D01*
X0159146Y0123718D01*
X0159383Y0124129D01*
X0159505Y0124587D01*
X0159505Y0127100D01*
X0159505Y0126090D02*
X0170701Y0126090D01*
X0170701Y0127688D02*
X0153264Y0127688D01*
X0151911Y0127688D02*
X0096247Y0127688D01*
X0096036Y0127178D02*
X0096641Y0128639D01*
X0096641Y0130221D01*
X0096036Y0131681D01*
X0094918Y0132800D01*
X0093457Y0133405D01*
X0091875Y0133405D01*
X0090415Y0132800D01*
X0089296Y0131681D01*
X0088691Y0130221D01*
X0088691Y0128639D01*
X0089296Y0127178D01*
X0090415Y0126060D01*
X0091875Y0125455D01*
X0093457Y0125455D01*
X0094918Y0126060D01*
X0096036Y0127178D01*
X0094947Y0126090D02*
X0145669Y0126090D01*
X0145695Y0124491D02*
X0064866Y0124491D01*
X0064866Y0122893D02*
X0100000Y0122893D01*
X0100000Y0122895D02*
X0100000Y0120677D01*
X0103781Y0120677D01*
X0103781Y0119915D01*
X0100000Y0119915D01*
X0100000Y0117697D01*
X0100123Y0117239D01*
X0100360Y0116829D01*
X0100695Y0116493D01*
X0101105Y0116257D01*
X0101563Y0116134D01*
X0103781Y0116134D01*
X0103781Y0119915D01*
X0104543Y0119915D01*
X0104543Y0116134D01*
X0106761Y0116134D01*
X0107219Y0116257D01*
X0107630Y0116493D01*
X0107965Y0116829D01*
X0108202Y0117239D01*
X0108324Y0117697D01*
X0108324Y0119915D01*
X0104543Y0119915D01*
X0104543Y0120677D01*
X0103781Y0120677D01*
X0103781Y0124458D01*
X0101563Y0124458D01*
X0101105Y0124336D01*
X0100695Y0124099D01*
X0100360Y0123763D01*
X0100123Y0123353D01*
X0100000Y0122895D01*
X0100000Y0121294D02*
X0064866Y0121294D01*
X0064866Y0119696D02*
X0100000Y0119696D01*
X0100000Y0118097D02*
X0064866Y0118097D01*
X0064866Y0116499D02*
X0100689Y0116499D01*
X0101220Y0115003D02*
X0100400Y0114183D01*
X0100400Y0102393D01*
X0101220Y0101573D01*
X0107892Y0101573D01*
X0108712Y0102393D01*
X0108712Y0114183D01*
X0107892Y0115003D01*
X0101220Y0115003D01*
X0101117Y0114900D02*
X0064866Y0114900D01*
X0064866Y0113302D02*
X0071627Y0113302D01*
X0071875Y0113405D02*
X0070415Y0112800D01*
X0069296Y0111681D01*
X0068691Y0110221D01*
X0068691Y0108639D01*
X0069296Y0107178D01*
X0070415Y0106060D01*
X0071875Y0105455D01*
X0073457Y0105455D01*
X0074918Y0106060D01*
X0076036Y0107178D01*
X0076641Y0108639D01*
X0076641Y0110221D01*
X0076036Y0111681D01*
X0074918Y0112800D01*
X0073457Y0113405D01*
X0071875Y0113405D01*
X0073705Y0113302D02*
X0091627Y0113302D01*
X0091875Y0113405D02*
X0090415Y0112800D01*
X0089296Y0111681D01*
X0088691Y0110221D01*
X0088691Y0108639D01*
X0089296Y0107178D01*
X0090415Y0106060D01*
X0091875Y0105455D01*
X0093457Y0105455D01*
X0094918Y0106060D01*
X0096036Y0107178D01*
X0096641Y0108639D01*
X0096641Y0110221D01*
X0096036Y0111681D01*
X0094918Y0112800D01*
X0093457Y0113405D01*
X0091875Y0113405D01*
X0093705Y0113302D02*
X0100400Y0113302D01*
X0100400Y0111703D02*
X0096014Y0111703D01*
X0096641Y0110105D02*
X0100400Y0110105D01*
X0100400Y0108506D02*
X0096586Y0108506D01*
X0095765Y0106908D02*
X0100400Y0106908D01*
X0100400Y0105309D02*
X0064866Y0105309D01*
X0064866Y0103711D02*
X0100400Y0103711D01*
X0100681Y0102112D02*
X0064866Y0102112D01*
X0063625Y0100514D02*
X0148186Y0100514D01*
X0149219Y0102112D02*
X0108431Y0102112D01*
X0108712Y0103711D02*
X0149219Y0103711D01*
X0149219Y0105309D02*
X0108712Y0105309D01*
X0108712Y0106908D02*
X0149219Y0106908D01*
X0149219Y0108506D02*
X0108712Y0108506D01*
X0108712Y0110105D02*
X0149219Y0110105D01*
X0149358Y0111703D02*
X0108712Y0111703D01*
X0108712Y0113302D02*
X0149219Y0113302D01*
X0149219Y0114900D02*
X0107995Y0114900D01*
X0107635Y0116499D02*
X0149960Y0116499D01*
X0151911Y0124491D02*
X0153264Y0124491D01*
X0153264Y0126090D02*
X0151911Y0126090D01*
X0151911Y0129287D02*
X0153264Y0129287D01*
X0153264Y0130885D02*
X0151911Y0130885D01*
X0151911Y0132484D02*
X0153264Y0132484D01*
X0154289Y0135681D02*
X0170701Y0135681D01*
X0170701Y0137279D02*
X0155902Y0137279D01*
X0156514Y0138878D02*
X0170701Y0138878D01*
X0170701Y0140476D02*
X0156600Y0140476D01*
X0156600Y0142075D02*
X0170701Y0142075D01*
X0170701Y0143673D02*
X0156600Y0143673D01*
X0156600Y0145272D02*
X0170701Y0145272D01*
X0170701Y0146870D02*
X0156490Y0146870D01*
X0155794Y0148469D02*
X0170701Y0148469D01*
X0152000Y0142075D02*
X0151600Y0142075D01*
X0151600Y0140476D02*
X0152000Y0140476D01*
X0152000Y0138878D02*
X0151600Y0138878D01*
X0151600Y0137279D02*
X0152000Y0137279D01*
X0152000Y0135681D02*
X0151600Y0135681D01*
X0149311Y0135681D02*
X0143353Y0135681D01*
X0145502Y0137279D02*
X0147698Y0137279D01*
X0147086Y0138878D02*
X0146181Y0138878D01*
X0146200Y0140476D02*
X0147000Y0140476D01*
X0147000Y0142075D02*
X0146200Y0142075D01*
X0146200Y0143673D02*
X0147000Y0143673D01*
X0147000Y0145272D02*
X0146200Y0145272D01*
X0146119Y0146870D02*
X0147110Y0146870D01*
X0147806Y0148469D02*
X0145354Y0148469D01*
X0138246Y0148469D02*
X0012600Y0148469D01*
X0012600Y0146870D02*
X0102648Y0146870D01*
X0102977Y0147200D02*
X0100400Y0144623D01*
X0100400Y0140977D01*
X0102977Y0138400D01*
X0106623Y0138400D01*
X0109200Y0140977D01*
X0109200Y0144623D01*
X0106623Y0147200D01*
X0102977Y0147200D01*
X0101049Y0145272D02*
X0012600Y0145272D01*
X0012600Y0143673D02*
X0100400Y0143673D01*
X0100400Y0142075D02*
X0022983Y0142075D01*
X0024789Y0140476D02*
X0100901Y0140476D01*
X0102500Y0138878D02*
X0025489Y0138878D01*
X0025577Y0137279D02*
X0138098Y0137279D01*
X0137419Y0138878D02*
X0126100Y0138878D01*
X0125623Y0138400D02*
X0128200Y0140977D01*
X0128200Y0144623D01*
X0125623Y0147200D01*
X0121977Y0147200D01*
X0119400Y0144623D01*
X0119400Y0140977D01*
X0121977Y0138400D01*
X0125623Y0138400D01*
X0127699Y0140476D02*
X0137400Y0140476D01*
X0137400Y0142075D02*
X0128200Y0142075D01*
X0128200Y0143673D02*
X0137400Y0143673D01*
X0137400Y0145272D02*
X0127551Y0145272D01*
X0125952Y0146870D02*
X0137481Y0146870D01*
X0140247Y0135681D02*
X0025107Y0135681D01*
X0018000Y0135681D02*
X0017600Y0135681D01*
X0017600Y0137279D02*
X0018000Y0137279D01*
X0018000Y0138878D02*
X0017600Y0138878D01*
X0017600Y0140476D02*
X0018000Y0140476D01*
X0018000Y0142075D02*
X0017600Y0142075D01*
X0012617Y0142075D02*
X0012600Y0142075D01*
X0017600Y0134082D02*
X0018000Y0134082D01*
X0012600Y0132484D02*
X0049533Y0132484D01*
X0052666Y0132484D02*
X0052666Y0132484D01*
X0052666Y0133805D02*
X0052666Y0129430D01*
X0052666Y0129430D01*
X0057041Y0129430D01*
X0057041Y0129774D01*
X0056933Y0130454D01*
X0056720Y0131109D01*
X0056408Y0131723D01*
X0056003Y0132280D01*
X0055516Y0132767D01*
X0054959Y0133172D01*
X0054345Y0133484D01*
X0053691Y0133697D01*
X0053010Y0133805D01*
X0052666Y0133805D01*
X0052666Y0130885D02*
X0052666Y0130885D01*
X0052666Y0129430D02*
X0052666Y0129430D01*
X0052666Y0125055D01*
X0053010Y0125055D01*
X0053691Y0125163D01*
X0054345Y0125376D01*
X0054959Y0125688D01*
X0055516Y0126093D01*
X0056003Y0126580D01*
X0056408Y0127137D01*
X0056720Y0127751D01*
X0056933Y0128405D01*
X0057041Y0129086D01*
X0057041Y0129430D01*
X0052666Y0129430D01*
X0052666Y0129287D02*
X0052666Y0129287D01*
X0052666Y0127688D02*
X0052666Y0127688D01*
X0052666Y0126090D02*
X0052666Y0126090D01*
X0055512Y0126090D02*
X0060385Y0126090D01*
X0059085Y0127688D02*
X0056689Y0127688D01*
X0057041Y0129287D02*
X0058691Y0129287D01*
X0058967Y0130885D02*
X0056793Y0130885D01*
X0055799Y0132484D02*
X0060099Y0132484D01*
X0062666Y0129430D02*
X0062666Y0109430D01*
X0062666Y0102666D01*
X0057800Y0098800D01*
X0029800Y0098800D01*
X0017800Y0111800D01*
X0017800Y0113800D01*
X0022200Y0113302D02*
X0051627Y0113302D01*
X0053705Y0113302D02*
X0060466Y0113302D01*
X0060466Y0114900D02*
X0022200Y0114900D01*
X0021324Y0116499D02*
X0060466Y0116499D01*
X0060466Y0118097D02*
X0019725Y0118097D01*
X0021926Y0111703D02*
X0049318Y0111703D01*
X0048691Y0110105D02*
X0022359Y0110105D01*
X0023834Y0108506D02*
X0048746Y0108506D01*
X0049567Y0106908D02*
X0025310Y0106908D01*
X0026785Y0105309D02*
X0050600Y0105309D01*
X0050096Y0103711D02*
X0028261Y0103711D01*
X0029737Y0102112D02*
X0049912Y0102112D01*
X0052800Y0102689D02*
X0052800Y0109296D01*
X0052666Y0109430D01*
X0055765Y0106908D02*
X0059567Y0106908D01*
X0058746Y0108506D02*
X0056586Y0108506D01*
X0056641Y0110105D02*
X0058691Y0110105D01*
X0059318Y0111703D02*
X0056014Y0111703D01*
X0055000Y0105309D02*
X0060466Y0105309D01*
X0060444Y0103711D02*
X0055504Y0103711D01*
X0055688Y0102112D02*
X0058432Y0102112D01*
X0061482Y0098915D02*
X0146588Y0098915D01*
X0144989Y0097317D02*
X0059470Y0097317D01*
X0065765Y0106908D02*
X0069567Y0106908D01*
X0068746Y0108506D02*
X0066586Y0108506D01*
X0066641Y0110105D02*
X0068691Y0110105D01*
X0069318Y0111703D02*
X0066014Y0111703D01*
X0076014Y0111703D02*
X0089318Y0111703D01*
X0088691Y0110105D02*
X0076641Y0110105D01*
X0076586Y0108506D02*
X0088746Y0108506D01*
X0089567Y0106908D02*
X0075765Y0106908D01*
X0073457Y0125455D02*
X0071875Y0125455D01*
X0070415Y0126060D01*
X0069296Y0127178D01*
X0068691Y0128639D01*
X0068691Y0130221D01*
X0069296Y0131681D01*
X0070415Y0132800D01*
X0071875Y0133405D01*
X0073457Y0133405D01*
X0074918Y0132800D01*
X0076036Y0131681D01*
X0076641Y0130221D01*
X0076641Y0128639D01*
X0076036Y0127178D01*
X0074918Y0126060D01*
X0073457Y0125455D01*
X0074947Y0126090D02*
X0090385Y0126090D01*
X0089085Y0127688D02*
X0076247Y0127688D01*
X0076641Y0129287D02*
X0088691Y0129287D01*
X0088967Y0130885D02*
X0076366Y0130885D01*
X0075233Y0132484D02*
X0090099Y0132484D01*
X0095233Y0132484D02*
X0147063Y0132484D01*
X0145669Y0130885D02*
X0096366Y0130885D01*
X0096641Y0129287D02*
X0145669Y0129287D01*
X0159480Y0124491D02*
X0170701Y0124491D01*
X0170701Y0122893D02*
X0108324Y0122893D01*
X0108324Y0122895D02*
X0108202Y0123353D01*
X0107965Y0123763D01*
X0107630Y0124099D01*
X0107219Y0124336D01*
X0106761Y0124458D01*
X0104543Y0124458D01*
X0104543Y0120677D01*
X0108324Y0120677D01*
X0108324Y0122895D01*
X0108324Y0121294D02*
X0170701Y0121294D01*
X0170701Y0119696D02*
X0108324Y0119696D01*
X0108324Y0118097D02*
X0170701Y0118097D01*
X0170701Y0116499D02*
X0159152Y0116499D01*
X0159893Y0114900D02*
X0170701Y0114900D01*
X0170701Y0113302D02*
X0159893Y0113302D01*
X0159754Y0111703D02*
X0170701Y0111703D01*
X0170701Y0110105D02*
X0159893Y0110105D01*
X0159893Y0108506D02*
X0170701Y0108506D01*
X0170701Y0106908D02*
X0159893Y0106908D01*
X0159893Y0105309D02*
X0170701Y0105309D01*
X0170701Y0103711D02*
X0159893Y0103711D01*
X0159893Y0102112D02*
X0170701Y0102112D01*
X0170701Y0100514D02*
X0159893Y0100514D01*
X0159893Y0098915D02*
X0170701Y0098915D01*
X0170701Y0097317D02*
X0159893Y0097317D01*
X0159893Y0095718D02*
X0170701Y0095718D01*
X0170701Y0094120D02*
X0160197Y0094120D01*
X0160293Y0092521D02*
X0170701Y0092521D01*
X0170701Y0090923D02*
X0160293Y0090923D01*
X0162123Y0089324D02*
X0170701Y0089324D01*
X0170701Y0087726D02*
X0163451Y0087726D01*
X0164602Y0086127D02*
X0170701Y0086127D01*
X0170701Y0084529D02*
X0165754Y0084529D01*
X0166905Y0082930D02*
X0170701Y0082930D01*
X0170701Y0081332D02*
X0168057Y0081332D01*
X0169208Y0079733D02*
X0170701Y0079733D01*
X0170701Y0078134D02*
X0170360Y0078134D01*
X0160122Y0078134D02*
X0159236Y0078134D01*
X0159123Y0079733D02*
X0139030Y0079733D01*
X0148316Y0089324D02*
X0149219Y0089324D01*
X0154556Y0083485D02*
X0156115Y0083485D01*
X0152772Y0078134D02*
X0152403Y0078134D01*
X0152403Y0076536D02*
X0152772Y0076536D01*
X0152772Y0074937D02*
X0152403Y0074937D01*
X0152403Y0073339D02*
X0152772Y0073339D01*
X0152772Y0071740D02*
X0152403Y0071740D01*
X0143051Y0055755D02*
X0166600Y0055755D01*
X0166600Y0054157D02*
X0145661Y0054157D01*
X0141800Y0055158D02*
X0141800Y0055158D01*
X0141800Y0055755D02*
X0141800Y0055755D01*
X0149499Y0052558D02*
X0165447Y0052558D01*
X0163849Y0050960D02*
X0149499Y0050960D01*
X0149499Y0049361D02*
X0162250Y0049361D01*
X0132400Y0017391D02*
X0131200Y0017391D01*
X0131200Y0015793D02*
X0132400Y0015793D01*
X0132703Y0014194D02*
X0130897Y0014194D01*
X0105134Y0082930D02*
X0103978Y0082930D01*
X0103978Y0084529D02*
X0105134Y0084529D01*
X0105134Y0086127D02*
X0103978Y0086127D01*
X0103978Y0087726D02*
X0105134Y0087726D01*
X0105134Y0090923D02*
X0103978Y0090923D01*
X0103978Y0092521D02*
X0105134Y0092521D01*
X0105134Y0094120D02*
X0103978Y0094120D01*
X0103978Y0095718D02*
X0105134Y0095718D01*
X0108451Y0095718D02*
X0143391Y0095718D01*
X0141792Y0094120D02*
X0109112Y0094120D01*
X0109112Y0092521D02*
X0140194Y0092521D01*
X0138595Y0090923D02*
X0109112Y0090923D01*
X0100661Y0095718D02*
X0045689Y0095718D01*
X0045205Y0094120D02*
X0100000Y0094120D01*
X0103781Y0116499D02*
X0104543Y0116499D01*
X0104543Y0118097D02*
X0103781Y0118097D01*
X0103781Y0119696D02*
X0104543Y0119696D01*
X0104543Y0121294D02*
X0103781Y0121294D01*
X0103781Y0122893D02*
X0104543Y0122893D01*
X0107100Y0138878D02*
X0121500Y0138878D01*
X0119901Y0140476D02*
X0108699Y0140476D01*
X0109200Y0142075D02*
X0119400Y0142075D01*
X0119400Y0143673D02*
X0109200Y0143673D01*
X0108551Y0145272D02*
X0120049Y0145272D01*
X0121648Y0146870D02*
X0106952Y0146870D01*
X0070099Y0132484D02*
X0065233Y0132484D01*
X0066366Y0130885D02*
X0068967Y0130885D01*
X0068691Y0129287D02*
X0066641Y0129287D01*
X0066247Y0127688D02*
X0069085Y0127688D01*
X0070385Y0126090D02*
X0064947Y0126090D01*
X0019998Y0087726D02*
X0012600Y0087726D01*
X0012600Y0089324D02*
X0018666Y0089324D01*
X0021330Y0086127D02*
X0012600Y0086127D01*
X0012600Y0090923D02*
X0014455Y0090923D01*
X0013400Y0092521D02*
X0012600Y0092521D01*
X0027800Y0069683D02*
X0036683Y0061800D01*
M02*
