%
M48
M72
T01C0.01378
T02C0.03150
T03C0.04000
T04C0.08268
%
T01
X44800Y36800
X62800Y19800
X104800Y19800
X130800Y31800
X141800Y31800
X151800Y35800
X165800Y27800
X128800Y65800
X106800Y59800
X117800Y44800
X81800Y58800
X52800Y81800
X42800Y95800
X52800Y102689
X79800Y117800
X80800Y141800
X48800Y142800
X80800Y88800
X51800Y58800
X117800Y92800
X130800Y112800
X145800Y90800
X164800Y74800
X164800Y141800
T02
X92666Y129430
X72666Y129430
X62666Y129430
X52666Y129430
X52666Y109430
X62666Y109430
X72666Y109430
X92666Y109430
X82934Y69170
X72934Y69170
X62934Y69170
X42934Y69170
X42934Y49170
X62934Y49170
X72934Y49170
X82934Y49170
T03
X17800Y18800
X17800Y28800
X17800Y43800
X17800Y53800
X17800Y68800
X17800Y78800
X17800Y93800
X17800Y113800
X17800Y127800
X17800Y137800
X104800Y142800
X123800Y142800
X141800Y142800
X151800Y142800
X146800Y18800
X156800Y18800
X136800Y18800
X126800Y18800
X89800Y17800
X79800Y17800
T04
X46800Y21800
X117800Y54800
X66800Y84800
M30
