G75*
%MOIN*%
%OFA0B0*%
%FSLAX25Y25*%
%IPPOS*%
%LPD*%
%AMOC8*
5,1,8,0,0,1.08239X$1,22.5*
%
%ADD10C,0.00000*%
D10*
X0007800Y0007800D02*
X0007800Y0153761D01*
X0175501Y0153761D01*
X0175501Y0007800D01*
X0007800Y0007800D01*
X0042666Y0021800D02*
X0042668Y0021928D01*
X0042674Y0022056D01*
X0042684Y0022183D01*
X0042698Y0022311D01*
X0042715Y0022437D01*
X0042737Y0022563D01*
X0042763Y0022689D01*
X0042792Y0022813D01*
X0042825Y0022937D01*
X0042862Y0023059D01*
X0042903Y0023180D01*
X0042948Y0023300D01*
X0042996Y0023419D01*
X0043048Y0023536D01*
X0043104Y0023651D01*
X0043163Y0023765D01*
X0043225Y0023876D01*
X0043291Y0023986D01*
X0043360Y0024093D01*
X0043433Y0024199D01*
X0043509Y0024302D01*
X0043588Y0024402D01*
X0043670Y0024501D01*
X0043755Y0024596D01*
X0043843Y0024689D01*
X0043934Y0024779D01*
X0044027Y0024866D01*
X0044124Y0024951D01*
X0044222Y0025032D01*
X0044324Y0025110D01*
X0044427Y0025185D01*
X0044533Y0025257D01*
X0044641Y0025326D01*
X0044751Y0025391D01*
X0044864Y0025452D01*
X0044978Y0025511D01*
X0045093Y0025565D01*
X0045211Y0025616D01*
X0045329Y0025664D01*
X0045450Y0025707D01*
X0045571Y0025747D01*
X0045694Y0025783D01*
X0045818Y0025816D01*
X0045943Y0025844D01*
X0046068Y0025869D01*
X0046194Y0025889D01*
X0046321Y0025906D01*
X0046449Y0025919D01*
X0046576Y0025928D01*
X0046704Y0025933D01*
X0046832Y0025934D01*
X0046960Y0025931D01*
X0047088Y0025924D01*
X0047215Y0025913D01*
X0047342Y0025898D01*
X0047469Y0025880D01*
X0047595Y0025857D01*
X0047720Y0025830D01*
X0047844Y0025800D01*
X0047967Y0025766D01*
X0048090Y0025728D01*
X0048211Y0025686D01*
X0048330Y0025640D01*
X0048448Y0025591D01*
X0048565Y0025538D01*
X0048680Y0025482D01*
X0048793Y0025422D01*
X0048904Y0025359D01*
X0049013Y0025292D01*
X0049120Y0025222D01*
X0049225Y0025148D01*
X0049327Y0025072D01*
X0049427Y0024992D01*
X0049525Y0024909D01*
X0049620Y0024823D01*
X0049712Y0024734D01*
X0049801Y0024643D01*
X0049888Y0024549D01*
X0049971Y0024452D01*
X0050052Y0024352D01*
X0050129Y0024251D01*
X0050204Y0024146D01*
X0050275Y0024040D01*
X0050342Y0023931D01*
X0050407Y0023821D01*
X0050467Y0023708D01*
X0050525Y0023594D01*
X0050578Y0023478D01*
X0050628Y0023360D01*
X0050675Y0023241D01*
X0050718Y0023120D01*
X0050757Y0022998D01*
X0050792Y0022875D01*
X0050823Y0022751D01*
X0050851Y0022626D01*
X0050874Y0022500D01*
X0050894Y0022374D01*
X0050910Y0022247D01*
X0050922Y0022120D01*
X0050930Y0021992D01*
X0050934Y0021864D01*
X0050934Y0021736D01*
X0050930Y0021608D01*
X0050922Y0021480D01*
X0050910Y0021353D01*
X0050894Y0021226D01*
X0050874Y0021100D01*
X0050851Y0020974D01*
X0050823Y0020849D01*
X0050792Y0020725D01*
X0050757Y0020602D01*
X0050718Y0020480D01*
X0050675Y0020359D01*
X0050628Y0020240D01*
X0050578Y0020122D01*
X0050525Y0020006D01*
X0050467Y0019892D01*
X0050407Y0019779D01*
X0050342Y0019669D01*
X0050275Y0019560D01*
X0050204Y0019454D01*
X0050129Y0019349D01*
X0050052Y0019248D01*
X0049971Y0019148D01*
X0049888Y0019051D01*
X0049801Y0018957D01*
X0049712Y0018866D01*
X0049620Y0018777D01*
X0049525Y0018691D01*
X0049427Y0018608D01*
X0049327Y0018528D01*
X0049225Y0018452D01*
X0049120Y0018378D01*
X0049013Y0018308D01*
X0048904Y0018241D01*
X0048793Y0018178D01*
X0048680Y0018118D01*
X0048565Y0018062D01*
X0048448Y0018009D01*
X0048330Y0017960D01*
X0048211Y0017914D01*
X0048090Y0017872D01*
X0047967Y0017834D01*
X0047844Y0017800D01*
X0047720Y0017770D01*
X0047595Y0017743D01*
X0047469Y0017720D01*
X0047342Y0017702D01*
X0047215Y0017687D01*
X0047088Y0017676D01*
X0046960Y0017669D01*
X0046832Y0017666D01*
X0046704Y0017667D01*
X0046576Y0017672D01*
X0046449Y0017681D01*
X0046321Y0017694D01*
X0046194Y0017711D01*
X0046068Y0017731D01*
X0045943Y0017756D01*
X0045818Y0017784D01*
X0045694Y0017817D01*
X0045571Y0017853D01*
X0045450Y0017893D01*
X0045329Y0017936D01*
X0045211Y0017984D01*
X0045093Y0018035D01*
X0044978Y0018089D01*
X0044864Y0018148D01*
X0044751Y0018209D01*
X0044641Y0018274D01*
X0044533Y0018343D01*
X0044427Y0018415D01*
X0044324Y0018490D01*
X0044222Y0018568D01*
X0044124Y0018649D01*
X0044027Y0018734D01*
X0043934Y0018821D01*
X0043843Y0018911D01*
X0043755Y0019004D01*
X0043670Y0019099D01*
X0043588Y0019198D01*
X0043509Y0019298D01*
X0043433Y0019401D01*
X0043360Y0019507D01*
X0043291Y0019614D01*
X0043225Y0019724D01*
X0043163Y0019835D01*
X0043104Y0019949D01*
X0043048Y0020064D01*
X0042996Y0020181D01*
X0042948Y0020300D01*
X0042903Y0020420D01*
X0042862Y0020541D01*
X0042825Y0020663D01*
X0042792Y0020787D01*
X0042763Y0020911D01*
X0042737Y0021037D01*
X0042715Y0021163D01*
X0042698Y0021289D01*
X0042684Y0021417D01*
X0042674Y0021544D01*
X0042668Y0021672D01*
X0042666Y0021800D01*
X0062666Y0084800D02*
X0062668Y0084928D01*
X0062674Y0085056D01*
X0062684Y0085183D01*
X0062698Y0085311D01*
X0062715Y0085437D01*
X0062737Y0085563D01*
X0062763Y0085689D01*
X0062792Y0085813D01*
X0062825Y0085937D01*
X0062862Y0086059D01*
X0062903Y0086180D01*
X0062948Y0086300D01*
X0062996Y0086419D01*
X0063048Y0086536D01*
X0063104Y0086651D01*
X0063163Y0086765D01*
X0063225Y0086876D01*
X0063291Y0086986D01*
X0063360Y0087093D01*
X0063433Y0087199D01*
X0063509Y0087302D01*
X0063588Y0087402D01*
X0063670Y0087501D01*
X0063755Y0087596D01*
X0063843Y0087689D01*
X0063934Y0087779D01*
X0064027Y0087866D01*
X0064124Y0087951D01*
X0064222Y0088032D01*
X0064324Y0088110D01*
X0064427Y0088185D01*
X0064533Y0088257D01*
X0064641Y0088326D01*
X0064751Y0088391D01*
X0064864Y0088452D01*
X0064978Y0088511D01*
X0065093Y0088565D01*
X0065211Y0088616D01*
X0065329Y0088664D01*
X0065450Y0088707D01*
X0065571Y0088747D01*
X0065694Y0088783D01*
X0065818Y0088816D01*
X0065943Y0088844D01*
X0066068Y0088869D01*
X0066194Y0088889D01*
X0066321Y0088906D01*
X0066449Y0088919D01*
X0066576Y0088928D01*
X0066704Y0088933D01*
X0066832Y0088934D01*
X0066960Y0088931D01*
X0067088Y0088924D01*
X0067215Y0088913D01*
X0067342Y0088898D01*
X0067469Y0088880D01*
X0067595Y0088857D01*
X0067720Y0088830D01*
X0067844Y0088800D01*
X0067967Y0088766D01*
X0068090Y0088728D01*
X0068211Y0088686D01*
X0068330Y0088640D01*
X0068448Y0088591D01*
X0068565Y0088538D01*
X0068680Y0088482D01*
X0068793Y0088422D01*
X0068904Y0088359D01*
X0069013Y0088292D01*
X0069120Y0088222D01*
X0069225Y0088148D01*
X0069327Y0088072D01*
X0069427Y0087992D01*
X0069525Y0087909D01*
X0069620Y0087823D01*
X0069712Y0087734D01*
X0069801Y0087643D01*
X0069888Y0087549D01*
X0069971Y0087452D01*
X0070052Y0087352D01*
X0070129Y0087251D01*
X0070204Y0087146D01*
X0070275Y0087040D01*
X0070342Y0086931D01*
X0070407Y0086821D01*
X0070467Y0086708D01*
X0070525Y0086594D01*
X0070578Y0086478D01*
X0070628Y0086360D01*
X0070675Y0086241D01*
X0070718Y0086120D01*
X0070757Y0085998D01*
X0070792Y0085875D01*
X0070823Y0085751D01*
X0070851Y0085626D01*
X0070874Y0085500D01*
X0070894Y0085374D01*
X0070910Y0085247D01*
X0070922Y0085120D01*
X0070930Y0084992D01*
X0070934Y0084864D01*
X0070934Y0084736D01*
X0070930Y0084608D01*
X0070922Y0084480D01*
X0070910Y0084353D01*
X0070894Y0084226D01*
X0070874Y0084100D01*
X0070851Y0083974D01*
X0070823Y0083849D01*
X0070792Y0083725D01*
X0070757Y0083602D01*
X0070718Y0083480D01*
X0070675Y0083359D01*
X0070628Y0083240D01*
X0070578Y0083122D01*
X0070525Y0083006D01*
X0070467Y0082892D01*
X0070407Y0082779D01*
X0070342Y0082669D01*
X0070275Y0082560D01*
X0070204Y0082454D01*
X0070129Y0082349D01*
X0070052Y0082248D01*
X0069971Y0082148D01*
X0069888Y0082051D01*
X0069801Y0081957D01*
X0069712Y0081866D01*
X0069620Y0081777D01*
X0069525Y0081691D01*
X0069427Y0081608D01*
X0069327Y0081528D01*
X0069225Y0081452D01*
X0069120Y0081378D01*
X0069013Y0081308D01*
X0068904Y0081241D01*
X0068793Y0081178D01*
X0068680Y0081118D01*
X0068565Y0081062D01*
X0068448Y0081009D01*
X0068330Y0080960D01*
X0068211Y0080914D01*
X0068090Y0080872D01*
X0067967Y0080834D01*
X0067844Y0080800D01*
X0067720Y0080770D01*
X0067595Y0080743D01*
X0067469Y0080720D01*
X0067342Y0080702D01*
X0067215Y0080687D01*
X0067088Y0080676D01*
X0066960Y0080669D01*
X0066832Y0080666D01*
X0066704Y0080667D01*
X0066576Y0080672D01*
X0066449Y0080681D01*
X0066321Y0080694D01*
X0066194Y0080711D01*
X0066068Y0080731D01*
X0065943Y0080756D01*
X0065818Y0080784D01*
X0065694Y0080817D01*
X0065571Y0080853D01*
X0065450Y0080893D01*
X0065329Y0080936D01*
X0065211Y0080984D01*
X0065093Y0081035D01*
X0064978Y0081089D01*
X0064864Y0081148D01*
X0064751Y0081209D01*
X0064641Y0081274D01*
X0064533Y0081343D01*
X0064427Y0081415D01*
X0064324Y0081490D01*
X0064222Y0081568D01*
X0064124Y0081649D01*
X0064027Y0081734D01*
X0063934Y0081821D01*
X0063843Y0081911D01*
X0063755Y0082004D01*
X0063670Y0082099D01*
X0063588Y0082198D01*
X0063509Y0082298D01*
X0063433Y0082401D01*
X0063360Y0082507D01*
X0063291Y0082614D01*
X0063225Y0082724D01*
X0063163Y0082835D01*
X0063104Y0082949D01*
X0063048Y0083064D01*
X0062996Y0083181D01*
X0062948Y0083300D01*
X0062903Y0083420D01*
X0062862Y0083541D01*
X0062825Y0083663D01*
X0062792Y0083787D01*
X0062763Y0083911D01*
X0062737Y0084037D01*
X0062715Y0084163D01*
X0062698Y0084289D01*
X0062684Y0084417D01*
X0062674Y0084544D01*
X0062668Y0084672D01*
X0062666Y0084800D01*
X0113666Y0054800D02*
X0113668Y0054928D01*
X0113674Y0055056D01*
X0113684Y0055183D01*
X0113698Y0055311D01*
X0113715Y0055437D01*
X0113737Y0055563D01*
X0113763Y0055689D01*
X0113792Y0055813D01*
X0113825Y0055937D01*
X0113862Y0056059D01*
X0113903Y0056180D01*
X0113948Y0056300D01*
X0113996Y0056419D01*
X0114048Y0056536D01*
X0114104Y0056651D01*
X0114163Y0056765D01*
X0114225Y0056876D01*
X0114291Y0056986D01*
X0114360Y0057093D01*
X0114433Y0057199D01*
X0114509Y0057302D01*
X0114588Y0057402D01*
X0114670Y0057501D01*
X0114755Y0057596D01*
X0114843Y0057689D01*
X0114934Y0057779D01*
X0115027Y0057866D01*
X0115124Y0057951D01*
X0115222Y0058032D01*
X0115324Y0058110D01*
X0115427Y0058185D01*
X0115533Y0058257D01*
X0115641Y0058326D01*
X0115751Y0058391D01*
X0115864Y0058452D01*
X0115978Y0058511D01*
X0116093Y0058565D01*
X0116211Y0058616D01*
X0116329Y0058664D01*
X0116450Y0058707D01*
X0116571Y0058747D01*
X0116694Y0058783D01*
X0116818Y0058816D01*
X0116943Y0058844D01*
X0117068Y0058869D01*
X0117194Y0058889D01*
X0117321Y0058906D01*
X0117449Y0058919D01*
X0117576Y0058928D01*
X0117704Y0058933D01*
X0117832Y0058934D01*
X0117960Y0058931D01*
X0118088Y0058924D01*
X0118215Y0058913D01*
X0118342Y0058898D01*
X0118469Y0058880D01*
X0118595Y0058857D01*
X0118720Y0058830D01*
X0118844Y0058800D01*
X0118967Y0058766D01*
X0119090Y0058728D01*
X0119211Y0058686D01*
X0119330Y0058640D01*
X0119448Y0058591D01*
X0119565Y0058538D01*
X0119680Y0058482D01*
X0119793Y0058422D01*
X0119904Y0058359D01*
X0120013Y0058292D01*
X0120120Y0058222D01*
X0120225Y0058148D01*
X0120327Y0058072D01*
X0120427Y0057992D01*
X0120525Y0057909D01*
X0120620Y0057823D01*
X0120712Y0057734D01*
X0120801Y0057643D01*
X0120888Y0057549D01*
X0120971Y0057452D01*
X0121052Y0057352D01*
X0121129Y0057251D01*
X0121204Y0057146D01*
X0121275Y0057040D01*
X0121342Y0056931D01*
X0121407Y0056821D01*
X0121467Y0056708D01*
X0121525Y0056594D01*
X0121578Y0056478D01*
X0121628Y0056360D01*
X0121675Y0056241D01*
X0121718Y0056120D01*
X0121757Y0055998D01*
X0121792Y0055875D01*
X0121823Y0055751D01*
X0121851Y0055626D01*
X0121874Y0055500D01*
X0121894Y0055374D01*
X0121910Y0055247D01*
X0121922Y0055120D01*
X0121930Y0054992D01*
X0121934Y0054864D01*
X0121934Y0054736D01*
X0121930Y0054608D01*
X0121922Y0054480D01*
X0121910Y0054353D01*
X0121894Y0054226D01*
X0121874Y0054100D01*
X0121851Y0053974D01*
X0121823Y0053849D01*
X0121792Y0053725D01*
X0121757Y0053602D01*
X0121718Y0053480D01*
X0121675Y0053359D01*
X0121628Y0053240D01*
X0121578Y0053122D01*
X0121525Y0053006D01*
X0121467Y0052892D01*
X0121407Y0052779D01*
X0121342Y0052669D01*
X0121275Y0052560D01*
X0121204Y0052454D01*
X0121129Y0052349D01*
X0121052Y0052248D01*
X0120971Y0052148D01*
X0120888Y0052051D01*
X0120801Y0051957D01*
X0120712Y0051866D01*
X0120620Y0051777D01*
X0120525Y0051691D01*
X0120427Y0051608D01*
X0120327Y0051528D01*
X0120225Y0051452D01*
X0120120Y0051378D01*
X0120013Y0051308D01*
X0119904Y0051241D01*
X0119793Y0051178D01*
X0119680Y0051118D01*
X0119565Y0051062D01*
X0119448Y0051009D01*
X0119330Y0050960D01*
X0119211Y0050914D01*
X0119090Y0050872D01*
X0118967Y0050834D01*
X0118844Y0050800D01*
X0118720Y0050770D01*
X0118595Y0050743D01*
X0118469Y0050720D01*
X0118342Y0050702D01*
X0118215Y0050687D01*
X0118088Y0050676D01*
X0117960Y0050669D01*
X0117832Y0050666D01*
X0117704Y0050667D01*
X0117576Y0050672D01*
X0117449Y0050681D01*
X0117321Y0050694D01*
X0117194Y0050711D01*
X0117068Y0050731D01*
X0116943Y0050756D01*
X0116818Y0050784D01*
X0116694Y0050817D01*
X0116571Y0050853D01*
X0116450Y0050893D01*
X0116329Y0050936D01*
X0116211Y0050984D01*
X0116093Y0051035D01*
X0115978Y0051089D01*
X0115864Y0051148D01*
X0115751Y0051209D01*
X0115641Y0051274D01*
X0115533Y0051343D01*
X0115427Y0051415D01*
X0115324Y0051490D01*
X0115222Y0051568D01*
X0115124Y0051649D01*
X0115027Y0051734D01*
X0114934Y0051821D01*
X0114843Y0051911D01*
X0114755Y0052004D01*
X0114670Y0052099D01*
X0114588Y0052198D01*
X0114509Y0052298D01*
X0114433Y0052401D01*
X0114360Y0052507D01*
X0114291Y0052614D01*
X0114225Y0052724D01*
X0114163Y0052835D01*
X0114104Y0052949D01*
X0114048Y0053064D01*
X0113996Y0053181D01*
X0113948Y0053300D01*
X0113903Y0053420D01*
X0113862Y0053541D01*
X0113825Y0053663D01*
X0113792Y0053787D01*
X0113763Y0053911D01*
X0113737Y0054037D01*
X0113715Y0054163D01*
X0113698Y0054289D01*
X0113684Y0054417D01*
X0113674Y0054544D01*
X0113668Y0054672D01*
X0113666Y0054800D01*
M02*
