G75*
%MOIN*%
%OFA0B0*%
%FSLAX25Y25*%
%IPPOS*%
%LPD*%
%AMOC8*
5,1,8,0,0,1.08239X$1,22.5*
%
%ADD10R,0.00984X0.02657*%
%ADD11R,0.02657X0.00984*%
%ADD12R,0.10236X0.03937*%
%ADD13R,0.07874X0.02756*%
%ADD14R,0.10236X0.05906*%
%ADD15R,0.05512X0.10630*%
%ADD16R,0.04724X0.04724*%
%ADD17C,0.00740*%
%ADD18R,0.03937X0.05512*%
%ADD19R,0.03937X0.04331*%
D10*
X0115231Y0056914D03*
X0117200Y0056914D03*
X0119169Y0056914D03*
X0119169Y0064886D03*
X0117200Y0064886D03*
X0115231Y0064886D03*
D11*
X0112230Y0063853D03*
X0112230Y0061884D03*
X0112230Y0059916D03*
X0112230Y0057947D03*
X0122170Y0057947D03*
X0122170Y0059916D03*
X0122170Y0061884D03*
X0122170Y0063853D03*
D12*
X0140087Y0094717D03*
D13*
X0142056Y0102985D03*
X0142056Y0107316D03*
X0142056Y0111646D03*
X0142056Y0115977D03*
X0142056Y0120308D03*
X0142056Y0124639D03*
X0142056Y0128969D03*
X0142056Y0133300D03*
D14*
X0140087Y0147276D03*
D15*
X0092056Y0127788D03*
X0092056Y0108497D03*
D16*
X0091662Y0139796D03*
D17*
X0092210Y0062938D02*
X0095170Y0062938D01*
X0095170Y0059662D01*
X0092210Y0059662D01*
X0092210Y0062938D01*
X0092210Y0060401D02*
X0095170Y0060401D01*
X0095170Y0061140D02*
X0092210Y0061140D01*
X0092210Y0061879D02*
X0095170Y0061879D01*
X0095170Y0062618D02*
X0092210Y0062618D01*
X0098430Y0062938D02*
X0101390Y0062938D01*
X0101390Y0059662D01*
X0098430Y0059662D01*
X0098430Y0062938D01*
X0098430Y0060401D02*
X0101390Y0060401D01*
X0101390Y0061140D02*
X0098430Y0061140D01*
X0098430Y0061879D02*
X0101390Y0061879D01*
X0101390Y0062618D02*
X0098430Y0062618D01*
X0098230Y0051362D02*
X0101190Y0051362D01*
X0098230Y0051362D02*
X0098230Y0054638D01*
X0101190Y0054638D01*
X0101190Y0051362D01*
X0101190Y0052101D02*
X0098230Y0052101D01*
X0098230Y0052840D02*
X0101190Y0052840D01*
X0101190Y0053579D02*
X0098230Y0053579D01*
X0098230Y0054318D02*
X0101190Y0054318D01*
X0094970Y0051362D02*
X0092010Y0051362D01*
X0092010Y0054638D01*
X0094970Y0054638D01*
X0094970Y0051362D01*
X0094970Y0052101D02*
X0092010Y0052101D01*
X0092010Y0052840D02*
X0094970Y0052840D01*
X0094970Y0053579D02*
X0092010Y0053579D01*
X0092010Y0054318D02*
X0094970Y0054318D01*
D18*
X0037800Y0076969D03*
X0034060Y0085631D03*
X0041540Y0085631D03*
X0072560Y0086131D03*
X0080040Y0086131D03*
X0076300Y0077469D03*
D19*
X0112954Y0078800D03*
X0119646Y0078800D03*
M02*
