M48
;DRILL file {KiCad 4.0.7} date 04/20/18 18:40:34
;FORMAT={-:-/ absolute / inch / decimal}
FMAT,2
INCH,TZ
T1C0.016
T2C0.026
%
G90
G05
M72
T1
X4.791Y-4.028
X4.845Y-3.524
X5.041Y-3.3935
X5.052Y-3.667
X5.0855Y-4.044
X5.156Y-3.556
X5.1575Y-3.8175
X5.3065Y-4.017
X5.3095Y-3.4775
X5.346Y-3.63
X5.399Y-3.683
X5.421Y-3.971
X5.4295Y-3.481
X5.477Y-3.876
X5.554Y-3.725
X5.5735Y-3.5815
X5.593Y-3.739
X5.62Y-3.762
X5.663Y-3.78
X5.666Y-3.731
X5.7375Y-3.623
X5.7795Y-3.494
X5.8375Y-3.8945
X5.885Y-3.5855
T2
X5.561Y-3.971
X5.561Y-4.021
X5.572Y-3.391
X5.611Y-3.971
X5.611Y-4.021
X5.622Y-3.391
X5.661Y-3.971
X5.661Y-4.021
X5.711Y-3.971
X5.711Y-4.021
X5.722Y-3.389
X5.761Y-3.971
X5.761Y-4.021
X5.819Y-3.389
X5.869Y-3.389
T0
M30
