G04 #@! TF.FileFunction,Soldermask,Top*
%FSLAX46Y46*%
G04 Gerber Fmt 4.6, Leading zero omitted, Abs format (unit mm)*
G04 Created by KiCad (PCBNEW 4.0.7) date 04/20/18 18:40:26*
%MOMM*%
%LPD*%
G01*
G04 APERTURE LIST*
%ADD10C,0.100000*%
%ADD11R,0.750000X0.800000*%
%ADD12R,1.500000X0.800000*%
%ADD13R,2.000000X1.450000*%
%ADD14R,1.000000X1.000000*%
%ADD15O,1.000000X1.000000*%
%ADD16R,0.900000X0.500000*%
%ADD17R,1.560000X0.280000*%
%ADD18R,0.280000X1.560000*%
G04 APERTURE END LIST*
D10*
D11*
X139547600Y-85356000D03*
X139547600Y-86856000D03*
D12*
X126720000Y-96175500D03*
X126720000Y-95075500D03*
X126720000Y-93975500D03*
X126720000Y-92875500D03*
X126720000Y-91775500D03*
X126720000Y-90675500D03*
X126720000Y-89575500D03*
X126720000Y-88475500D03*
D13*
X132420000Y-99775500D03*
X124120000Y-99775500D03*
X132420000Y-86025500D03*
X124120000Y-86025500D03*
D14*
X141249400Y-102133400D03*
D15*
X141249400Y-100863400D03*
X142519400Y-102133400D03*
X142519400Y-100863400D03*
X143789400Y-102133400D03*
X143789400Y-100863400D03*
X145059400Y-102133400D03*
X145059400Y-100863400D03*
X146329400Y-102133400D03*
X146329400Y-100863400D03*
D14*
X145338800Y-86080600D03*
X149072600Y-86080600D03*
D15*
X147802600Y-86080600D03*
D14*
X141528800Y-86131400D03*
D15*
X142798800Y-86131400D03*
D16*
X149453600Y-96152400D03*
X149453600Y-94652400D03*
X137922000Y-86957600D03*
X137922000Y-85457600D03*
X149453600Y-91909200D03*
X149453600Y-93409200D03*
D17*
X138695000Y-90849000D03*
X138695000Y-91349000D03*
X138695000Y-91849000D03*
X138695000Y-92349000D03*
X138695000Y-92849000D03*
X138695000Y-93349000D03*
X138695000Y-93849000D03*
X138695000Y-94349000D03*
X138695000Y-94849000D03*
X138695000Y-95349000D03*
X138695000Y-95849000D03*
X138695000Y-96349000D03*
D18*
X140125000Y-97779000D03*
X140625000Y-97779000D03*
X141125000Y-97779000D03*
X141625000Y-97779000D03*
X142125000Y-97779000D03*
X142625000Y-97779000D03*
X143125000Y-97779000D03*
X143625000Y-97779000D03*
X144125000Y-97779000D03*
X144625000Y-97779000D03*
X145125000Y-97779000D03*
X145625000Y-97779000D03*
D17*
X147055000Y-96349000D03*
X147055000Y-95849000D03*
X147055000Y-95349000D03*
X147055000Y-94849000D03*
X147055000Y-94349000D03*
X147055000Y-93849000D03*
X147055000Y-93349000D03*
X147055000Y-92849000D03*
X147055000Y-92349000D03*
X147055000Y-91849000D03*
X147055000Y-91349000D03*
X147055000Y-90849000D03*
D18*
X145625000Y-89419000D03*
X145125000Y-89419000D03*
X144625000Y-89419000D03*
X144125000Y-89419000D03*
X143625000Y-89419000D03*
X143125000Y-89419000D03*
X142625000Y-89419000D03*
X142125000Y-89419000D03*
X141625000Y-89419000D03*
X141125000Y-89419000D03*
X140625000Y-89419000D03*
X140125000Y-89419000D03*
M02*
