G04 #@! TF.FileFunction,Copper,L2,Bot,Signal*
%FSLAX46Y46*%
G04 Gerber Fmt 4.6, Leading zero omitted, Abs format (unit mm)*
G04 Created by KiCad (PCBNEW 4.0.7) date 04/20/18 18:40:26*
%MOMM*%
%LPD*%
G01*
G04 APERTURE LIST*
%ADD10C,0.100000*%
%ADD11R,1.000000X1.000000*%
%ADD12O,1.000000X1.000000*%
%ADD13C,0.600000*%
%ADD14C,0.203200*%
%ADD15C,0.304800*%
%ADD16C,0.254000*%
G04 APERTURE END LIST*
D10*
D11*
X141249400Y-102133400D03*
D12*
X141249400Y-100863400D03*
X142519400Y-102133400D03*
X142519400Y-100863400D03*
X143789400Y-102133400D03*
X143789400Y-100863400D03*
X145059400Y-102133400D03*
X145059400Y-100863400D03*
X146329400Y-102133400D03*
X146329400Y-100863400D03*
D11*
X145338800Y-86080600D03*
X149072600Y-86080600D03*
D12*
X147802600Y-86080600D03*
D11*
X141528800Y-86131400D03*
D12*
X142798800Y-86131400D03*
D13*
X146799300Y-88747600D03*
X137693400Y-100863400D03*
X134785100Y-102031800D03*
X135788400Y-92202000D03*
X134861300Y-88328500D03*
X130962400Y-90322400D03*
X128041400Y-86194900D03*
X123063000Y-89509600D03*
X121691400Y-102311200D03*
X129171700Y-102717600D03*
X131000500Y-96964500D03*
X148272500Y-98920300D03*
X149479000Y-91071700D03*
X145732500Y-92024200D03*
X128320800Y-93141800D03*
X139115800Y-98450400D03*
X137134600Y-93548200D03*
X143840200Y-96012000D03*
X143916400Y-94767400D03*
X142748000Y-95554800D03*
X141071600Y-94615000D03*
X142062200Y-94970600D03*
X137909300Y-88417400D03*
X141566900Y-90970100D03*
D14*
X147370800Y-89319100D02*
X147370800Y-90385900D01*
X146799300Y-88747600D02*
X147370800Y-89319100D01*
X135953500Y-100863400D02*
X137693400Y-100863400D01*
X134785100Y-102031800D02*
X135953500Y-100863400D01*
X135788400Y-89255600D02*
X135788400Y-92202000D01*
X134861300Y-88328500D02*
X135788400Y-89255600D01*
X130962400Y-89115900D02*
X130962400Y-90322400D01*
X128041400Y-86194900D02*
X130962400Y-89115900D01*
X123063000Y-100939600D02*
X123063000Y-89509600D01*
X121691400Y-102311200D02*
X123063000Y-100939600D01*
X129171700Y-98793300D02*
X129171700Y-102717600D01*
X131000500Y-96964500D02*
X129171700Y-98793300D01*
X145732500Y-92024200D02*
X145732500Y-96380300D01*
X145732500Y-96380300D02*
X148272500Y-98920300D01*
X147802600Y-89395300D02*
X147802600Y-86080600D01*
X149479000Y-91071700D02*
X147802600Y-89395300D01*
X145732500Y-92024200D02*
X147370800Y-90385900D01*
D15*
X141249400Y-102133400D02*
X139649200Y-102133400D01*
X139115800Y-101600000D02*
X139115800Y-98450400D01*
X139649200Y-102133400D02*
X139115800Y-101600000D01*
X137134600Y-93548200D02*
X135229600Y-93548200D01*
X134823200Y-93141800D02*
X128320800Y-93141800D01*
X135229600Y-93548200D02*
X134823200Y-93141800D01*
X137134600Y-93548200D02*
X137134600Y-96469200D01*
X139115800Y-98450400D02*
X137134600Y-96469200D01*
D14*
X141249400Y-100863400D02*
X141249400Y-98602800D01*
X141249400Y-98602800D02*
X143840200Y-96012000D01*
X144678400Y-98882200D02*
X143840200Y-99720400D01*
X144678400Y-95529400D02*
X144678400Y-98882200D01*
X143916400Y-94767400D02*
X144678400Y-95529400D01*
X142519400Y-100863400D02*
X142519400Y-100152200D01*
X145059400Y-102679500D02*
X145059400Y-102133400D01*
X145503900Y-103124000D02*
X145059400Y-102679500D01*
X146799300Y-103124000D02*
X145503900Y-103124000D01*
X147281900Y-102641400D02*
X146799300Y-103124000D01*
X147281900Y-100482400D02*
X147281900Y-102641400D01*
X146519900Y-99720400D02*
X147281900Y-100482400D01*
X142951200Y-99720400D02*
X143840200Y-99720400D01*
X143840200Y-99720400D02*
X146519900Y-99720400D01*
X142519400Y-100152200D02*
X142951200Y-99720400D01*
X143256000Y-88163400D02*
X145338800Y-86080600D01*
X143256000Y-95046800D02*
X143256000Y-88163400D01*
X142748000Y-95554800D02*
X143256000Y-95046800D01*
X142303500Y-87820500D02*
X142303500Y-86906100D01*
X141109700Y-94678500D02*
X142303500Y-93484700D01*
X142303500Y-93484700D02*
X142303500Y-87820500D01*
X142303500Y-86906100D02*
X141528800Y-86131400D01*
X142798800Y-94234000D02*
X142798800Y-86131400D01*
X142062200Y-94970600D02*
X142798800Y-94234000D01*
X142849600Y-86182200D02*
X142798800Y-86131400D01*
D15*
X137909300Y-89001600D02*
X137909300Y-88417400D01*
X139877800Y-90970100D02*
X137909300Y-89001600D01*
X140931900Y-90970100D02*
X139877800Y-90970100D01*
X141566900Y-90970100D02*
X140931900Y-90970100D01*
D16*
G36*
X151536400Y-104165400D02*
X120294400Y-104165400D01*
X120294400Y-93326967D01*
X127385638Y-93326967D01*
X127527683Y-93670743D01*
X127790473Y-93933992D01*
X128134001Y-94076638D01*
X128505967Y-94076962D01*
X128849743Y-93934917D01*
X128855470Y-93929200D01*
X134497048Y-93929200D01*
X134672824Y-94104976D01*
X134928275Y-94275663D01*
X135229600Y-94335600D01*
X136347200Y-94335600D01*
X136347200Y-96469200D01*
X136407137Y-96770525D01*
X136577824Y-97025976D01*
X138180644Y-98628796D01*
X138180638Y-98635567D01*
X138322683Y-98979343D01*
X138328400Y-98985070D01*
X138328400Y-101600000D01*
X138388337Y-101901325D01*
X138559024Y-102156776D01*
X139092424Y-102690176D01*
X139347875Y-102860863D01*
X139649200Y-102920801D01*
X139649205Y-102920800D01*
X140179752Y-102920800D01*
X140285310Y-103084841D01*
X140497510Y-103229831D01*
X140749400Y-103280840D01*
X141749400Y-103280840D01*
X141984717Y-103236562D01*
X142084432Y-103172397D01*
X142217526Y-103227519D01*
X142392400Y-103101354D01*
X142392400Y-102655325D01*
X142396840Y-102633400D01*
X142396840Y-102260400D01*
X142646400Y-102260400D01*
X142646400Y-103101354D01*
X142821274Y-103227519D01*
X143079609Y-103120527D01*
X143154400Y-103055911D01*
X143229191Y-103120527D01*
X143487526Y-103227519D01*
X143662400Y-103101354D01*
X143662400Y-102260400D01*
X142646400Y-102260400D01*
X142396840Y-102260400D01*
X142396840Y-101996257D01*
X142519400Y-102020636D01*
X142646400Y-101995374D01*
X142646400Y-102006400D01*
X143662400Y-102006400D01*
X143662400Y-101995374D01*
X143789400Y-102020636D01*
X143916400Y-101995374D01*
X143916400Y-102006400D01*
X143936400Y-102006400D01*
X143936400Y-102050836D01*
X143924400Y-102111164D01*
X143924400Y-102155636D01*
X143936400Y-102215964D01*
X143936400Y-102260400D01*
X143916400Y-102260400D01*
X143916400Y-103101354D01*
X144091274Y-103227519D01*
X144349609Y-103120527D01*
X144415096Y-103063949D01*
X144473458Y-103102946D01*
X144538545Y-103200355D01*
X144983045Y-103644855D01*
X145222015Y-103804530D01*
X145503900Y-103860600D01*
X146799300Y-103860600D01*
X147081185Y-103804530D01*
X147320155Y-103644855D01*
X147802755Y-103162255D01*
X147962430Y-102923285D01*
X148018500Y-102641400D01*
X148018500Y-100482400D01*
X147962430Y-100200515D01*
X147802755Y-99961545D01*
X147040755Y-99199545D01*
X146801785Y-99039870D01*
X146519900Y-98983800D01*
X145394791Y-98983800D01*
X145415000Y-98882200D01*
X145415000Y-95529400D01*
X145358930Y-95247515D01*
X145199255Y-95008545D01*
X144851494Y-94660784D01*
X144851562Y-94582233D01*
X144709517Y-94238457D01*
X144446727Y-93975208D01*
X144103199Y-93832562D01*
X143992600Y-93832466D01*
X143992600Y-88468510D01*
X145233070Y-87228040D01*
X145838800Y-87228040D01*
X146074117Y-87183762D01*
X146290241Y-87044690D01*
X146435231Y-86832490D01*
X146486240Y-86580600D01*
X146486240Y-86382477D01*
X146708468Y-86382477D01*
X146907277Y-86778204D01*
X147242391Y-87067727D01*
X147500726Y-87174719D01*
X147675600Y-87048554D01*
X147675600Y-86207600D01*
X146833465Y-86207600D01*
X146708468Y-86382477D01*
X146486240Y-86382477D01*
X146486240Y-85778723D01*
X146708468Y-85778723D01*
X146833465Y-85953600D01*
X147675600Y-85953600D01*
X147675600Y-85580600D01*
X147925160Y-85580600D01*
X147925160Y-86580600D01*
X147929600Y-86604197D01*
X147929600Y-87048554D01*
X148104474Y-87174719D01*
X148236998Y-87119833D01*
X148320710Y-87177031D01*
X148572600Y-87228040D01*
X149572600Y-87228040D01*
X149807917Y-87183762D01*
X150024041Y-87044690D01*
X150169031Y-86832490D01*
X150220040Y-86580600D01*
X150220040Y-85580600D01*
X150175762Y-85345283D01*
X150036690Y-85129159D01*
X149824490Y-84984169D01*
X149572600Y-84933160D01*
X148572600Y-84933160D01*
X148337283Y-84977438D01*
X148237568Y-85041603D01*
X148104474Y-84986481D01*
X147929600Y-85112646D01*
X147929600Y-85558675D01*
X147925160Y-85580600D01*
X147675600Y-85580600D01*
X147675600Y-85112646D01*
X147500726Y-84986481D01*
X147242391Y-85093473D01*
X146907277Y-85382996D01*
X146708468Y-85778723D01*
X146486240Y-85778723D01*
X146486240Y-85580600D01*
X146441962Y-85345283D01*
X146302890Y-85129159D01*
X146090690Y-84984169D01*
X145838800Y-84933160D01*
X144838800Y-84933160D01*
X144603483Y-84977438D01*
X144387359Y-85116510D01*
X144242369Y-85328710D01*
X144191360Y-85580600D01*
X144191360Y-86186330D01*
X143861729Y-86515961D01*
X143933800Y-86153636D01*
X143933800Y-86109164D01*
X143847403Y-85674818D01*
X143601366Y-85306598D01*
X143233146Y-85060561D01*
X142798800Y-84974164D01*
X142364454Y-85060561D01*
X142341041Y-85076205D01*
X142280690Y-85034969D01*
X142028800Y-84983960D01*
X141028800Y-84983960D01*
X140793483Y-85028238D01*
X140577359Y-85167310D01*
X140432369Y-85379510D01*
X140381360Y-85631400D01*
X140381360Y-86631400D01*
X140425638Y-86866717D01*
X140564710Y-87082841D01*
X140776910Y-87227831D01*
X141028800Y-87278840D01*
X141566900Y-87278840D01*
X141566900Y-90035099D01*
X141381733Y-90034938D01*
X141037957Y-90176983D01*
X141032230Y-90182700D01*
X140203952Y-90182700D01*
X138779974Y-88758722D01*
X138844138Y-88604199D01*
X138844462Y-88232233D01*
X138702417Y-87888457D01*
X138439627Y-87625208D01*
X138096099Y-87482562D01*
X137724133Y-87482238D01*
X137380357Y-87624283D01*
X137117108Y-87887073D01*
X136974462Y-88230601D01*
X136974138Y-88602567D01*
X137116183Y-88946343D01*
X137121900Y-88952070D01*
X137121900Y-89001600D01*
X137181837Y-89302925D01*
X137352524Y-89558376D01*
X139321024Y-91526876D01*
X139576475Y-91697563D01*
X139877800Y-91757500D01*
X141031789Y-91757500D01*
X141036573Y-91762292D01*
X141380101Y-91904938D01*
X141566900Y-91905101D01*
X141566900Y-93179590D01*
X141066495Y-93679995D01*
X140886433Y-93679838D01*
X140542657Y-93821883D01*
X140279408Y-94084673D01*
X140136762Y-94428201D01*
X140136438Y-94800167D01*
X140278483Y-95143943D01*
X140541273Y-95407192D01*
X140884801Y-95549838D01*
X141256767Y-95550162D01*
X141301261Y-95531777D01*
X141531873Y-95762792D01*
X141875401Y-95905438D01*
X141881211Y-95905443D01*
X141954883Y-96083743D01*
X142217673Y-96346992D01*
X142391372Y-96419118D01*
X140728545Y-98081945D01*
X140568870Y-98320915D01*
X140512800Y-98602800D01*
X140512800Y-99994521D01*
X140446834Y-100038598D01*
X140200797Y-100406818D01*
X140114400Y-100841164D01*
X140114400Y-100885636D01*
X140199492Y-101313421D01*
X140177232Y-101346000D01*
X139975352Y-101346000D01*
X139903200Y-101273848D01*
X139903200Y-98985511D01*
X139907992Y-98980727D01*
X140050638Y-98637199D01*
X140050962Y-98265233D01*
X139908917Y-97921457D01*
X139646127Y-97658208D01*
X139302599Y-97515562D01*
X139294507Y-97515555D01*
X137922000Y-96143048D01*
X137922000Y-94083311D01*
X137926792Y-94078527D01*
X138069438Y-93734999D01*
X138069762Y-93363033D01*
X137927717Y-93019257D01*
X137664927Y-92756008D01*
X137321399Y-92613362D01*
X136949433Y-92613038D01*
X136605657Y-92755083D01*
X136599930Y-92760800D01*
X135555752Y-92760800D01*
X135379976Y-92585024D01*
X135124525Y-92414337D01*
X134823200Y-92354400D01*
X128855911Y-92354400D01*
X128851127Y-92349608D01*
X128507599Y-92206962D01*
X128135633Y-92206638D01*
X127791857Y-92348683D01*
X127528608Y-92611473D01*
X127385962Y-92955001D01*
X127385638Y-93326967D01*
X120294400Y-93326967D01*
X120294400Y-84099400D01*
X151536400Y-84099400D01*
X151536400Y-104165400D01*
X151536400Y-104165400D01*
G37*
X151536400Y-104165400D02*
X120294400Y-104165400D01*
X120294400Y-93326967D01*
X127385638Y-93326967D01*
X127527683Y-93670743D01*
X127790473Y-93933992D01*
X128134001Y-94076638D01*
X128505967Y-94076962D01*
X128849743Y-93934917D01*
X128855470Y-93929200D01*
X134497048Y-93929200D01*
X134672824Y-94104976D01*
X134928275Y-94275663D01*
X135229600Y-94335600D01*
X136347200Y-94335600D01*
X136347200Y-96469200D01*
X136407137Y-96770525D01*
X136577824Y-97025976D01*
X138180644Y-98628796D01*
X138180638Y-98635567D01*
X138322683Y-98979343D01*
X138328400Y-98985070D01*
X138328400Y-101600000D01*
X138388337Y-101901325D01*
X138559024Y-102156776D01*
X139092424Y-102690176D01*
X139347875Y-102860863D01*
X139649200Y-102920801D01*
X139649205Y-102920800D01*
X140179752Y-102920800D01*
X140285310Y-103084841D01*
X140497510Y-103229831D01*
X140749400Y-103280840D01*
X141749400Y-103280840D01*
X141984717Y-103236562D01*
X142084432Y-103172397D01*
X142217526Y-103227519D01*
X142392400Y-103101354D01*
X142392400Y-102655325D01*
X142396840Y-102633400D01*
X142396840Y-102260400D01*
X142646400Y-102260400D01*
X142646400Y-103101354D01*
X142821274Y-103227519D01*
X143079609Y-103120527D01*
X143154400Y-103055911D01*
X143229191Y-103120527D01*
X143487526Y-103227519D01*
X143662400Y-103101354D01*
X143662400Y-102260400D01*
X142646400Y-102260400D01*
X142396840Y-102260400D01*
X142396840Y-101996257D01*
X142519400Y-102020636D01*
X142646400Y-101995374D01*
X142646400Y-102006400D01*
X143662400Y-102006400D01*
X143662400Y-101995374D01*
X143789400Y-102020636D01*
X143916400Y-101995374D01*
X143916400Y-102006400D01*
X143936400Y-102006400D01*
X143936400Y-102050836D01*
X143924400Y-102111164D01*
X143924400Y-102155636D01*
X143936400Y-102215964D01*
X143936400Y-102260400D01*
X143916400Y-102260400D01*
X143916400Y-103101354D01*
X144091274Y-103227519D01*
X144349609Y-103120527D01*
X144415096Y-103063949D01*
X144473458Y-103102946D01*
X144538545Y-103200355D01*
X144983045Y-103644855D01*
X145222015Y-103804530D01*
X145503900Y-103860600D01*
X146799300Y-103860600D01*
X147081185Y-103804530D01*
X147320155Y-103644855D01*
X147802755Y-103162255D01*
X147962430Y-102923285D01*
X148018500Y-102641400D01*
X148018500Y-100482400D01*
X147962430Y-100200515D01*
X147802755Y-99961545D01*
X147040755Y-99199545D01*
X146801785Y-99039870D01*
X146519900Y-98983800D01*
X145394791Y-98983800D01*
X145415000Y-98882200D01*
X145415000Y-95529400D01*
X145358930Y-95247515D01*
X145199255Y-95008545D01*
X144851494Y-94660784D01*
X144851562Y-94582233D01*
X144709517Y-94238457D01*
X144446727Y-93975208D01*
X144103199Y-93832562D01*
X143992600Y-93832466D01*
X143992600Y-88468510D01*
X145233070Y-87228040D01*
X145838800Y-87228040D01*
X146074117Y-87183762D01*
X146290241Y-87044690D01*
X146435231Y-86832490D01*
X146486240Y-86580600D01*
X146486240Y-86382477D01*
X146708468Y-86382477D01*
X146907277Y-86778204D01*
X147242391Y-87067727D01*
X147500726Y-87174719D01*
X147675600Y-87048554D01*
X147675600Y-86207600D01*
X146833465Y-86207600D01*
X146708468Y-86382477D01*
X146486240Y-86382477D01*
X146486240Y-85778723D01*
X146708468Y-85778723D01*
X146833465Y-85953600D01*
X147675600Y-85953600D01*
X147675600Y-85580600D01*
X147925160Y-85580600D01*
X147925160Y-86580600D01*
X147929600Y-86604197D01*
X147929600Y-87048554D01*
X148104474Y-87174719D01*
X148236998Y-87119833D01*
X148320710Y-87177031D01*
X148572600Y-87228040D01*
X149572600Y-87228040D01*
X149807917Y-87183762D01*
X150024041Y-87044690D01*
X150169031Y-86832490D01*
X150220040Y-86580600D01*
X150220040Y-85580600D01*
X150175762Y-85345283D01*
X150036690Y-85129159D01*
X149824490Y-84984169D01*
X149572600Y-84933160D01*
X148572600Y-84933160D01*
X148337283Y-84977438D01*
X148237568Y-85041603D01*
X148104474Y-84986481D01*
X147929600Y-85112646D01*
X147929600Y-85558675D01*
X147925160Y-85580600D01*
X147675600Y-85580600D01*
X147675600Y-85112646D01*
X147500726Y-84986481D01*
X147242391Y-85093473D01*
X146907277Y-85382996D01*
X146708468Y-85778723D01*
X146486240Y-85778723D01*
X146486240Y-85580600D01*
X146441962Y-85345283D01*
X146302890Y-85129159D01*
X146090690Y-84984169D01*
X145838800Y-84933160D01*
X144838800Y-84933160D01*
X144603483Y-84977438D01*
X144387359Y-85116510D01*
X144242369Y-85328710D01*
X144191360Y-85580600D01*
X144191360Y-86186330D01*
X143861729Y-86515961D01*
X143933800Y-86153636D01*
X143933800Y-86109164D01*
X143847403Y-85674818D01*
X143601366Y-85306598D01*
X143233146Y-85060561D01*
X142798800Y-84974164D01*
X142364454Y-85060561D01*
X142341041Y-85076205D01*
X142280690Y-85034969D01*
X142028800Y-84983960D01*
X141028800Y-84983960D01*
X140793483Y-85028238D01*
X140577359Y-85167310D01*
X140432369Y-85379510D01*
X140381360Y-85631400D01*
X140381360Y-86631400D01*
X140425638Y-86866717D01*
X140564710Y-87082841D01*
X140776910Y-87227831D01*
X141028800Y-87278840D01*
X141566900Y-87278840D01*
X141566900Y-90035099D01*
X141381733Y-90034938D01*
X141037957Y-90176983D01*
X141032230Y-90182700D01*
X140203952Y-90182700D01*
X138779974Y-88758722D01*
X138844138Y-88604199D01*
X138844462Y-88232233D01*
X138702417Y-87888457D01*
X138439627Y-87625208D01*
X138096099Y-87482562D01*
X137724133Y-87482238D01*
X137380357Y-87624283D01*
X137117108Y-87887073D01*
X136974462Y-88230601D01*
X136974138Y-88602567D01*
X137116183Y-88946343D01*
X137121900Y-88952070D01*
X137121900Y-89001600D01*
X137181837Y-89302925D01*
X137352524Y-89558376D01*
X139321024Y-91526876D01*
X139576475Y-91697563D01*
X139877800Y-91757500D01*
X141031789Y-91757500D01*
X141036573Y-91762292D01*
X141380101Y-91904938D01*
X141566900Y-91905101D01*
X141566900Y-93179590D01*
X141066495Y-93679995D01*
X140886433Y-93679838D01*
X140542657Y-93821883D01*
X140279408Y-94084673D01*
X140136762Y-94428201D01*
X140136438Y-94800167D01*
X140278483Y-95143943D01*
X140541273Y-95407192D01*
X140884801Y-95549838D01*
X141256767Y-95550162D01*
X141301261Y-95531777D01*
X141531873Y-95762792D01*
X141875401Y-95905438D01*
X141881211Y-95905443D01*
X141954883Y-96083743D01*
X142217673Y-96346992D01*
X142391372Y-96419118D01*
X140728545Y-98081945D01*
X140568870Y-98320915D01*
X140512800Y-98602800D01*
X140512800Y-99994521D01*
X140446834Y-100038598D01*
X140200797Y-100406818D01*
X140114400Y-100841164D01*
X140114400Y-100885636D01*
X140199492Y-101313421D01*
X140177232Y-101346000D01*
X139975352Y-101346000D01*
X139903200Y-101273848D01*
X139903200Y-98985511D01*
X139907992Y-98980727D01*
X140050638Y-98637199D01*
X140050962Y-98265233D01*
X139908917Y-97921457D01*
X139646127Y-97658208D01*
X139302599Y-97515562D01*
X139294507Y-97515555D01*
X137922000Y-96143048D01*
X137922000Y-94083311D01*
X137926792Y-94078527D01*
X138069438Y-93734999D01*
X138069762Y-93363033D01*
X137927717Y-93019257D01*
X137664927Y-92756008D01*
X137321399Y-92613362D01*
X136949433Y-92613038D01*
X136605657Y-92755083D01*
X136599930Y-92760800D01*
X135555752Y-92760800D01*
X135379976Y-92585024D01*
X135124525Y-92414337D01*
X134823200Y-92354400D01*
X128855911Y-92354400D01*
X128851127Y-92349608D01*
X128507599Y-92206962D01*
X128135633Y-92206638D01*
X127791857Y-92348683D01*
X127528608Y-92611473D01*
X127385962Y-92955001D01*
X127385638Y-93326967D01*
X120294400Y-93326967D01*
X120294400Y-84099400D01*
X151536400Y-84099400D01*
X151536400Y-104165400D01*
G36*
X146456400Y-102006400D02*
X146476400Y-102006400D01*
X146476400Y-102260400D01*
X146456400Y-102260400D01*
X146456400Y-102280400D01*
X146202400Y-102280400D01*
X146202400Y-102260400D01*
X146182400Y-102260400D01*
X146182400Y-102215964D01*
X146194400Y-102155636D01*
X146194400Y-102111164D01*
X146182400Y-102050836D01*
X146182400Y-102006400D01*
X146202400Y-102006400D01*
X146202400Y-101995374D01*
X146329400Y-102020636D01*
X146456400Y-101995374D01*
X146456400Y-102006400D01*
X146456400Y-102006400D01*
G37*
X146456400Y-102006400D02*
X146476400Y-102006400D01*
X146476400Y-102260400D01*
X146456400Y-102260400D01*
X146456400Y-102280400D01*
X146202400Y-102280400D01*
X146202400Y-102260400D01*
X146182400Y-102260400D01*
X146182400Y-102215964D01*
X146194400Y-102155636D01*
X146194400Y-102111164D01*
X146182400Y-102050836D01*
X146182400Y-102006400D01*
X146202400Y-102006400D01*
X146202400Y-101995374D01*
X146329400Y-102020636D01*
X146456400Y-101995374D01*
X146456400Y-102006400D01*
M02*
